<svg clip-rule="evenodd" fill-rule="evenodd" stroke-linejoin="round" stroke-miterlimit="1.41421" viewBox="0 0 1280 250" xmlns="http://www.w3.org/2000/svg" xmlns:xlink="http://www.w3.org/1999/xlink"><clipPath id="a"><path clip-rule="evenodd" d="m789.112 197.067h5.392v310.986h-5.392z"/></clipPath><clipPath id="b"><path clip-rule="evenodd" d="m791.44 376.885c2.04-8.046 3.064-16.179 3.064-24.325s-1.024-16.279-3.064-24.324l-245.801 24.324z"/></clipPath><clipPath id="c"><path clip-rule="evenodd" d="m780.817 197.067h13.688v310.986h-13.688z"/></clipPath><g clip-path="url(#a)" transform="matrix(0 -16.073 25.7246 0 -8429.46 12918)"><path d="m791.44 376.885c2.04-8.046 3.064-16.179 3.064-24.325s-1.024-16.279-3.064-24.324l-245.801 24.324z" fill="#162d55"/><g clip-path="url(#b)"><g transform="matrix(0 .0388733 -.0622162 0 824.911 319.007)"><g fill="none"><path d="m503.013 516.043h4.547v34.359h-4.547z"/><path d="m514.028 539.363 4.289-.375c.204 1.719.676 3.129 1.418 4.23.743 1.102 1.895 1.992 3.457 2.672 1.563.68 3.321 1.02 5.274 1.02 1.734 0 3.265-.258 4.594-.774 1.328-.515 2.316-1.222 2.964-2.121.649-.898.973-1.879.973-2.941 0-1.078-.312-2.02-.937-2.824-.625-.805-1.657-1.481-3.094-2.028-.922-.359-2.961-.918-6.117-1.676-3.157-.757-5.368-1.472-6.633-2.144-1.641-.859-2.863-1.926-3.668-3.199-.805-1.274-1.207-2.7-1.207-4.278 0-1.734.492-3.355 1.476-4.863.985-1.508 2.422-2.652 4.313-3.434 1.891-.781 3.992-1.171 6.305-1.171 2.546 0 4.793.41 6.738 1.23s3.441 2.027 4.488 3.621 1.61 3.399 1.688 5.414l-4.36.328c-.234-2.172-1.027-3.812-2.379-4.922-1.351-1.109-3.347-1.664-5.988-1.664-2.75 0-4.754.504-6.012 1.512-1.257 1.008-1.886 2.223-1.886 3.645 0 1.234.445 2.25 1.336 3.047.875.796 3.16 1.613 6.855 2.449s6.231 1.566 7.606 2.191c2 .922 3.476 2.09 4.429 3.504s1.43 3.043 1.43 4.887c0 1.828-.524 3.551-1.57 5.168-1.047 1.617-2.551 2.875-4.512 3.773-1.961.899-4.168 1.348-6.621 1.348-3.11 0-5.715-.453-7.817-1.36-2.101-.906-3.75-2.269-4.945-4.089-1.195-1.821-1.824-3.879-1.887-6.176z"/><path d="m546.044 539.363 4.289-.375c.203 1.719.676 3.129 1.418 4.23.742 1.102 1.895 1.992 3.457 2.672 1.563.68 3.32 1.02 5.273 1.02 1.735 0 3.266-.258 4.594-.774 1.328-.515 2.317-1.222 2.965-2.121.649-.898.973-1.879.973-2.941 0-1.078-.313-2.02-.938-2.824-.625-.805-1.656-1.481-3.094-2.028-.921-.359-2.96-.918-6.117-1.676-3.156-.757-5.367-1.472-6.633-2.144-1.64-.859-2.863-1.926-3.667-3.199-.805-1.274-1.208-2.7-1.208-4.278 0-1.734.493-3.355 1.477-4.863s2.422-2.652 4.313-3.434c1.89-.781 3.992-1.171 6.304-1.171 2.547 0 4.793.41 6.739 1.23 1.945.82 3.441 2.027 4.488 3.621s1.609 3.399 1.687 5.414l-4.359.328c-.234-2.172-1.027-3.812-2.379-4.922-1.352-1.109-3.348-1.664-5.988-1.664-2.75 0-4.754.504-6.012 1.512s-1.887 2.223-1.887 3.645c0 1.234.446 2.25 1.336 3.047.875.796 3.16 1.613 6.856 2.449 3.695.836 6.23 1.566 7.605 2.191 2 .922 3.477 2.09 4.43 3.504s1.43 3.043 1.43 4.887c0 1.828-.524 3.551-1.571 5.168s-2.551 2.875-4.511 3.773c-1.961.899-4.168 1.348-6.622 1.348-3.109 0-5.714-.453-7.816-1.36-2.102-.906-3.75-2.269-4.945-4.089-1.196-1.821-1.825-3.879-1.887-6.176z"/><path d="m600.466 560.503c-2.328-2.937-4.297-6.375-5.906-10.312-1.61-3.938-2.414-8.016-2.414-12.234 0-3.719.601-7.282 1.804-10.688 1.406-3.953 3.578-7.891 6.516-11.812h3.023c-1.89 3.25-3.14 5.57-3.75 6.961-.953 2.156-1.703 4.406-2.25 6.75-.672 2.921-1.008 5.859-1.008 8.812 0 7.516 2.336 15.023 7.008 22.523z"/><path d="m607.216 541.402 4.43-.375c.328 2.156 1.089 3.777 2.285 4.863 1.195 1.086 2.636 1.629 4.324 1.629 2.031 0 3.75-.766 5.156-2.297s2.11-3.562 2.11-6.094c0-2.406-.676-4.304-2.028-5.695-1.351-1.39-3.121-2.086-5.308-2.086-1.36 0-2.586.309-3.68.926s-1.953 1.418-2.578 2.402l-3.961-.515 3.328-17.649h17.086v4.032h-13.711l-1.852 9.234c2.063-1.438 4.227-2.156 6.493-2.156 3 0 5.531 1.039 7.593 3.117 2.063 2.078 3.094 4.75 3.094 8.015 0 3.11-.906 5.797-2.719 8.063-2.203 2.781-5.211 4.172-9.023 4.172-3.125 0-5.676-.875-7.652-2.625-1.977-1.75-3.106-4.07-3.387-6.961z"/><path d="m633.911 533.457c0-4.063.418-7.332 1.254-9.809s2.078-4.387 3.727-5.73c1.648-1.344 3.722-2.016 6.222-2.016 1.844 0 3.461.371 4.852 1.113 1.39.742 2.539 1.813 3.445 3.211.906 1.399 1.617 3.102 2.133 5.109.516 2.008.773 4.715.773 8.122 0 4.031-.414 7.285-1.242 9.761-.828 2.477-2.066 4.391-3.715 5.742-1.648 1.352-3.73 2.028-6.246 2.028-3.312 0-5.914-1.188-7.804-3.563-2.266-2.859-3.399-7.515-3.399-13.968zm4.336 0c0 5.64.66 9.394 1.981 11.261 1.32 1.867 2.949 2.801 4.886 2.801 1.938 0 3.567-.937 4.887-2.812s1.98-5.625 1.98-11.25c0-5.657-.66-9.414-1.98-11.274-1.32-1.859-2.965-2.789-4.934-2.789-1.937 0-3.484.82-4.64 2.461-1.453 2.094-2.18 5.961-2.18 11.602z"/><path d="m661.778 550.402v-24.891h3.774v3.492c.781-1.218 1.82-2.199 3.117-2.941s2.773-1.113 4.43-1.113c1.843 0 3.355.383 4.535 1.148 1.18.766 2.012 1.836 2.496 3.211 1.969-2.906 4.531-4.359 7.687-4.359 2.469 0 4.368.683 5.696 2.051 1.328 1.367 1.992 3.472 1.992 6.316v17.086h-4.195v-15.68c0-1.687-.137-2.902-.411-3.644-.273-.743-.769-1.34-1.488-1.793s-1.562-.68-2.531-.68c-1.75 0-3.203.582-4.359 1.746-1.157 1.164-1.735 3.027-1.735 5.59v14.461h-4.219v-16.172c0-1.875-.343-3.281-1.031-4.219-.687-.937-1.812-1.406-3.375-1.406-1.187 0-2.285.313-3.293.938s-1.738 1.539-2.191 2.742-.68 2.937-.68 5.203v12.914z"/><path d="m701.763 550.402v-24.891h3.773v3.492c.781-1.218 1.82-2.199 3.117-2.941s2.774-1.113 4.43-1.113c1.844 0 3.356.383 4.535 1.148 1.18.766 2.012 1.836 2.496 3.211 1.969-2.906 4.532-4.359 7.688-4.359 2.469 0 4.367.683 5.695 2.051 1.328 1.367 1.992 3.472 1.992 6.316v17.086h-4.195v-15.68c0-1.687-.137-2.902-.41-3.644-.274-.743-.77-1.34-1.488-1.793-.719-.453-1.563-.68-2.532-.68-1.75 0-3.203.582-4.359 1.746s-1.734 3.027-1.734 5.59v14.461h-4.219v-16.172c0-1.875-.344-3.281-1.031-4.219-.688-.937-1.813-1.406-3.375-1.406-1.188 0-2.286.313-3.293.938-1.008.625-1.739 1.539-2.192 2.742s-.68 2.937-.68 5.203v12.914z"/><path d="m754.989 516.043h4.219v34.359h-4.219z"/><path d="m782.786 542.386 4.36.539c-.688 2.547-1.961 4.524-3.821 5.93-1.859 1.406-4.234 2.109-7.125 2.109-3.64 0-6.527-1.121-8.66-3.363s-3.199-5.387-3.199-9.433c0-4.188 1.078-7.438 3.234-9.75 2.156-2.313 4.953-3.469 8.391-3.469 3.328 0 6.047 1.133 8.156 3.398 2.109 2.266 3.164 5.453 3.164 9.563 0 .25-.008.625-.023 1.125h-18.563c.156 2.734.93 4.828 2.321 6.281 1.39 1.453 3.125 2.18 5.203 2.18 1.547 0 2.867-.407 3.961-1.219 1.093-.813 1.961-2.109 2.601-3.891zm-13.851-6.82h13.898c-.187-2.094-.719-3.664-1.594-4.711-1.343-1.625-3.086-2.437-5.226-2.437-1.938 0-3.567.648-4.887 1.945s-2.051 3.031-2.191 5.203z"/><path d="m792.442 550.402v-24.891h3.797v3.539c1.828-2.734 4.469-4.101 7.922-4.101 1.5 0 2.879.269 4.137.808s2.199 1.246 2.824 2.121 1.063 1.915 1.313 3.118c.156.781.234 2.148.234 4.101v15.305h-4.219v-15.141c0-1.718-.164-3.004-.492-3.855-.328-.852-.91-1.531-1.746-2.039s-1.816-.762-2.941-.762c-1.797 0-3.348.57-4.653 1.711-1.304 1.141-1.957 3.305-1.957 6.492v13.594z"/><path d="m817.45 542.972 4.172-.656c.234 1.672.887 2.953 1.957 3.844 1.07.89 2.567 1.336 4.488 1.336 1.938 0 3.375-.395 4.313-1.184.937-.789 1.406-1.715 1.406-2.777 0-.953-.414-1.703-1.242-2.25-.578-.375-2.016-.852-4.313-1.43-3.093-.781-5.238-1.457-6.433-2.027-1.195-.571-2.102-1.36-2.719-2.368-.617-1.007-.926-2.121-.926-3.339 0-1.11.254-2.137.762-3.082.508-.946 1.199-1.731 2.074-2.356.657-.484 1.551-.894 2.684-1.23s2.348-.504 3.644-.504c1.954 0 3.668.281 5.145.844 1.477.562 2.566 1.324 3.269 2.285.704.961 1.188 2.246 1.454 3.855l-4.125.563c-.188-1.282-.731-2.282-1.629-3-.899-.719-2.168-1.078-3.809-1.078-1.937 0-3.32.32-4.148.96-.828.641-1.243 1.391-1.243 2.25 0 .547.172 1.04.516 1.477.344.453.883.828 1.617 1.125.422.156 1.664.516 3.727 1.078 2.984.797 5.066 1.449 6.246 1.957s2.105 1.246 2.777 2.215 1.008 2.172 1.008 3.609c0 1.407-.41 2.731-1.23 3.973-.821 1.242-2.004 2.203-3.551 2.883s-3.297 1.019-5.25 1.019c-3.235 0-5.699-.671-7.395-2.015-1.695-1.344-2.777-3.336-3.246-5.977z"/><path d="m845.903 560.503h-3.023c4.672-7.5 7.008-15.007 7.008-22.523 0-2.937-.336-5.852-1.008-8.742-.531-2.344-1.274-4.594-2.227-6.75-.609-1.406-1.867-3.75-3.773-7.031h3.023c2.938 3.921 5.11 7.859 6.516 11.812 1.203 3.406 1.805 6.969 1.805 10.688 0 4.218-.809 8.296-2.426 12.234-1.617 3.937-3.582 7.375-5.895 10.312z"/><path d="m860.294 530.316v-4.805h4.805v4.805zm0 20.086v-4.805h4.805v4.805z"/><path d="m906.794 546.347v4.055h-22.711c-.031-1.016.133-1.992.492-2.93.578-1.547 1.504-3.07 2.778-4.57 1.273-1.5 3.113-3.234 5.519-5.203 3.734-3.063 6.258-5.489 7.57-7.278 1.313-1.789 1.969-3.48 1.969-5.074 0-1.672-.597-3.082-1.793-4.23-1.195-1.149-2.754-1.723-4.676-1.723-2.031 0-3.656.609-4.875 1.828-1.218 1.219-1.836 2.906-1.851 5.063l-4.336-.446c.297-3.234 1.414-5.699 3.351-7.394 1.938-1.695 4.54-2.543 7.805-2.543 3.297 0 5.906.914 7.828 2.742s2.883 4.094 2.883 6.797c0 1.375-.281 2.727-.844 4.055-.562 1.328-1.496 2.726-2.8 4.195-1.305 1.469-3.473 3.484-6.504 6.047-2.532 2.125-4.157 3.566-4.875 4.324-.719.758-1.313 1.52-1.782 2.285z"/><path d="m911.317 533.457c0-4.063.418-7.332 1.254-9.809s2.078-4.387 3.727-5.73c1.648-1.344 3.723-2.016 6.223-2.016 1.843 0 3.46.371 4.851 1.113s2.539 1.813 3.445 3.211c.907 1.399 1.618 3.102 2.133 5.109.516 2.008.774 4.715.774 8.122 0 4.031-.414 7.285-1.243 9.761-.828 2.477-2.066 4.391-3.714 5.742-1.649 1.352-3.731 2.028-6.246 2.028-3.313 0-5.915-1.188-7.805-3.563-2.266-2.859-3.399-7.515-3.399-13.968zm4.336 0c0 5.64.661 9.394 1.981 11.261s2.949 2.801 4.887 2.801c1.937 0 3.566-.937 4.886-2.812 1.321-1.875 1.981-5.625 1.981-11.25 0-5.657-.66-9.414-1.981-11.274-1.32-1.859-2.965-2.789-4.933-2.789-1.938 0-3.485.82-4.641 2.461-1.453 2.094-2.18 5.961-2.18 11.602z"/><path d="m938.013 533.457c0-4.063.418-7.332 1.254-9.809s2.078-4.387 3.726-5.73c1.649-1.344 3.723-2.016 6.223-2.016 1.844 0 3.461.371 4.851 1.113 1.391.742 2.539 1.813 3.446 3.211.906 1.399 1.617 3.102 2.133 5.109.515 2.008.773 4.715.773 8.122 0 4.031-.414 7.285-1.242 9.761-.828 2.477-2.067 4.391-3.715 5.742-1.648 1.352-3.731 2.028-6.246 2.028-3.313 0-5.914-1.188-7.805-3.563-2.265-2.859-3.398-7.515-3.398-13.968zm4.336 0c0 5.64.66 9.394 1.98 11.261s2.949 2.801 4.887 2.801c1.937 0 3.566-.937 4.887-2.812 1.32-1.875 1.98-5.625 1.98-11.25 0-5.657-.66-9.414-1.98-11.274-1.321-1.859-2.965-2.789-4.934-2.789-1.938 0-3.484.82-4.641 2.461-1.453 2.094-2.179 5.961-2.179 11.602z"/><path d="m964.708 533.457c0-4.063.418-7.332 1.254-9.809s2.078-4.387 3.727-5.73c1.648-1.344 3.722-2.016 6.222-2.016 1.844 0 3.461.371 4.852 1.113 1.39.742 2.539 1.813 3.445 3.211.906 1.399 1.617 3.102 2.133 5.109.515 2.008.773 4.715.773 8.122 0 4.031-.414 7.285-1.242 9.761-.828 2.477-2.066 4.391-3.715 5.742-1.648 1.352-3.73 2.028-6.246 2.028-3.312 0-5.914-1.188-7.805-3.563-2.265-2.859-3.398-7.515-3.398-13.968zm4.336 0c0 5.64.66 9.394 1.98 11.261 1.321 1.867 2.95 2.801 4.887 2.801 1.938 0 3.567-.937 4.887-2.812s1.98-5.625 1.98-11.25c0-5.657-.66-9.414-1.98-11.274-1.32-1.859-2.965-2.789-4.934-2.789-1.937 0-3.484.82-4.64 2.461-1.453 2.094-2.18 5.961-2.18 11.602z"/><path d="m1005.94 550.402v-34.359h4.21v19.593l9.99-10.125h5.46l-9.52 9.235 10.48 15.656h-5.2l-8.23-12.727-2.98 2.86v9.867z"/><path d="m1029.91 550.402v-24.891h3.77v3.492c.79-1.218 1.83-2.199 3.12-2.941 1.3-.742 2.78-1.113 4.43-1.113 1.85 0 3.36.383 4.54 1.148 1.18.766 2.01 1.836 2.49 3.211 1.97-2.906 4.53-4.359 7.69-4.359 2.47 0 4.37.683 5.7 2.051 1.32 1.367 1.99 3.472 1.99 6.316v17.086h-4.2v-15.68c0-1.687-.13-2.902-.41-3.644-.27-.743-.77-1.34-1.49-1.793-.71-.453-1.56-.68-2.53-.68-1.75 0-3.2.582-4.36 1.746-1.15 1.164-1.73 3.027-1.73 5.59v14.461h-4.22v-16.172c0-1.875-.34-3.281-1.03-4.219-.69-.937-1.81-1.406-3.38-1.406-1.18 0-2.28.313-3.29.938s-1.74 1.539-2.19 2.742-.68 2.937-.68 5.203v12.914z"/><path d="m1091.29 560.503c-2.32-2.937-4.29-6.375-5.9-10.312-1.61-3.938-2.42-8.016-2.42-12.234 0-3.719.61-7.282 1.81-10.688 1.4-3.953 3.58-7.891 6.51-11.812h3.03c-1.89 3.25-3.14 5.57-3.75 6.961-.96 2.156-1.71 4.406-2.25 6.75-.67 2.921-1.01 5.859-1.01 8.812 0 7.516 2.34 15.023 7.01 22.523z"/><path d="m1113.93 550.402h-4.21v-26.883c-1.02.969-2.35 1.938-4 2.906-1.65.969-3.13 1.696-4.44 2.18v-4.078c2.36-1.109 4.42-2.453 6.19-4.031 1.76-1.578 3.01-3.11 3.75-4.594h2.71z"/><path d="m1125.02 520.543v-4.055h22.24v3.281c-2.18 2.328-4.35 5.422-6.5 9.281-2.15 3.86-3.81 7.828-4.98 11.907-.85 2.875-1.38 6.023-1.62 9.445h-4.33c.04-2.703.57-5.969 1.59-9.797 1.01-3.828 2.47-7.52 4.37-11.074 1.9-3.555 3.92-6.551 6.06-8.988z"/><path d="m1153.8 545.597h4.805v4.805h-4.805z"/><path d="m1165.4 542.457 4.06-.375c.34 1.906 1 3.289 1.97 4.148s2.21 1.289 3.72 1.289c1.3 0 2.44-.297 3.41-.891.98-.593 1.78-1.386 2.41-2.378.62-.993 1.14-2.332 1.57-4.02.42-1.687.63-3.406.63-5.156 0-.188-.01-.469-.02-.844-.85 1.344-2 2.434-3.46 3.27-1.46.835-3.04 1.253-4.75 1.253-2.84 0-5.25-1.031-7.22-3.093-1.96-2.063-2.95-4.782-2.95-8.157 0-3.484 1.03-6.289 3.08-8.414 2.06-2.125 4.63-3.187 7.73-3.187 2.23 0 4.27.601 6.12 1.805 1.86 1.203 3.26 2.918 4.22 5.144.96 2.227 1.44 5.449 1.44 9.668 0 4.391-.47 7.887-1.43 10.488-.95 2.602-2.37 4.582-4.25 5.942-1.88 1.359-4.09 2.039-6.62 2.039-2.69 0-4.88-.746-6.59-2.238-1.7-1.493-2.72-3.59-3.07-6.293zm17.28-15.164c0-2.422-.65-4.344-1.94-5.766s-2.84-2.133-4.65-2.133c-1.87 0-3.51.766-4.9 2.297s-2.08 3.516-2.08 5.953c0 2.188.66 3.965 1.98 5.332s2.95 2.051 4.88 2.051c1.96 0 3.56-.684 4.82-2.051s1.89-3.262 1.89-5.683z"/><path d="m1198.22 515.457c2.26 0 4.11.781 5.54 2.343 1.43 1.563 2.14 3.719 2.14 6.469 0 2.734-.72 4.883-2.15 6.445-1.44 1.563-3.28 2.344-5.51 2.344-2.27 0-4.12-.765-5.56-2.297-1.43-1.531-2.15-3.664-2.15-6.398 0-2.813.71-5 2.14-6.563 1.43-1.562 3.28-2.343 5.55-2.343zm0 3.117c-1.27 0-2.29.445-3.06 1.336-.78.89-1.16 2.343-1.16 4.359 0 1.969.39 3.41 1.18 4.324s1.8 1.371 3.04 1.371c1.25 0 2.26-.457 3.04-1.371s1.17-2.394 1.17-4.441c0-1.906-.39-3.313-1.18-4.219s-1.8-1.359-3.03-1.359z"/><path d="m1212.93 560.503h-3.02c4.67-7.5 7.01-15.007 7.01-22.523 0-2.937-.34-5.852-1.01-8.742-.53-2.344-1.27-4.594-2.23-6.75-.6-1.406-1.86-3.75-3.77-7.031h3.02c2.94 3.921 5.11 7.859 6.52 11.812 1.2 3.406 1.81 6.969 1.81 10.688 0 4.218-.81 8.296-2.43 12.234-1.62 3.937-3.58 7.375-5.9 10.312z"/></g><g fill="#fff" fill-rule="nonzero"><path d="m503.013 516.043h4.547v34.359h-4.547z"/><path d="m514.028 539.363 4.289-.375c.204 1.719.676 3.129 1.418 4.23.743 1.102 1.895 1.992 3.457 2.672 1.563.68 3.321 1.02 5.274 1.02 1.734 0 3.265-.258 4.594-.774 1.328-.515 2.316-1.222 2.964-2.121.649-.898.973-1.879.973-2.941 0-1.078-.312-2.02-.937-2.824-.625-.805-1.657-1.481-3.094-2.028-.922-.359-2.961-.918-6.117-1.676-3.157-.757-5.368-1.472-6.633-2.144-1.641-.859-2.863-1.926-3.668-3.199-.805-1.274-1.207-2.7-1.207-4.278 0-1.734.492-3.355 1.476-4.863.985-1.508 2.422-2.652 4.313-3.434 1.891-.781 3.992-1.171 6.305-1.171 2.546 0 4.793.41 6.738 1.23s3.441 2.027 4.488 3.621 1.61 3.399 1.688 5.414l-4.36.328c-.234-2.172-1.027-3.812-2.379-4.922-1.351-1.109-3.347-1.664-5.988-1.664-2.75 0-4.754.504-6.012 1.512-1.257 1.008-1.886 2.223-1.886 3.645 0 1.234.445 2.25 1.336 3.047.875.796 3.16 1.613 6.855 2.449s6.231 1.566 7.606 2.191c2 .922 3.476 2.09 4.429 3.504s1.43 3.043 1.43 4.887c0 1.828-.524 3.551-1.57 5.168-1.047 1.617-2.551 2.875-4.512 3.773-1.961.899-4.168 1.348-6.621 1.348-3.11 0-5.715-.453-7.817-1.36-2.101-.906-3.75-2.269-4.945-4.089-1.195-1.821-1.824-3.879-1.887-6.176z"/><path d="m546.044 539.363 4.289-.375c.203 1.719.676 3.129 1.418 4.23.742 1.102 1.895 1.992 3.457 2.672 1.563.68 3.32 1.02 5.273 1.02 1.735 0 3.266-.258 4.594-.774 1.328-.515 2.317-1.222 2.965-2.121.649-.898.973-1.879.973-2.941 0-1.078-.313-2.02-.938-2.824-.625-.805-1.656-1.481-3.094-2.028-.921-.359-2.96-.918-6.117-1.676-3.156-.757-5.367-1.472-6.633-2.144-1.64-.859-2.863-1.926-3.667-3.199-.805-1.274-1.208-2.7-1.208-4.278 0-1.734.493-3.355 1.477-4.863s2.422-2.652 4.313-3.434c1.89-.781 3.992-1.171 6.304-1.171 2.547 0 4.793.41 6.739 1.23 1.945.82 3.441 2.027 4.488 3.621s1.609 3.399 1.687 5.414l-4.359.328c-.234-2.172-1.027-3.812-2.379-4.922-1.352-1.109-3.348-1.664-5.988-1.664-2.75 0-4.754.504-6.012 1.512s-1.887 2.223-1.887 3.645c0 1.234.446 2.25 1.336 3.047.875.796 3.16 1.613 6.856 2.449 3.695.836 6.23 1.566 7.605 2.191 2 .922 3.477 2.09 4.43 3.504s1.43 3.043 1.43 4.887c0 1.828-.524 3.551-1.571 5.168s-2.551 2.875-4.511 3.773c-1.961.899-4.168 1.348-6.622 1.348-3.109 0-5.714-.453-7.816-1.36-2.102-.906-3.75-2.269-4.945-4.089-1.196-1.821-1.825-3.879-1.887-6.176z"/><path d="m600.466 560.503c-2.328-2.937-4.297-6.375-5.906-10.312-1.61-3.938-2.414-8.016-2.414-12.234 0-3.719.601-7.282 1.804-10.688 1.406-3.953 3.578-7.891 6.516-11.812h3.023c-1.89 3.25-3.14 5.57-3.75 6.961-.953 2.156-1.703 4.406-2.25 6.75-.672 2.921-1.008 5.859-1.008 8.812 0 7.516 2.336 15.023 7.008 22.523z"/><path d="m607.216 541.402 4.43-.375c.328 2.156 1.089 3.777 2.285 4.863 1.195 1.086 2.636 1.629 4.324 1.629 2.031 0 3.75-.766 5.156-2.297s2.11-3.562 2.11-6.094c0-2.406-.676-4.304-2.028-5.695-1.351-1.39-3.121-2.086-5.308-2.086-1.36 0-2.586.309-3.68.926s-1.953 1.418-2.578 2.402l-3.961-.515 3.328-17.649h17.086v4.032h-13.711l-1.852 9.234c2.063-1.438 4.227-2.156 6.493-2.156 3 0 5.531 1.039 7.593 3.117 2.063 2.078 3.094 4.75 3.094 8.015 0 3.11-.906 5.797-2.719 8.063-2.203 2.781-5.211 4.172-9.023 4.172-3.125 0-5.676-.875-7.652-2.625-1.977-1.75-3.106-4.07-3.387-6.961z"/><path d="m633.911 533.457c0-4.063.418-7.332 1.254-9.809s2.078-4.387 3.727-5.73c1.648-1.344 3.722-2.016 6.222-2.016 1.844 0 3.461.371 4.852 1.113 1.39.742 2.539 1.813 3.445 3.211.906 1.399 1.617 3.102 2.133 5.109.516 2.008.773 4.715.773 8.122 0 4.031-.414 7.285-1.242 9.761-.828 2.477-2.066 4.391-3.715 5.742-1.648 1.352-3.73 2.028-6.246 2.028-3.312 0-5.914-1.188-7.804-3.563-2.266-2.859-3.399-7.515-3.399-13.968zm4.336 0c0 5.64.66 9.394 1.981 11.261 1.32 1.867 2.949 2.801 4.886 2.801 1.938 0 3.567-.937 4.887-2.812s1.98-5.625 1.98-11.25c0-5.657-.66-9.414-1.98-11.274-1.32-1.859-2.965-2.789-4.934-2.789-1.937 0-3.484.82-4.64 2.461-1.453 2.094-2.18 5.961-2.18 11.602z"/><path d="m661.778 550.402v-24.891h3.774v3.492c.781-1.218 1.82-2.199 3.117-2.941s2.773-1.113 4.43-1.113c1.843 0 3.355.383 4.535 1.148 1.18.766 2.012 1.836 2.496 3.211 1.969-2.906 4.531-4.359 7.687-4.359 2.469 0 4.368.683 5.696 2.051 1.328 1.367 1.992 3.472 1.992 6.316v17.086h-4.195v-15.68c0-1.687-.137-2.902-.411-3.644-.273-.743-.769-1.34-1.488-1.793s-1.562-.68-2.531-.68c-1.75 0-3.203.582-4.359 1.746-1.157 1.164-1.735 3.027-1.735 5.59v14.461h-4.219v-16.172c0-1.875-.343-3.281-1.031-4.219-.687-.937-1.812-1.406-3.375-1.406-1.187 0-2.285.313-3.293.938s-1.738 1.539-2.191 2.742-.68 2.937-.68 5.203v12.914z"/><path d="m701.763 550.402v-24.891h3.773v3.492c.781-1.218 1.82-2.199 3.117-2.941s2.774-1.113 4.43-1.113c1.844 0 3.356.383 4.535 1.148 1.18.766 2.012 1.836 2.496 3.211 1.969-2.906 4.532-4.359 7.688-4.359 2.469 0 4.367.683 5.695 2.051 1.328 1.367 1.992 3.472 1.992 6.316v17.086h-4.195v-15.68c0-1.687-.137-2.902-.41-3.644-.274-.743-.77-1.34-1.488-1.793-.719-.453-1.563-.68-2.532-.68-1.75 0-3.203.582-4.359 1.746s-1.734 3.027-1.734 5.59v14.461h-4.219v-16.172c0-1.875-.344-3.281-1.031-4.219-.688-.937-1.813-1.406-3.375-1.406-1.188 0-2.286.313-3.293.938-1.008.625-1.739 1.539-2.192 2.742s-.68 2.937-.68 5.203v12.914z"/><path d="m754.989 516.043h4.219v34.359h-4.219z"/><path d="m782.786 542.386 4.36.539c-.688 2.547-1.961 4.524-3.821 5.93-1.859 1.406-4.234 2.109-7.125 2.109-3.64 0-6.527-1.121-8.66-3.363s-3.199-5.387-3.199-9.433c0-4.188 1.078-7.438 3.234-9.75 2.156-2.313 4.953-3.469 8.391-3.469 3.328 0 6.047 1.133 8.156 3.398 2.109 2.266 3.164 5.453 3.164 9.563 0 .25-.008.625-.023 1.125h-18.563c.156 2.734.93 4.828 2.321 6.281 1.39 1.453 3.125 2.18 5.203 2.18 1.547 0 2.867-.407 3.961-1.219 1.093-.813 1.961-2.109 2.601-3.891zm-13.851-6.82h13.898c-.187-2.094-.719-3.664-1.594-4.711-1.343-1.625-3.086-2.437-5.226-2.437-1.938 0-3.567.648-4.887 1.945s-2.051 3.031-2.191 5.203z"/><path d="m792.442 550.402v-24.891h3.797v3.539c1.828-2.734 4.469-4.101 7.922-4.101 1.5 0 2.879.269 4.137.808s2.199 1.246 2.824 2.121 1.063 1.915 1.313 3.118c.156.781.234 2.148.234 4.101v15.305h-4.219v-15.141c0-1.718-.164-3.004-.492-3.855-.328-.852-.91-1.531-1.746-2.039s-1.816-.762-2.941-.762c-1.797 0-3.348.57-4.653 1.711-1.304 1.141-1.957 3.305-1.957 6.492v13.594z"/><path d="m817.45 542.972 4.172-.656c.234 1.672.887 2.953 1.957 3.844 1.07.89 2.567 1.336 4.488 1.336 1.938 0 3.375-.395 4.313-1.184.937-.789 1.406-1.715 1.406-2.777 0-.953-.414-1.703-1.242-2.25-.578-.375-2.016-.852-4.313-1.43-3.093-.781-5.238-1.457-6.433-2.027-1.195-.571-2.102-1.36-2.719-2.368-.617-1.007-.926-2.121-.926-3.339 0-1.11.254-2.137.762-3.082.508-.946 1.199-1.731 2.074-2.356.657-.484 1.551-.894 2.684-1.23s2.348-.504 3.644-.504c1.954 0 3.668.281 5.145.844 1.477.562 2.566 1.324 3.269 2.285.704.961 1.188 2.246 1.454 3.855l-4.125.563c-.188-1.282-.731-2.282-1.629-3-.899-.719-2.168-1.078-3.809-1.078-1.937 0-3.32.32-4.148.96-.828.641-1.243 1.391-1.243 2.25 0 .547.172 1.04.516 1.477.344.453.883.828 1.617 1.125.422.156 1.664.516 3.727 1.078 2.984.797 5.066 1.449 6.246 1.957s2.105 1.246 2.777 2.215 1.008 2.172 1.008 3.609c0 1.407-.41 2.731-1.23 3.973-.821 1.242-2.004 2.203-3.551 2.883s-3.297 1.019-5.25 1.019c-3.235 0-5.699-.671-7.395-2.015-1.695-1.344-2.777-3.336-3.246-5.977z"/><path d="m845.903 560.503h-3.023c4.672-7.5 7.008-15.007 7.008-22.523 0-2.937-.336-5.852-1.008-8.742-.531-2.344-1.274-4.594-2.227-6.75-.609-1.406-1.867-3.75-3.773-7.031h3.023c2.938 3.921 5.11 7.859 6.516 11.812 1.203 3.406 1.805 6.969 1.805 10.688 0 4.218-.809 8.296-2.426 12.234-1.617 3.937-3.582 7.375-5.895 10.312z"/><path d="m860.294 530.316v-4.805h4.805v4.805zm0 20.086v-4.805h4.805v4.805z"/><path d="m906.794 546.347v4.055h-22.711c-.031-1.016.133-1.992.492-2.93.578-1.547 1.504-3.07 2.778-4.57 1.273-1.5 3.113-3.234 5.519-5.203 3.734-3.063 6.258-5.489 7.57-7.278 1.313-1.789 1.969-3.48 1.969-5.074 0-1.672-.597-3.082-1.793-4.23-1.195-1.149-2.754-1.723-4.676-1.723-2.031 0-3.656.609-4.875 1.828-1.218 1.219-1.836 2.906-1.851 5.063l-4.336-.446c.297-3.234 1.414-5.699 3.351-7.394 1.938-1.695 4.54-2.543 7.805-2.543 3.297 0 5.906.914 7.828 2.742s2.883 4.094 2.883 6.797c0 1.375-.281 2.727-.844 4.055-.562 1.328-1.496 2.726-2.8 4.195-1.305 1.469-3.473 3.484-6.504 6.047-2.532 2.125-4.157 3.566-4.875 4.324-.719.758-1.313 1.52-1.782 2.285z"/><path d="m911.317 533.457c0-4.063.418-7.332 1.254-9.809s2.078-4.387 3.727-5.73c1.648-1.344 3.723-2.016 6.223-2.016 1.843 0 3.46.371 4.851 1.113s2.539 1.813 3.445 3.211c.907 1.399 1.618 3.102 2.133 5.109.516 2.008.774 4.715.774 8.122 0 4.031-.414 7.285-1.243 9.761-.828 2.477-2.066 4.391-3.714 5.742-1.649 1.352-3.731 2.028-6.246 2.028-3.313 0-5.915-1.188-7.805-3.563-2.266-2.859-3.399-7.515-3.399-13.968zm4.336 0c0 5.64.661 9.394 1.981 11.261s2.949 2.801 4.887 2.801c1.937 0 3.566-.937 4.886-2.812 1.321-1.875 1.981-5.625 1.981-11.25 0-5.657-.66-9.414-1.981-11.274-1.32-1.859-2.965-2.789-4.933-2.789-1.938 0-3.485.82-4.641 2.461-1.453 2.094-2.18 5.961-2.18 11.602z"/><path d="m938.013 533.457c0-4.063.418-7.332 1.254-9.809s2.078-4.387 3.726-5.73c1.649-1.344 3.723-2.016 6.223-2.016 1.844 0 3.461.371 4.851 1.113 1.391.742 2.539 1.813 3.446 3.211.906 1.399 1.617 3.102 2.133 5.109.515 2.008.773 4.715.773 8.122 0 4.031-.414 7.285-1.242 9.761-.828 2.477-2.067 4.391-3.715 5.742-1.648 1.352-3.731 2.028-6.246 2.028-3.313 0-5.914-1.188-7.805-3.563-2.265-2.859-3.398-7.515-3.398-13.968zm4.336 0c0 5.64.66 9.394 1.98 11.261s2.949 2.801 4.887 2.801c1.937 0 3.566-.937 4.887-2.812 1.32-1.875 1.98-5.625 1.98-11.25 0-5.657-.66-9.414-1.98-11.274-1.321-1.859-2.965-2.789-4.934-2.789-1.938 0-3.484.82-4.641 2.461-1.453 2.094-2.179 5.961-2.179 11.602z"/><path d="m964.708 533.457c0-4.063.418-7.332 1.254-9.809s2.078-4.387 3.727-5.73c1.648-1.344 3.722-2.016 6.222-2.016 1.844 0 3.461.371 4.852 1.113 1.39.742 2.539 1.813 3.445 3.211.906 1.399 1.617 3.102 2.133 5.109.515 2.008.773 4.715.773 8.122 0 4.031-.414 7.285-1.242 9.761-.828 2.477-2.066 4.391-3.715 5.742-1.648 1.352-3.73 2.028-6.246 2.028-3.312 0-5.914-1.188-7.805-3.563-2.265-2.859-3.398-7.515-3.398-13.968zm4.336 0c0 5.64.66 9.394 1.98 11.261 1.321 1.867 2.95 2.801 4.887 2.801 1.938 0 3.567-.937 4.887-2.812s1.98-5.625 1.98-11.25c0-5.657-.66-9.414-1.98-11.274-1.32-1.859-2.965-2.789-4.934-2.789-1.937 0-3.484.82-4.64 2.461-1.453 2.094-2.18 5.961-2.18 11.602z"/><path d="m1005.94 550.402v-34.359h4.21v19.593l9.99-10.125h5.46l-9.52 9.235 10.48 15.656h-5.2l-8.23-12.727-2.98 2.86v9.867z"/><path d="m1029.91 550.402v-24.891h3.77v3.492c.79-1.218 1.83-2.199 3.12-2.941 1.3-.742 2.78-1.113 4.43-1.113 1.85 0 3.36.383 4.54 1.148 1.18.766 2.01 1.836 2.49 3.211 1.97-2.906 4.53-4.359 7.69-4.359 2.47 0 4.37.683 5.7 2.051 1.32 1.367 1.99 3.472 1.99 6.316v17.086h-4.2v-15.68c0-1.687-.13-2.902-.41-3.644-.27-.743-.77-1.34-1.49-1.793-.71-.453-1.56-.68-2.53-.68-1.75 0-3.2.582-4.36 1.746-1.15 1.164-1.73 3.027-1.73 5.59v14.461h-4.22v-16.172c0-1.875-.34-3.281-1.03-4.219-.69-.937-1.81-1.406-3.38-1.406-1.18 0-2.28.313-3.29.938s-1.74 1.539-2.19 2.742-.68 2.937-.68 5.203v12.914z"/><path d="m1091.29 560.503c-2.32-2.937-4.29-6.375-5.9-10.312-1.61-3.938-2.42-8.016-2.42-12.234 0-3.719.61-7.282 1.81-10.688 1.4-3.953 3.58-7.891 6.51-11.812h3.03c-1.89 3.25-3.14 5.57-3.75 6.961-.96 2.156-1.71 4.406-2.25 6.75-.67 2.921-1.01 5.859-1.01 8.812 0 7.516 2.34 15.023 7.01 22.523z"/><path d="m1113.93 550.402h-4.21v-26.883c-1.02.969-2.35 1.938-4 2.906-1.65.969-3.13 1.696-4.44 2.18v-4.078c2.36-1.109 4.42-2.453 6.19-4.031 1.76-1.578 3.01-3.11 3.75-4.594h2.71z"/><path d="m1125.02 520.543v-4.055h22.24v3.281c-2.18 2.328-4.35 5.422-6.5 9.281-2.15 3.86-3.81 7.828-4.98 11.907-.85 2.875-1.38 6.023-1.62 9.445h-4.33c.04-2.703.57-5.969 1.59-9.797 1.01-3.828 2.47-7.52 4.37-11.074 1.9-3.555 3.92-6.551 6.06-8.988z"/><path d="m1153.8 545.597h4.805v4.805h-4.805z"/><path d="m1165.4 542.457 4.06-.375c.34 1.906 1 3.289 1.97 4.148s2.21 1.289 3.72 1.289c1.3 0 2.44-.297 3.41-.891.98-.593 1.78-1.386 2.41-2.378.62-.993 1.14-2.332 1.57-4.02.42-1.687.63-3.406.63-5.156 0-.188-.01-.469-.02-.844-.85 1.344-2 2.434-3.46 3.27-1.46.835-3.04 1.253-4.75 1.253-2.84 0-5.25-1.031-7.22-3.093-1.96-2.063-2.95-4.782-2.95-8.157 0-3.484 1.03-6.289 3.08-8.414 2.06-2.125 4.63-3.187 7.73-3.187 2.23 0 4.27.601 6.12 1.805 1.86 1.203 3.26 2.918 4.22 5.144.96 2.227 1.44 5.449 1.44 9.668 0 4.391-.47 7.887-1.43 10.488-.95 2.602-2.37 4.582-4.25 5.942-1.88 1.359-4.09 2.039-6.62 2.039-2.69 0-4.88-.746-6.59-2.238-1.7-1.493-2.72-3.59-3.07-6.293zm17.28-15.164c0-2.422-.65-4.344-1.94-5.766s-2.84-2.133-4.65-2.133c-1.87 0-3.51.766-4.9 2.297s-2.08 3.516-2.08 5.953c0 2.188.66 3.965 1.98 5.332s2.95 2.051 4.88 2.051c1.96 0 3.56-.684 4.82-2.051s1.89-3.262 1.89-5.683z"/><path d="m1198.22 515.457c2.26 0 4.11.781 5.54 2.343 1.43 1.563 2.14 3.719 2.14 6.469 0 2.734-.72 4.883-2.15 6.445-1.44 1.563-3.28 2.344-5.51 2.344-2.27 0-4.12-.765-5.56-2.297-1.43-1.531-2.15-3.664-2.15-6.398 0-2.813.71-5 2.14-6.563 1.43-1.562 3.28-2.343 5.55-2.343zm0 3.117c-1.27 0-2.29.445-3.06 1.336-.78.89-1.16 2.343-1.16 4.359 0 1.969.39 3.41 1.18 4.324s1.8 1.371 3.04 1.371c1.25 0 2.26-.457 3.04-1.371s1.17-2.394 1.17-4.441c0-1.906-.39-3.313-1.18-4.219s-1.8-1.359-3.03-1.359z"/><path d="m1212.93 560.503h-3.02c4.67-7.5 7.01-15.007 7.01-22.523 0-2.937-.34-5.852-1.01-8.742-.53-2.344-1.27-4.594-2.23-6.75-.6-1.406-1.86-3.75-3.77-7.031h3.02c2.94 3.921 5.11 7.859 6.52 11.812 1.2 3.406 1.81 6.969 1.81 10.688 0 4.218-.81 8.296-2.43 12.234-1.62 3.937-3.58 7.375-5.9 10.312z"/></g></g></g></g><g clip-path="url(#c)" transform="matrix(0 -8.03649 12.8623 0 -3894.73 6402.92)"><path d="m782.332 400.595c8.065-15.514 12.172-31.724 12.172-48.035s-4.107-32.521-12.172-48.035l-236.693 48.035z" fill="#162d55"/></g><g transform="translate(-223.135 -444.783)"><g fill="none"><path d="m503.013 516.043h4.547v34.359h-4.547z"/><path d="m514.028 539.363 4.289-.375c.204 1.719.676 3.129 1.418 4.23.743 1.102 1.895 1.992 3.457 2.672 1.563.68 3.321 1.02 5.274 1.02 1.734 0 3.265-.258 4.594-.774 1.328-.515 2.316-1.222 2.964-2.121.649-.898.973-1.879.973-2.941 0-1.078-.312-2.02-.937-2.824-.625-.805-1.657-1.481-3.094-2.028-.922-.359-2.961-.918-6.117-1.676-3.157-.757-5.368-1.472-6.633-2.144-1.641-.859-2.863-1.926-3.668-3.199-.805-1.274-1.207-2.7-1.207-4.278 0-1.734.492-3.355 1.476-4.863.985-1.508 2.422-2.652 4.313-3.434 1.891-.781 3.992-1.171 6.305-1.171 2.546 0 4.793.41 6.738 1.23s3.441 2.027 4.488 3.621 1.61 3.399 1.688 5.414l-4.36.328c-.234-2.172-1.027-3.812-2.379-4.922-1.351-1.109-3.347-1.664-5.988-1.664-2.75 0-4.754.504-6.012 1.512-1.257 1.008-1.886 2.223-1.886 3.645 0 1.234.445 2.25 1.336 3.047.875.796 3.16 1.613 6.855 2.449s6.231 1.566 7.606 2.191c2 .922 3.476 2.09 4.429 3.504s1.43 3.043 1.43 4.887c0 1.828-.524 3.551-1.57 5.168-1.047 1.617-2.551 2.875-4.512 3.773-1.961.899-4.168 1.348-6.621 1.348-3.11 0-5.715-.453-7.817-1.36-2.101-.906-3.75-2.269-4.945-4.089-1.195-1.821-1.824-3.879-1.887-6.176z"/><path d="m546.044 539.363 4.289-.375c.203 1.719.676 3.129 1.418 4.23.742 1.102 1.895 1.992 3.457 2.672 1.563.68 3.32 1.02 5.273 1.02 1.735 0 3.266-.258 4.594-.774 1.328-.515 2.317-1.222 2.965-2.121.649-.898.973-1.879.973-2.941 0-1.078-.313-2.02-.938-2.824-.625-.805-1.656-1.481-3.094-2.028-.921-.359-2.96-.918-6.117-1.676-3.156-.757-5.367-1.472-6.633-2.144-1.64-.859-2.863-1.926-3.667-3.199-.805-1.274-1.208-2.7-1.208-4.278 0-1.734.493-3.355 1.477-4.863s2.422-2.652 4.313-3.434c1.89-.781 3.992-1.171 6.304-1.171 2.547 0 4.793.41 6.739 1.23 1.945.82 3.441 2.027 4.488 3.621s1.609 3.399 1.687 5.414l-4.359.328c-.234-2.172-1.027-3.812-2.379-4.922-1.352-1.109-3.348-1.664-5.988-1.664-2.75 0-4.754.504-6.012 1.512s-1.887 2.223-1.887 3.645c0 1.234.446 2.25 1.336 3.047.875.796 3.16 1.613 6.856 2.449 3.695.836 6.23 1.566 7.605 2.191 2 .922 3.477 2.09 4.43 3.504s1.43 3.043 1.43 4.887c0 1.828-.524 3.551-1.571 5.168s-2.551 2.875-4.511 3.773c-1.961.899-4.168 1.348-6.622 1.348-3.109 0-5.714-.453-7.816-1.36-2.102-.906-3.75-2.269-4.945-4.089-1.196-1.821-1.825-3.879-1.887-6.176z"/><path d="m600.466 560.503c-2.328-2.937-4.297-6.375-5.906-10.312-1.61-3.938-2.414-8.016-2.414-12.234 0-3.719.601-7.282 1.804-10.688 1.406-3.953 3.578-7.891 6.516-11.812h3.023c-1.89 3.25-3.14 5.57-3.75 6.961-.953 2.156-1.703 4.406-2.25 6.75-.672 2.921-1.008 5.859-1.008 8.812 0 7.516 2.336 15.023 7.008 22.523z"/><path d="m623.106 550.402h-4.218v-26.883c-1.016.969-2.348 1.938-3.996 2.906-1.649.969-3.129 1.696-4.442 2.18v-4.078c2.36-1.109 4.422-2.453 6.188-4.031 1.765-1.578 3.015-3.11 3.75-4.594h2.718z"/><path d="m633.911 541.402 4.43-.375c.328 2.156 1.09 3.777 2.285 4.863s2.637 1.629 4.324 1.629c2.031 0 3.75-.766 5.156-2.297 1.407-1.531 2.11-3.562 2.11-6.094 0-2.406-.676-4.304-2.027-5.695-1.352-1.39-3.122-2.086-5.309-2.086-1.359 0-2.586.309-3.68.926s-1.953 1.418-2.578 2.402l-3.961-.515 3.328-17.649h17.086v4.032h-13.711l-1.851 9.234c2.062-1.438 4.226-2.156 6.492-2.156 3 0 5.531 1.039 7.594 3.117 2.062 2.078 3.093 4.75 3.093 8.015 0 3.11-.906 5.797-2.718 8.063-2.203 2.781-5.211 4.172-9.024 4.172-3.125 0-5.676-.875-7.652-2.625-1.977-1.75-3.106-4.07-3.387-6.961z"/><path d="m661.778 550.402v-24.891h3.774v3.492c.781-1.218 1.82-2.199 3.117-2.941s2.773-1.113 4.43-1.113c1.843 0 3.355.383 4.535 1.148 1.18.766 2.012 1.836 2.496 3.211 1.969-2.906 4.531-4.359 7.687-4.359 2.469 0 4.368.683 5.696 2.051 1.328 1.367 1.992 3.472 1.992 6.316v17.086h-4.195v-15.68c0-1.687-.137-2.902-.411-3.644-.273-.743-.769-1.34-1.488-1.793s-1.562-.68-2.531-.68c-1.75 0-3.203.582-4.359 1.746-1.157 1.164-1.735 3.027-1.735 5.59v14.461h-4.219v-16.172c0-1.875-.343-3.281-1.031-4.219-.687-.937-1.812-1.406-3.375-1.406-1.187 0-2.285.313-3.293.938s-1.738 1.539-2.191 2.742-.68 2.937-.68 5.203v12.914z"/><path d="m701.763 550.402v-24.891h3.773v3.492c.781-1.218 1.82-2.199 3.117-2.941s2.774-1.113 4.43-1.113c1.844 0 3.356.383 4.535 1.148 1.18.766 2.012 1.836 2.496 3.211 1.969-2.906 4.532-4.359 7.688-4.359 2.469 0 4.367.683 5.695 2.051 1.328 1.367 1.992 3.472 1.992 6.316v17.086h-4.195v-15.68c0-1.687-.137-2.902-.41-3.644-.274-.743-.77-1.34-1.488-1.793-.719-.453-1.563-.68-2.532-.68-1.75 0-3.203.582-4.359 1.746s-1.734 3.027-1.734 5.59v14.461h-4.219v-16.172c0-1.875-.344-3.281-1.031-4.219-.688-.937-1.813-1.406-3.375-1.406-1.188 0-2.286.313-3.293.938-1.008.625-1.739 1.539-2.192 2.742s-.68 2.937-.68 5.203v12.914z"/><path d="m754.989 516.043h4.219v34.359h-4.219z"/><path d="m782.786 542.386 4.36.539c-.688 2.547-1.961 4.524-3.821 5.93-1.859 1.406-4.234 2.109-7.125 2.109-3.64 0-6.527-1.121-8.66-3.363s-3.199-5.387-3.199-9.433c0-4.188 1.078-7.438 3.234-9.75 2.156-2.313 4.953-3.469 8.391-3.469 3.328 0 6.047 1.133 8.156 3.398 2.109 2.266 3.164 5.453 3.164 9.563 0 .25-.008.625-.023 1.125h-18.563c.156 2.734.93 4.828 2.321 6.281 1.39 1.453 3.125 2.18 5.203 2.18 1.547 0 2.867-.407 3.961-1.219 1.093-.813 1.961-2.109 2.601-3.891zm-13.851-6.82h13.898c-.187-2.094-.719-3.664-1.594-4.711-1.343-1.625-3.086-2.437-5.226-2.437-1.938 0-3.567.648-4.887 1.945s-2.051 3.031-2.191 5.203z"/><path d="m792.442 550.402v-24.891h3.797v3.539c1.828-2.734 4.469-4.101 7.922-4.101 1.5 0 2.879.269 4.137.808s2.199 1.246 2.824 2.121 1.063 1.915 1.313 3.118c.156.781.234 2.148.234 4.101v15.305h-4.219v-15.141c0-1.718-.164-3.004-.492-3.855-.328-.852-.91-1.531-1.746-2.039s-1.816-.762-2.941-.762c-1.797 0-3.348.57-4.653 1.711-1.304 1.141-1.957 3.305-1.957 6.492v13.594z"/><path d="m817.45 542.972 4.172-.656c.234 1.672.887 2.953 1.957 3.844 1.07.89 2.567 1.336 4.488 1.336 1.938 0 3.375-.395 4.313-1.184.937-.789 1.406-1.715 1.406-2.777 0-.953-.414-1.703-1.242-2.25-.578-.375-2.016-.852-4.313-1.43-3.093-.781-5.238-1.457-6.433-2.027-1.195-.571-2.102-1.36-2.719-2.368-.617-1.007-.926-2.121-.926-3.339 0-1.11.254-2.137.762-3.082.508-.946 1.199-1.731 2.074-2.356.657-.484 1.551-.894 2.684-1.23s2.348-.504 3.644-.504c1.954 0 3.668.281 5.145.844 1.477.562 2.566 1.324 3.269 2.285.704.961 1.188 2.246 1.454 3.855l-4.125.563c-.188-1.282-.731-2.282-1.629-3-.899-.719-2.168-1.078-3.809-1.078-1.937 0-3.32.32-4.148.96-.828.641-1.243 1.391-1.243 2.25 0 .547.172 1.04.516 1.477.344.453.883.828 1.617 1.125.422.156 1.664.516 3.727 1.078 2.984.797 5.066 1.449 6.246 1.957s2.105 1.246 2.777 2.215 1.008 2.172 1.008 3.609c0 1.407-.41 2.731-1.23 3.973-.821 1.242-2.004 2.203-3.551 2.883s-3.297 1.019-5.25 1.019c-3.235 0-5.699-.671-7.395-2.015-1.695-1.344-2.777-3.336-3.246-5.977z"/><path d="m845.903 560.503h-3.023c4.672-7.5 7.008-15.007 7.008-22.523 0-2.937-.336-5.852-1.008-8.742-.531-2.344-1.274-4.594-2.227-6.75-.609-1.406-1.867-3.75-3.773-7.031h3.023c2.938 3.921 5.11 7.859 6.516 11.812 1.203 3.406 1.805 6.969 1.805 10.688 0 4.218-.809 8.296-2.426 12.234-1.617 3.937-3.582 7.375-5.895 10.312z"/><path d="m860.294 530.316v-4.805h4.805v4.805zm0 20.086v-4.805h4.805v4.805z"/><path d="m898.146 550.402v-8.227h-14.907v-3.867l15.68-22.265h3.445v22.265h4.641v3.867h-4.641v8.227zm0-12.094v-15.492l-10.758 15.492z"/><path d="m911.317 533.457c0-4.063.418-7.332 1.254-9.809s2.078-4.387 3.727-5.73c1.648-1.344 3.723-2.016 6.223-2.016 1.843 0 3.46.371 4.851 1.113s2.539 1.813 3.445 3.211c.907 1.399 1.618 3.102 2.133 5.109.516 2.008.774 4.715.774 8.122 0 4.031-.414 7.285-1.243 9.761-.828 2.477-2.066 4.391-3.714 5.742-1.649 1.352-3.731 2.028-6.246 2.028-3.313 0-5.915-1.188-7.805-3.563-2.266-2.859-3.399-7.515-3.399-13.968zm4.336 0c0 5.64.661 9.394 1.981 11.261s2.949 2.801 4.887 2.801c1.937 0 3.566-.937 4.886-2.812 1.321-1.875 1.981-5.625 1.981-11.25 0-5.657-.66-9.414-1.981-11.274-1.32-1.859-2.965-2.789-4.933-2.789-1.938 0-3.485.82-4.641 2.461-1.453 2.094-2.18 5.961-2.18 11.602z"/><path d="m938.013 533.457c0-4.063.418-7.332 1.254-9.809s2.078-4.387 3.726-5.73c1.649-1.344 3.723-2.016 6.223-2.016 1.844 0 3.461.371 4.851 1.113 1.391.742 2.539 1.813 3.446 3.211.906 1.399 1.617 3.102 2.133 5.109.515 2.008.773 4.715.773 8.122 0 4.031-.414 7.285-1.242 9.761-.828 2.477-2.067 4.391-3.715 5.742-1.648 1.352-3.731 2.028-6.246 2.028-3.313 0-5.914-1.188-7.805-3.563-2.265-2.859-3.398-7.515-3.398-13.968zm4.336 0c0 5.64.66 9.394 1.98 11.261s2.949 2.801 4.887 2.801c1.937 0 3.566-.937 4.887-2.812 1.32-1.875 1.98-5.625 1.98-11.25 0-5.657-.66-9.414-1.98-11.274-1.321-1.859-2.965-2.789-4.934-2.789-1.938 0-3.484.82-4.641 2.461-1.453 2.094-2.179 5.961-2.179 11.602z"/><path d="m964.708 533.457c0-4.063.418-7.332 1.254-9.809s2.078-4.387 3.727-5.73c1.648-1.344 3.722-2.016 6.222-2.016 1.844 0 3.461.371 4.852 1.113 1.39.742 2.539 1.813 3.445 3.211.906 1.399 1.617 3.102 2.133 5.109.515 2.008.773 4.715.773 8.122 0 4.031-.414 7.285-1.242 9.761-.828 2.477-2.066 4.391-3.715 5.742-1.648 1.352-3.73 2.028-6.246 2.028-3.312 0-5.914-1.188-7.805-3.563-2.265-2.859-3.398-7.515-3.398-13.968zm4.336 0c0 5.64.66 9.394 1.98 11.261 1.321 1.867 2.95 2.801 4.887 2.801 1.938 0 3.567-.937 4.887-2.812s1.98-5.625 1.98-11.25c0-5.657-.66-9.414-1.98-11.274-1.32-1.859-2.965-2.789-4.934-2.789-1.937 0-3.484.82-4.64 2.461-1.453 2.094-2.18 5.961-2.18 11.602z"/><path d="m1005.94 550.402v-34.359h4.21v19.593l9.99-10.125h5.46l-9.52 9.235 10.48 15.656h-5.2l-8.23-12.727-2.98 2.86v9.867z"/><path d="m1029.91 550.402v-24.891h3.77v3.492c.79-1.218 1.83-2.199 3.12-2.941 1.3-.742 2.78-1.113 4.43-1.113 1.85 0 3.36.383 4.54 1.148 1.18.766 2.01 1.836 2.49 3.211 1.97-2.906 4.53-4.359 7.69-4.359 2.47 0 4.37.683 5.7 2.051 1.32 1.367 1.99 3.472 1.99 6.316v17.086h-4.2v-15.68c0-1.687-.13-2.902-.41-3.644-.27-.743-.77-1.34-1.49-1.793-.71-.453-1.56-.68-2.53-.68-1.75 0-3.2.582-4.36 1.746-1.15 1.164-1.73 3.027-1.73 5.59v14.461h-4.22v-16.172c0-1.875-.34-3.281-1.03-4.219-.69-.937-1.81-1.406-3.38-1.406-1.18 0-2.28.313-3.29.938s-1.74 1.539-2.19 2.742-.68 2.937-.68 5.203v12.914z"/><path d="m1091.29 560.503c-2.32-2.937-4.29-6.375-5.9-10.312-1.61-3.938-2.42-8.016-2.42-12.234 0-3.719.61-7.282 1.81-10.688 1.4-3.953 3.58-7.891 6.51-11.812h3.03c-1.89 3.25-3.14 5.57-3.75 6.961-.96 2.156-1.71 4.406-2.25 6.75-.67 2.921-1.01 5.859-1.01 8.812 0 7.516 2.34 15.023 7.01 22.523z"/><path d="m1098.07 541.332 4.22-.563c.48 2.391 1.31 4.113 2.47 5.168s2.58 1.582 4.25 1.582c1.99 0 3.66-.687 5.03-2.062s2.05-3.079 2.05-5.11c0-1.937-.63-3.535-1.9-4.793-1.26-1.258-2.87-1.886-4.83-1.886-.79 0-1.78.156-2.97.468l.47-3.703c.28.031.5.047.68.047 1.79 0 3.41-.469 4.85-1.406 1.44-.938 2.15-2.383 2.15-4.336 0-1.547-.52-2.828-1.57-3.844-1.04-1.016-2.39-1.523-4.05-1.523-1.64 0-3.01.515-4.1 1.547-1.1 1.031-1.8 2.578-2.11 4.64l-4.22-.75c.52-2.828 1.69-5.019 3.52-6.574 1.82-1.555 4.1-2.332 6.82-2.332 1.87 0 3.6.402 5.18 1.207 1.57.805 2.78 1.902 3.62 3.293.83 1.391 1.25 2.867 1.25 4.43 0 1.484-.4 2.836-1.2 4.054-.79 1.219-1.97 2.188-3.53 2.907 2.03.468 3.61 1.441 4.73 2.917 1.13 1.477 1.69 3.325 1.69 5.543 0 3-1.1 5.543-3.28 7.629-2.19 2.086-4.96 3.129-8.3 3.129-3.02 0-5.52-.898-7.51-2.695s-3.13-4.125-3.41-6.984z"/><path d="m1124.74 541.402 4.43-.375c.33 2.156 1.09 3.777 2.28 4.863 1.2 1.086 2.64 1.629 4.33 1.629 2.03 0 3.75-.766 5.15-2.297 1.41-1.531 2.11-3.562 2.11-6.094 0-2.406-.67-4.304-2.02-5.695-1.36-1.39-3.12-2.086-5.31-2.086-1.36 0-2.59.309-3.68.926-1.1.617-1.95 1.418-2.58 2.402l-3.96-.515 3.33-17.649h17.08v4.032h-13.71l-1.85 9.234c2.06-1.438 4.23-2.156 6.49-2.156 3 0 5.53 1.039 7.6 3.117 2.06 2.078 3.09 4.75 3.09 8.015 0 3.11-.91 5.797-2.72 8.063-2.2 2.781-5.21 4.172-9.02 4.172-3.13 0-5.68-.875-7.65-2.625-1.98-1.75-3.11-4.07-3.39-6.961z"/><path d="m1153.8 545.597h4.805v4.805h-4.805z"/><path d="m1165.4 542.457 4.06-.375c.34 1.906 1 3.289 1.97 4.148s2.21 1.289 3.72 1.289c1.3 0 2.44-.297 3.41-.891.98-.593 1.78-1.386 2.41-2.378.62-.993 1.14-2.332 1.57-4.02.42-1.687.63-3.406.63-5.156 0-.188-.01-.469-.02-.844-.85 1.344-2 2.434-3.46 3.27-1.46.835-3.04 1.253-4.75 1.253-2.84 0-5.25-1.031-7.22-3.093-1.96-2.063-2.95-4.782-2.95-8.157 0-3.484 1.03-6.289 3.08-8.414 2.06-2.125 4.63-3.187 7.73-3.187 2.23 0 4.27.601 6.12 1.805 1.86 1.203 3.26 2.918 4.22 5.144.96 2.227 1.44 5.449 1.44 9.668 0 4.391-.47 7.887-1.43 10.488-.95 2.602-2.37 4.582-4.25 5.942-1.88 1.359-4.09 2.039-6.62 2.039-2.69 0-4.88-.746-6.59-2.238-1.7-1.493-2.72-3.59-3.07-6.293zm17.28-15.164c0-2.422-.65-4.344-1.94-5.766s-2.84-2.133-4.65-2.133c-1.87 0-3.51.766-4.9 2.297s-2.08 3.516-2.08 5.953c0 2.188.66 3.965 1.98 5.332s2.95 2.051 4.88 2.051c1.96 0 3.56-.684 4.82-2.051s1.89-3.262 1.89-5.683z"/><path d="m1198.22 515.457c2.26 0 4.11.781 5.54 2.343 1.43 1.563 2.14 3.719 2.14 6.469 0 2.734-.72 4.883-2.15 6.445-1.44 1.563-3.28 2.344-5.51 2.344-2.27 0-4.12-.765-5.56-2.297-1.43-1.531-2.15-3.664-2.15-6.398 0-2.813.71-5 2.14-6.563 1.43-1.562 3.28-2.343 5.55-2.343zm0 3.117c-1.27 0-2.29.445-3.06 1.336-.78.89-1.16 2.343-1.16 4.359 0 1.969.39 3.41 1.18 4.324s1.8 1.371 3.04 1.371c1.25 0 2.26-.457 3.04-1.371s1.17-2.394 1.17-4.441c0-1.906-.39-3.313-1.18-4.219s-1.8-1.359-3.03-1.359z"/><path d="m1212.93 560.503h-3.02c4.67-7.5 7.01-15.007 7.01-22.523 0-2.937-.34-5.852-1.01-8.742-.53-2.344-1.27-4.594-2.23-6.75-.6-1.406-1.86-3.75-3.77-7.031h3.02c2.94 3.921 5.11 7.859 6.52 11.812 1.2 3.406 1.81 6.969 1.81 10.688 0 4.218-.81 8.296-2.43 12.234-1.62 3.937-3.58 7.375-5.9 10.312z"/></g><g fill="#fff" fill-rule="nonzero"><path d="m503.013 516.043h4.547v34.359h-4.547z"/><path d="m514.028 539.363 4.289-.375c.204 1.719.676 3.129 1.418 4.23.743 1.102 1.895 1.992 3.457 2.672 1.563.68 3.321 1.02 5.274 1.02 1.734 0 3.265-.258 4.594-.774 1.328-.515 2.316-1.222 2.964-2.121.649-.898.973-1.879.973-2.941 0-1.078-.312-2.02-.937-2.824-.625-.805-1.657-1.481-3.094-2.028-.922-.359-2.961-.918-6.117-1.676-3.157-.757-5.368-1.472-6.633-2.144-1.641-.859-2.863-1.926-3.668-3.199-.805-1.274-1.207-2.7-1.207-4.278 0-1.734.492-3.355 1.476-4.863.985-1.508 2.422-2.652 4.313-3.434 1.891-.781 3.992-1.171 6.305-1.171 2.546 0 4.793.41 6.738 1.23s3.441 2.027 4.488 3.621 1.61 3.399 1.688 5.414l-4.36.328c-.234-2.172-1.027-3.812-2.379-4.922-1.351-1.109-3.347-1.664-5.988-1.664-2.75 0-4.754.504-6.012 1.512-1.257 1.008-1.886 2.223-1.886 3.645 0 1.234.445 2.25 1.336 3.047.875.796 3.16 1.613 6.855 2.449s6.231 1.566 7.606 2.191c2 .922 3.476 2.09 4.429 3.504s1.43 3.043 1.43 4.887c0 1.828-.524 3.551-1.57 5.168-1.047 1.617-2.551 2.875-4.512 3.773-1.961.899-4.168 1.348-6.621 1.348-3.11 0-5.715-.453-7.817-1.36-2.101-.906-3.75-2.269-4.945-4.089-1.195-1.821-1.824-3.879-1.887-6.176z"/><path d="m546.044 539.363 4.289-.375c.203 1.719.676 3.129 1.418 4.23.742 1.102 1.895 1.992 3.457 2.672 1.563.68 3.32 1.02 5.273 1.02 1.735 0 3.266-.258 4.594-.774 1.328-.515 2.317-1.222 2.965-2.121.649-.898.973-1.879.973-2.941 0-1.078-.313-2.02-.938-2.824-.625-.805-1.656-1.481-3.094-2.028-.921-.359-2.96-.918-6.117-1.676-3.156-.757-5.367-1.472-6.633-2.144-1.64-.859-2.863-1.926-3.667-3.199-.805-1.274-1.208-2.7-1.208-4.278 0-1.734.493-3.355 1.477-4.863s2.422-2.652 4.313-3.434c1.89-.781 3.992-1.171 6.304-1.171 2.547 0 4.793.41 6.739 1.23 1.945.82 3.441 2.027 4.488 3.621s1.609 3.399 1.687 5.414l-4.359.328c-.234-2.172-1.027-3.812-2.379-4.922-1.352-1.109-3.348-1.664-5.988-1.664-2.75 0-4.754.504-6.012 1.512s-1.887 2.223-1.887 3.645c0 1.234.446 2.25 1.336 3.047.875.796 3.16 1.613 6.856 2.449 3.695.836 6.23 1.566 7.605 2.191 2 .922 3.477 2.09 4.43 3.504s1.43 3.043 1.43 4.887c0 1.828-.524 3.551-1.571 5.168s-2.551 2.875-4.511 3.773c-1.961.899-4.168 1.348-6.622 1.348-3.109 0-5.714-.453-7.816-1.36-2.102-.906-3.75-2.269-4.945-4.089-1.196-1.821-1.825-3.879-1.887-6.176z"/><path d="m600.466 560.503c-2.328-2.937-4.297-6.375-5.906-10.312-1.61-3.938-2.414-8.016-2.414-12.234 0-3.719.601-7.282 1.804-10.688 1.406-3.953 3.578-7.891 6.516-11.812h3.023c-1.89 3.25-3.14 5.57-3.75 6.961-.953 2.156-1.703 4.406-2.25 6.75-.672 2.921-1.008 5.859-1.008 8.812 0 7.516 2.336 15.023 7.008 22.523z"/><path d="m623.106 550.402h-4.218v-26.883c-1.016.969-2.348 1.938-3.996 2.906-1.649.969-3.129 1.696-4.442 2.18v-4.078c2.36-1.109 4.422-2.453 6.188-4.031 1.765-1.578 3.015-3.11 3.75-4.594h2.718z"/><path d="m633.911 541.402 4.43-.375c.328 2.156 1.09 3.777 2.285 4.863s2.637 1.629 4.324 1.629c2.031 0 3.75-.766 5.156-2.297 1.407-1.531 2.11-3.562 2.11-6.094 0-2.406-.676-4.304-2.027-5.695-1.352-1.39-3.122-2.086-5.309-2.086-1.359 0-2.586.309-3.68.926s-1.953 1.418-2.578 2.402l-3.961-.515 3.328-17.649h17.086v4.032h-13.711l-1.851 9.234c2.062-1.438 4.226-2.156 6.492-2.156 3 0 5.531 1.039 7.594 3.117 2.062 2.078 3.093 4.75 3.093 8.015 0 3.11-.906 5.797-2.718 8.063-2.203 2.781-5.211 4.172-9.024 4.172-3.125 0-5.676-.875-7.652-2.625-1.977-1.75-3.106-4.07-3.387-6.961z"/><path d="m661.778 550.402v-24.891h3.774v3.492c.781-1.218 1.82-2.199 3.117-2.941s2.773-1.113 4.43-1.113c1.843 0 3.355.383 4.535 1.148 1.18.766 2.012 1.836 2.496 3.211 1.969-2.906 4.531-4.359 7.687-4.359 2.469 0 4.368.683 5.696 2.051 1.328 1.367 1.992 3.472 1.992 6.316v17.086h-4.195v-15.68c0-1.687-.137-2.902-.411-3.644-.273-.743-.769-1.34-1.488-1.793s-1.562-.68-2.531-.68c-1.75 0-3.203.582-4.359 1.746-1.157 1.164-1.735 3.027-1.735 5.59v14.461h-4.219v-16.172c0-1.875-.343-3.281-1.031-4.219-.687-.937-1.812-1.406-3.375-1.406-1.187 0-2.285.313-3.293.938s-1.738 1.539-2.191 2.742-.68 2.937-.68 5.203v12.914z"/><path d="m701.763 550.402v-24.891h3.773v3.492c.781-1.218 1.82-2.199 3.117-2.941s2.774-1.113 4.43-1.113c1.844 0 3.356.383 4.535 1.148 1.18.766 2.012 1.836 2.496 3.211 1.969-2.906 4.532-4.359 7.688-4.359 2.469 0 4.367.683 5.695 2.051 1.328 1.367 1.992 3.472 1.992 6.316v17.086h-4.195v-15.68c0-1.687-.137-2.902-.41-3.644-.274-.743-.77-1.34-1.488-1.793-.719-.453-1.563-.68-2.532-.68-1.75 0-3.203.582-4.359 1.746s-1.734 3.027-1.734 5.59v14.461h-4.219v-16.172c0-1.875-.344-3.281-1.031-4.219-.688-.937-1.813-1.406-3.375-1.406-1.188 0-2.286.313-3.293.938-1.008.625-1.739 1.539-2.192 2.742s-.68 2.937-.68 5.203v12.914z"/><path d="m754.989 516.043h4.219v34.359h-4.219z"/><path d="m782.786 542.386 4.36.539c-.688 2.547-1.961 4.524-3.821 5.93-1.859 1.406-4.234 2.109-7.125 2.109-3.64 0-6.527-1.121-8.66-3.363s-3.199-5.387-3.199-9.433c0-4.188 1.078-7.438 3.234-9.75 2.156-2.313 4.953-3.469 8.391-3.469 3.328 0 6.047 1.133 8.156 3.398 2.109 2.266 3.164 5.453 3.164 9.563 0 .25-.008.625-.023 1.125h-18.563c.156 2.734.93 4.828 2.321 6.281 1.39 1.453 3.125 2.18 5.203 2.18 1.547 0 2.867-.407 3.961-1.219 1.093-.813 1.961-2.109 2.601-3.891zm-13.851-6.82h13.898c-.187-2.094-.719-3.664-1.594-4.711-1.343-1.625-3.086-2.437-5.226-2.437-1.938 0-3.567.648-4.887 1.945s-2.051 3.031-2.191 5.203z"/><path d="m792.442 550.402v-24.891h3.797v3.539c1.828-2.734 4.469-4.101 7.922-4.101 1.5 0 2.879.269 4.137.808s2.199 1.246 2.824 2.121 1.063 1.915 1.313 3.118c.156.781.234 2.148.234 4.101v15.305h-4.219v-15.141c0-1.718-.164-3.004-.492-3.855-.328-.852-.91-1.531-1.746-2.039s-1.816-.762-2.941-.762c-1.797 0-3.348.57-4.653 1.711-1.304 1.141-1.957 3.305-1.957 6.492v13.594z"/><path d="m817.45 542.972 4.172-.656c.234 1.672.887 2.953 1.957 3.844 1.07.89 2.567 1.336 4.488 1.336 1.938 0 3.375-.395 4.313-1.184.937-.789 1.406-1.715 1.406-2.777 0-.953-.414-1.703-1.242-2.25-.578-.375-2.016-.852-4.313-1.43-3.093-.781-5.238-1.457-6.433-2.027-1.195-.571-2.102-1.36-2.719-2.368-.617-1.007-.926-2.121-.926-3.339 0-1.11.254-2.137.762-3.082.508-.946 1.199-1.731 2.074-2.356.657-.484 1.551-.894 2.684-1.23s2.348-.504 3.644-.504c1.954 0 3.668.281 5.145.844 1.477.562 2.566 1.324 3.269 2.285.704.961 1.188 2.246 1.454 3.855l-4.125.563c-.188-1.282-.731-2.282-1.629-3-.899-.719-2.168-1.078-3.809-1.078-1.937 0-3.32.32-4.148.96-.828.641-1.243 1.391-1.243 2.25 0 .547.172 1.04.516 1.477.344.453.883.828 1.617 1.125.422.156 1.664.516 3.727 1.078 2.984.797 5.066 1.449 6.246 1.957s2.105 1.246 2.777 2.215 1.008 2.172 1.008 3.609c0 1.407-.41 2.731-1.23 3.973-.821 1.242-2.004 2.203-3.551 2.883s-3.297 1.019-5.25 1.019c-3.235 0-5.699-.671-7.395-2.015-1.695-1.344-2.777-3.336-3.246-5.977z"/><path d="m845.903 560.503h-3.023c4.672-7.5 7.008-15.007 7.008-22.523 0-2.937-.336-5.852-1.008-8.742-.531-2.344-1.274-4.594-2.227-6.75-.609-1.406-1.867-3.75-3.773-7.031h3.023c2.938 3.921 5.11 7.859 6.516 11.812 1.203 3.406 1.805 6.969 1.805 10.688 0 4.218-.809 8.296-2.426 12.234-1.617 3.937-3.582 7.375-5.895 10.312z"/><path d="m860.294 530.316v-4.805h4.805v4.805zm0 20.086v-4.805h4.805v4.805z"/><path d="m898.146 550.402v-8.227h-14.907v-3.867l15.68-22.265h3.445v22.265h4.641v3.867h-4.641v8.227zm0-12.094v-15.492l-10.758 15.492z"/><path d="m911.317 533.457c0-4.063.418-7.332 1.254-9.809s2.078-4.387 3.727-5.73c1.648-1.344 3.723-2.016 6.223-2.016 1.843 0 3.46.371 4.851 1.113s2.539 1.813 3.445 3.211c.907 1.399 1.618 3.102 2.133 5.109.516 2.008.774 4.715.774 8.122 0 4.031-.414 7.285-1.243 9.761-.828 2.477-2.066 4.391-3.714 5.742-1.649 1.352-3.731 2.028-6.246 2.028-3.313 0-5.915-1.188-7.805-3.563-2.266-2.859-3.399-7.515-3.399-13.968zm4.336 0c0 5.64.661 9.394 1.981 11.261s2.949 2.801 4.887 2.801c1.937 0 3.566-.937 4.886-2.812 1.321-1.875 1.981-5.625 1.981-11.25 0-5.657-.66-9.414-1.981-11.274-1.32-1.859-2.965-2.789-4.933-2.789-1.938 0-3.485.82-4.641 2.461-1.453 2.094-2.18 5.961-2.18 11.602z"/><path d="m938.013 533.457c0-4.063.418-7.332 1.254-9.809s2.078-4.387 3.726-5.73c1.649-1.344 3.723-2.016 6.223-2.016 1.844 0 3.461.371 4.851 1.113 1.391.742 2.539 1.813 3.446 3.211.906 1.399 1.617 3.102 2.133 5.109.515 2.008.773 4.715.773 8.122 0 4.031-.414 7.285-1.242 9.761-.828 2.477-2.067 4.391-3.715 5.742-1.648 1.352-3.731 2.028-6.246 2.028-3.313 0-5.914-1.188-7.805-3.563-2.265-2.859-3.398-7.515-3.398-13.968zm4.336 0c0 5.64.66 9.394 1.98 11.261s2.949 2.801 4.887 2.801c1.937 0 3.566-.937 4.887-2.812 1.32-1.875 1.98-5.625 1.98-11.25 0-5.657-.66-9.414-1.98-11.274-1.321-1.859-2.965-2.789-4.934-2.789-1.938 0-3.484.82-4.641 2.461-1.453 2.094-2.179 5.961-2.179 11.602z"/><path d="m964.708 533.457c0-4.063.418-7.332 1.254-9.809s2.078-4.387 3.727-5.73c1.648-1.344 3.722-2.016 6.222-2.016 1.844 0 3.461.371 4.852 1.113 1.39.742 2.539 1.813 3.445 3.211.906 1.399 1.617 3.102 2.133 5.109.515 2.008.773 4.715.773 8.122 0 4.031-.414 7.285-1.242 9.761-.828 2.477-2.066 4.391-3.715 5.742-1.648 1.352-3.73 2.028-6.246 2.028-3.312 0-5.914-1.188-7.805-3.563-2.265-2.859-3.398-7.515-3.398-13.968zm4.336 0c0 5.64.66 9.394 1.98 11.261 1.321 1.867 2.95 2.801 4.887 2.801 1.938 0 3.567-.937 4.887-2.812s1.98-5.625 1.98-11.25c0-5.657-.66-9.414-1.98-11.274-1.32-1.859-2.965-2.789-4.934-2.789-1.937 0-3.484.82-4.64 2.461-1.453 2.094-2.18 5.961-2.18 11.602z"/><path d="m1005.94 550.402v-34.359h4.21v19.593l9.99-10.125h5.46l-9.52 9.235 10.48 15.656h-5.2l-8.23-12.727-2.98 2.86v9.867z"/><path d="m1029.91 550.402v-24.891h3.77v3.492c.79-1.218 1.83-2.199 3.12-2.941 1.3-.742 2.78-1.113 4.43-1.113 1.85 0 3.36.383 4.54 1.148 1.18.766 2.01 1.836 2.49 3.211 1.97-2.906 4.53-4.359 7.69-4.359 2.47 0 4.37.683 5.7 2.051 1.32 1.367 1.99 3.472 1.99 6.316v17.086h-4.2v-15.68c0-1.687-.13-2.902-.41-3.644-.27-.743-.77-1.34-1.49-1.793-.71-.453-1.56-.68-2.53-.68-1.75 0-3.2.582-4.36 1.746-1.15 1.164-1.73 3.027-1.73 5.59v14.461h-4.22v-16.172c0-1.875-.34-3.281-1.03-4.219-.69-.937-1.81-1.406-3.38-1.406-1.18 0-2.28.313-3.29.938s-1.74 1.539-2.19 2.742-.68 2.937-.68 5.203v12.914z"/><path d="m1091.29 560.503c-2.32-2.937-4.29-6.375-5.9-10.312-1.61-3.938-2.42-8.016-2.42-12.234 0-3.719.61-7.282 1.81-10.688 1.4-3.953 3.58-7.891 6.51-11.812h3.03c-1.89 3.25-3.14 5.57-3.75 6.961-.96 2.156-1.71 4.406-2.25 6.75-.67 2.921-1.01 5.859-1.01 8.812 0 7.516 2.34 15.023 7.01 22.523z"/><path d="m1098.07 541.332 4.22-.563c.48 2.391 1.31 4.113 2.47 5.168s2.58 1.582 4.25 1.582c1.99 0 3.66-.687 5.03-2.062s2.05-3.079 2.05-5.11c0-1.937-.63-3.535-1.9-4.793-1.26-1.258-2.87-1.886-4.83-1.886-.79 0-1.78.156-2.97.468l.47-3.703c.28.031.5.047.68.047 1.79 0 3.41-.469 4.85-1.406 1.44-.938 2.15-2.383 2.15-4.336 0-1.547-.52-2.828-1.57-3.844-1.04-1.016-2.39-1.523-4.05-1.523-1.64 0-3.01.515-4.1 1.547-1.1 1.031-1.8 2.578-2.11 4.64l-4.22-.75c.52-2.828 1.69-5.019 3.52-6.574 1.82-1.555 4.1-2.332 6.82-2.332 1.87 0 3.6.402 5.18 1.207 1.57.805 2.78 1.902 3.62 3.293.83 1.391 1.25 2.867 1.25 4.43 0 1.484-.4 2.836-1.2 4.054-.79 1.219-1.97 2.188-3.53 2.907 2.03.468 3.61 1.441 4.73 2.917 1.13 1.477 1.69 3.325 1.69 5.543 0 3-1.1 5.543-3.28 7.629-2.19 2.086-4.96 3.129-8.3 3.129-3.02 0-5.52-.898-7.51-2.695s-3.13-4.125-3.41-6.984z"/><path d="m1124.74 541.402 4.43-.375c.33 2.156 1.09 3.777 2.28 4.863 1.2 1.086 2.64 1.629 4.33 1.629 2.03 0 3.75-.766 5.15-2.297 1.41-1.531 2.11-3.562 2.11-6.094 0-2.406-.67-4.304-2.02-5.695-1.36-1.39-3.12-2.086-5.31-2.086-1.36 0-2.59.309-3.68.926-1.1.617-1.95 1.418-2.58 2.402l-3.96-.515 3.33-17.649h17.08v4.032h-13.71l-1.85 9.234c2.06-1.438 4.23-2.156 6.49-2.156 3 0 5.53 1.039 7.6 3.117 2.06 2.078 3.09 4.75 3.09 8.015 0 3.11-.91 5.797-2.72 8.063-2.2 2.781-5.21 4.172-9.02 4.172-3.13 0-5.68-.875-7.65-2.625-1.98-1.75-3.11-4.07-3.39-6.961z"/><path d="m1153.8 545.597h4.805v4.805h-4.805z"/><path d="m1165.4 542.457 4.06-.375c.34 1.906 1 3.289 1.97 4.148s2.21 1.289 3.72 1.289c1.3 0 2.44-.297 3.41-.891.98-.593 1.78-1.386 2.41-2.378.62-.993 1.14-2.332 1.57-4.02.42-1.687.63-3.406.63-5.156 0-.188-.01-.469-.02-.844-.85 1.344-2 2.434-3.46 3.27-1.46.835-3.04 1.253-4.75 1.253-2.84 0-5.25-1.031-7.22-3.093-1.96-2.063-2.95-4.782-2.95-8.157 0-3.484 1.03-6.289 3.08-8.414 2.06-2.125 4.63-3.187 7.73-3.187 2.23 0 4.27.601 6.12 1.805 1.86 1.203 3.26 2.918 4.22 5.144.96 2.227 1.44 5.449 1.44 9.668 0 4.391-.47 7.887-1.43 10.488-.95 2.602-2.37 4.582-4.25 5.942-1.88 1.359-4.09 2.039-6.62 2.039-2.69 0-4.88-.746-6.59-2.238-1.7-1.493-2.72-3.59-3.07-6.293zm17.28-15.164c0-2.422-.65-4.344-1.94-5.766s-2.84-2.133-4.65-2.133c-1.87 0-3.51.766-4.9 2.297s-2.08 3.516-2.08 5.953c0 2.188.66 3.965 1.98 5.332s2.95 2.051 4.88 2.051c1.96 0 3.56-.684 4.82-2.051s1.89-3.262 1.89-5.683z"/><path d="m1198.22 515.457c2.26 0 4.11.781 5.54 2.343 1.43 1.563 2.14 3.719 2.14 6.469 0 2.734-.72 4.883-2.15 6.445-1.44 1.563-3.28 2.344-5.51 2.344-2.27 0-4.12-.765-5.56-2.297-1.43-1.531-2.15-3.664-2.15-6.398 0-2.813.71-5 2.14-6.563 1.43-1.562 3.28-2.343 5.55-2.343zm0 3.117c-1.27 0-2.29.445-3.06 1.336-.78.89-1.16 2.343-1.16 4.359 0 1.969.39 3.41 1.18 4.324s1.8 1.371 3.04 1.371c1.25 0 2.26-.457 3.04-1.371s1.17-2.394 1.17-4.441c0-1.906-.39-3.313-1.18-4.219s-1.8-1.359-3.03-1.359z"/><path d="m1212.93 560.503h-3.02c4.67-7.5 7.01-15.007 7.01-22.523 0-2.937-.34-5.852-1.01-8.742-.53-2.344-1.27-4.594-2.23-6.75-.6-1.406-1.86-3.75-3.77-7.031h3.02c2.94 3.921 5.11 7.859 6.52 11.812 1.2 3.406 1.81 6.969 1.81 10.688 0 4.218-.81 8.296-2.43 12.234-1.62 3.937-3.58 7.375-5.9 10.312z"/></g></g></svg>