<svg xmlns="http://www.w3.org/2000/svg" viewBox="0 0 221.54 153.91"><defs><style>.cls-1,.cls-12,.cls-13,.cls-4,.cls-5,.cls-7{fill:none;stroke-linecap:round;stroke-linejoin:round;}.cls-1,.cls-4{stroke:#000;}.cls-1,.cls-5{stroke-width:0.1px;}.cls-2,.cls-8{font-size:8.5px;font-family:ArialMT, Arial;}.cls-10,.cls-3,.cls-9{font-size:10.6px;font-family:Helvetica, Helvetica;}.cls-5,.cls-7{stroke:#ed1c24;}.cls-6,.cls-8,.cls-9{fill:#ed1c24;}.cls-10{fill:#f7941d;}.cls-11{letter-spacing:-0.02em;}.cls-12{stroke:#793c71;}.cls-13{stroke:#f7941d;}</style></defs><title>earth-horizon-top</title><g id="Default"><line class="cls-1" x1="120.97" y1="72.65" x2="117.55" y2="72.66"/><line class="cls-1" x1="117.55" y1="72.66" x2="113.95" y2="72.66"/><polyline points="120.97 72.65 116.72 71.59 116.72 73.72 120.97 72.65"/><text class="cls-2" transform="translate(99.53 75.49)">ISS</text><text class="cls-3" transform="translate(92.97 9.1)">Flat Horizon</text><text class="cls-3" transform="translate(76.19 148.81)">OVERHEAD VIEW</text><line class="cls-4" x1="120.97" y1="72.65" x2="120.97" y2="72.65"/><line class="cls-4" x1="120.97" y1="11.52" x2="120.97" y2="72.65"/><line class="cls-4" x1="48.12" y1="11.52" x2="193.82" y2="11.52"/></g><g id="Layer_01" data-name="Layer 01"><line class="cls-5" x1="72.58" y1="110" x2="83.48" y2="99.73"/><line class="cls-5" x1="83.48" y1="99.73" x2="89.26" y2="99.73"/><polyline class="cls-6" points="72.58 110 76.4 107.86 74.94 106.31 72.58 110"/><circle class="cls-7" cx="120.97" cy="72.65" r="61.13"/><line class="cls-5" x1="63.82" y1="50.94" x2="47.91" y2="44.9"/><line class="cls-5" x1="47.91" y1="44.9" x2="42.24" y2="44.9"/><line class="cls-5" x1="120.96" y1="72.65" x2="120.98" y2="72.65"/><line class="cls-5" x1="120.97" y1="72.66" x2="120.97" y2="72.64"/><polyline class="cls-6" points="63.82 50.94 60.23 48.44 59.47 50.43 63.82 50.94"/><text class="cls-8" transform="translate(0 47.73)">ร4313 km</text><text class="cls-9" transform="translate(90.42 103.21)">Earth Horizon</text><text class="cls-10" transform="translate(146.2 64.09) rotate(-40)">Field of <tspan class="cls-11" x="37.71" y="0">V</tspan><tspan x="44.59" y="0">iew</tspan><tspan x="0" y="12.72">15mm lens (100ยบ)</tspan></text></g><g id="Layer_02" data-name="Layer 02"><line class="cls-12" x1="120.97" y1="72.65" x2="120.97" y2="11.52"/></g><g id="Layer_06" data-name="Layer 06"><line class="cls-13" x1="120.97" y1="72.65" x2="36.79" y2="2.02"/><line class="cls-13" x1="120.97" y1="72.65" x2="205.15" y2="2.02"/></g></svg>