<?xml version="1.0" encoding="UTF-8" standalone="no"?>
<!DOCTYPE svg PUBLIC "-//W3C//DTD SVG 1.1//EN" "http://www.w3.org/Graphics/SVG/1.1/DTD/svg11.dtd">
<svg width="100%" height="100%" viewBox="0 0 340 453" version="1.1" xmlns="http://www.w3.org/2000/svg" xmlns:xlink="http://www.w3.org/1999/xlink" xml:space="preserve" style="fill-rule:evenodd;clip-rule:evenodd;stroke-linecap:round;stroke-linejoin:round;stroke-miterlimit:1.41421;">
    <g id="ISS" transform="matrix(0.980153,0,0,1.15049,8.88178e-16,-40.1945)">
        <path d="M173.442,52.321L346.885,400L0,400L173.442,52.321Z" style="fill:rgb(51,153,204);stroke-width:0.94px;stroke-dasharray:1.87,0.94,0,0;stroke:black;"/>
    </g>
    <g id="Earth" transform="matrix(-1,3.21625e-16,-3.21625e-16,-1,334.519,833)">
        <path d="M164.519,400L170,413L159.038,413L164.519,400Z" style="fill:rgb(204,0,0);stroke-width:1px;stroke-dasharray:2,1,0,0;stroke:black;"/>
    </g>
    <g id="Cloud" transform="matrix(1,0,0,0.463529,0,233.553)">
        <rect x="0" y="400" width="340" height="4.333" style="fill:rgb(102,102,102);"/>
    </g>
    <g id="Ground" transform="matrix(1.00234,0,0,19.0807,0,-7447.35)">
        <rect x="0" y="413" width="339.205" height="1.048" style="fill:rgb(0,153,51);"/>
    </g>
    <g transform="matrix(1,0,0,1,-136.901,182.034)">
        <text x="292.56px" y="263.992px" style="font-family:'ArialMT', 'Arial', sans-serif;font-size:12px;fill:black;">Earth</text>
    </g>
    <g transform="matrix(1,0,0,1,-10.3199,2.81788)">
        <text x="170.649px" y="9.274px" style="font-family:'ArialMT', 'Arial', sans-serif;font-size:12px;fill:black;">ISS</text>
    </g>
    <g transform="matrix(1,0,0,1,-0.473958,12.3939)">
        <text x="138.368px" y="404.028px" style="font-family:'ArialMT', 'Arial', sans-serif;font-size:12px;fill:black;">Cloud Layer</text>
    </g>
</svg>
