<?xml version="1.0" encoding="UTF-8" standalone="no"?>
<!DOCTYPE svg PUBLIC "-//W3C//DTD SVG 1.1//EN" "http://www.w3.org/Graphics/SVG/1.1/DTD/svg11.dtd">
<svg width="100%" height="100%" viewBox="0 0 1280 250" version="1.1" xmlns="http://www.w3.org/2000/svg" xmlns:xlink="http://www.w3.org/1999/xlink" xml:space="preserve" style="fill-rule:evenodd;clip-rule:evenodd;stroke-linejoin:round;stroke-miterlimit:1.41421;">
    <g id="ISS-.28.400km.29." transform="matrix(9.84186e-16,-16.073,25.7246,1.57518e-15,-8429.46,12918)">
        <clipPath id="_clip1">
            <rect x="789.112" y="197.067" width="5.392" height="310.986"/>
        </clipPath>
        <g clip-path="url(#_clip1)">
            <path d="M791.44,376.885C793.48,368.839 794.504,360.706 794.504,352.56C794.504,344.414 793.48,336.281 791.44,328.236L545.639,352.56L791.44,376.885Z" style="fill:rgb(22,45,85);"/>
            <clipPath id="_clip2">
                <path d="M791.44,376.885C793.48,368.839 794.504,360.706 794.504,352.56C794.504,344.414 793.48,336.281 791.44,328.236L545.639,352.56L791.44,376.885Z"/>
            </clipPath>
            <g clip-path="url(#_clip2)">
                <g transform="matrix(3.80964e-18,0.0388733,-0.0622162,2.3803e-18,824.911,319.007)">
                    <rect x="503.013" y="516.043" width="4.547" height="34.359" style="fill:none;"/>
                    <path d="M514.028,539.363L518.317,538.988C518.521,540.707 518.993,542.117 519.735,543.218C520.478,544.32 521.63,545.21 523.192,545.89C524.755,546.57 526.513,546.91 528.466,546.91C530.2,546.91 531.731,546.652 533.06,546.136C534.388,545.621 535.376,544.914 536.024,544.015C536.673,543.117 536.997,542.136 536.997,541.074C536.997,539.996 536.685,539.054 536.06,538.25C535.435,537.445 534.403,536.769 532.966,536.222C532.044,535.863 530.005,535.304 526.849,534.546C523.692,533.789 521.481,533.074 520.216,532.402C518.575,531.543 517.353,530.476 516.548,529.203C515.743,527.929 515.341,526.503 515.341,524.925C515.341,523.191 515.833,521.57 516.817,520.062C517.802,518.554 519.239,517.41 521.13,516.628C523.021,515.847 525.122,515.457 527.435,515.457C529.981,515.457 532.228,515.867 534.173,516.687C536.118,517.507 537.614,518.714 538.661,520.308C539.708,521.902 540.271,523.707 540.349,525.722L535.989,526.05C535.755,523.878 534.962,522.238 533.61,521.128C532.259,520.019 530.263,519.464 527.622,519.464C524.872,519.464 522.868,519.968 521.61,520.976C520.353,521.984 519.724,523.199 519.724,524.621C519.724,525.855 520.169,526.871 521.06,527.668C521.935,528.464 524.22,529.281 527.915,530.117C531.61,530.953 534.146,531.683 535.521,532.308C537.521,533.23 538.997,534.398 539.95,535.812C540.903,537.226 541.38,538.855 541.38,540.699C541.38,542.527 540.856,544.25 539.81,545.867C538.763,547.484 537.259,548.742 535.298,549.64C533.337,550.539 531.13,550.988 528.677,550.988C525.567,550.988 522.962,550.535 520.86,549.628C518.759,548.722 517.11,547.359 515.915,545.539C514.72,543.718 514.091,541.66 514.028,539.363Z" style="fill:none;"/>
                    <path d="M546.044,539.363L550.333,538.988C550.536,540.707 551.009,542.117 551.751,543.218C552.493,544.32 553.646,545.21 555.208,545.89C556.771,546.57 558.528,546.91 560.481,546.91C562.216,546.91 563.747,546.652 565.075,546.136C566.403,545.621 567.392,544.914 568.04,544.015C568.689,543.117 569.013,542.136 569.013,541.074C569.013,539.996 568.7,539.054 568.075,538.25C567.45,537.445 566.419,536.769 564.981,536.222C564.06,535.863 562.021,535.304 558.864,534.546C555.708,533.789 553.497,533.074 552.231,532.402C550.591,531.543 549.368,530.476 548.564,529.203C547.759,527.929 547.356,526.503 547.356,524.925C547.356,523.191 547.849,521.57 548.833,520.062C549.817,518.554 551.255,517.41 553.146,516.628C555.036,515.847 557.138,515.457 559.45,515.457C561.997,515.457 564.243,515.867 566.189,516.687C568.134,517.507 569.63,518.714 570.677,520.308C571.724,521.902 572.286,523.707 572.364,525.722L568.005,526.05C567.771,523.878 566.978,522.238 565.626,521.128C564.274,520.019 562.278,519.464 559.638,519.464C556.888,519.464 554.884,519.968 553.626,520.976C552.368,521.984 551.739,523.199 551.739,524.621C551.739,525.855 552.185,526.871 553.075,527.668C553.95,528.464 556.235,529.281 559.931,530.117C563.626,530.953 566.161,531.683 567.536,532.308C569.536,533.23 571.013,534.398 571.966,535.812C572.919,537.226 573.396,538.855 573.396,540.699C573.396,542.527 572.872,544.25 571.825,545.867C570.778,547.484 569.274,548.742 567.314,549.64C565.353,550.539 563.146,550.988 560.692,550.988C557.583,550.988 554.978,550.535 552.876,549.628C550.774,548.722 549.126,547.359 547.931,545.539C546.735,543.718 546.106,541.66 546.044,539.363Z" style="fill:none;"/>
                    <path d="M600.466,560.503C598.138,557.566 596.169,554.128 594.56,550.191C592.95,546.253 592.146,542.175 592.146,537.957C592.146,534.238 592.747,530.675 593.95,527.269C595.356,523.316 597.528,519.378 600.466,515.457L603.489,515.457C601.599,518.707 600.349,521.027 599.739,522.418C598.786,524.574 598.036,526.824 597.489,529.168C596.817,532.089 596.481,535.027 596.481,537.98C596.481,545.496 598.817,553.003 603.489,560.503L600.466,560.503Z" style="fill:none;"/>
                    <path d="M607.216,541.402L611.646,541.027C611.974,543.183 612.735,544.804 613.931,545.89C615.126,546.976 616.567,547.519 618.255,547.519C620.286,547.519 622.005,546.753 623.411,545.222C624.817,543.691 625.521,541.66 625.521,539.128C625.521,536.722 624.845,534.824 623.493,533.433C622.142,532.043 620.372,531.347 618.185,531.347C616.825,531.347 615.599,531.656 614.505,532.273C613.411,532.89 612.552,533.691 611.927,534.675L607.966,534.16L611.294,516.511L628.38,516.511L628.38,520.543L614.669,520.543L612.817,529.777C614.88,528.339 617.044,527.621 619.31,527.621C622.31,527.621 624.841,528.66 626.903,530.738C628.966,532.816 629.997,535.488 629.997,538.753C629.997,541.863 629.091,544.55 627.278,546.816C625.075,549.597 622.067,550.988 618.255,550.988C615.13,550.988 612.579,550.113 610.603,548.363C608.626,546.613 607.497,544.293 607.216,541.402Z" style="fill:none;"/>
                    <path d="M633.911,533.457C633.911,529.394 634.329,526.125 635.165,523.648C636.001,521.171 637.243,519.261 638.892,517.918C640.54,516.574 642.614,515.902 645.114,515.902C646.958,515.902 648.575,516.273 649.966,517.015C651.356,517.757 652.505,518.828 653.411,520.226C654.317,521.625 655.028,523.328 655.544,525.335C656.06,527.343 656.317,530.05 656.317,533.457C656.317,537.488 655.903,540.742 655.075,543.218C654.247,545.695 653.009,547.609 651.36,548.96C649.712,550.312 647.63,550.988 645.114,550.988C641.802,550.988 639.2,549.8 637.31,547.425C635.044,544.566 633.911,539.91 633.911,533.457ZM638.247,533.457C638.247,539.097 638.907,542.851 640.228,544.718C641.548,546.585 643.177,547.519 645.114,547.519C647.052,547.519 648.681,546.582 650.001,544.707C651.321,542.832 651.981,539.082 651.981,533.457C651.981,527.8 651.321,524.043 650.001,522.183C648.681,520.324 647.036,519.394 645.067,519.394C643.13,519.394 641.583,520.214 640.427,521.855C638.974,523.949 638.247,527.816 638.247,533.457Z" style="fill:none;"/>
                    <path d="M661.778,550.402L661.778,525.511L665.552,525.511L665.552,529.003C666.333,527.785 667.372,526.804 668.669,526.062C669.966,525.32 671.442,524.949 673.099,524.949C674.942,524.949 676.454,525.332 677.634,526.097C678.814,526.863 679.646,527.933 680.13,529.308C682.099,526.402 684.661,524.949 687.817,524.949C690.286,524.949 692.185,525.632 693.513,527C694.841,528.367 695.505,530.472 695.505,533.316L695.505,550.402L691.31,550.402L691.31,534.722C691.31,533.035 691.173,531.82 690.899,531.078C690.626,530.335 690.13,529.738 689.411,529.285C688.692,528.832 687.849,528.605 686.88,528.605C685.13,528.605 683.677,529.187 682.521,530.351C681.364,531.515 680.786,533.378 680.786,535.941L680.786,550.402L676.567,550.402L676.567,534.23C676.567,532.355 676.224,530.949 675.536,530.011C674.849,529.074 673.724,528.605 672.161,528.605C670.974,528.605 669.876,528.918 668.868,529.543C667.86,530.168 667.13,531.082 666.677,532.285C666.224,533.488 665.997,535.222 665.997,537.488L665.997,550.402L661.778,550.402Z" style="fill:none;"/>
                    <path d="M701.763,550.402L701.763,525.511L705.536,525.511L705.536,529.003C706.317,527.785 707.356,526.804 708.653,526.062C709.95,525.32 711.427,524.949 713.083,524.949C714.927,524.949 716.439,525.332 717.618,526.097C718.798,526.863 719.63,527.933 720.114,529.308C722.083,526.402 724.646,524.949 727.802,524.949C730.271,524.949 732.169,525.632 733.497,527C734.825,528.367 735.489,530.472 735.489,533.316L735.489,550.402L731.294,550.402L731.294,534.722C731.294,533.035 731.157,531.82 730.884,531.078C730.61,530.335 730.114,529.738 729.396,529.285C728.677,528.832 727.833,528.605 726.864,528.605C725.114,528.605 723.661,529.187 722.505,530.351C721.349,531.515 720.771,533.378 720.771,535.941L720.771,550.402L716.552,550.402L716.552,534.23C716.552,532.355 716.208,530.949 715.521,530.011C714.833,529.074 713.708,528.605 712.146,528.605C710.958,528.605 709.86,528.918 708.853,529.543C707.845,530.168 707.114,531.082 706.661,532.285C706.208,533.488 705.981,535.222 705.981,537.488L705.981,550.402L701.763,550.402Z" style="fill:none;"/>
                    <rect x="754.989" y="516.043" width="4.219" height="34.359" style="fill:none;"/>
                    <path d="M782.786,542.386L787.146,542.925C786.458,545.472 785.185,547.449 783.325,548.855C781.466,550.261 779.091,550.964 776.2,550.964C772.56,550.964 769.673,549.843 767.54,547.601C765.407,545.359 764.341,542.214 764.341,538.168C764.341,533.98 765.419,530.73 767.575,528.418C769.731,526.105 772.528,524.949 775.966,524.949C779.294,524.949 782.013,526.082 784.122,528.347C786.231,530.613 787.286,533.8 787.286,537.91C787.286,538.16 787.278,538.535 787.263,539.035L768.7,539.035C768.856,541.769 769.63,543.863 771.021,545.316C772.411,546.769 774.146,547.496 776.224,547.496C777.771,547.496 779.091,547.089 780.185,546.277C781.278,545.464 782.146,544.168 782.786,542.386ZM768.935,535.566L782.833,535.566C782.646,533.472 782.114,531.902 781.239,530.855C779.896,529.23 778.153,528.418 776.013,528.418C774.075,528.418 772.446,529.066 771.126,530.363C769.806,531.66 769.075,533.394 768.935,535.566Z" style="fill:none;"/>
                    <path d="M792.442,550.402L792.442,525.511L796.239,525.511L796.239,529.05C798.067,526.316 800.708,524.949 804.161,524.949C805.661,524.949 807.04,525.218 808.298,525.757C809.556,526.296 810.497,527.003 811.122,527.878C811.747,528.753 812.185,529.793 812.435,530.996C812.591,531.777 812.669,533.144 812.669,535.097L812.669,550.402L808.45,550.402L808.45,535.261C808.45,533.543 808.286,532.257 807.958,531.406C807.63,530.554 807.048,529.875 806.212,529.367C805.376,528.859 804.396,528.605 803.271,528.605C801.474,528.605 799.923,529.175 798.618,530.316C797.314,531.457 796.661,533.621 796.661,536.808L796.661,550.402L792.442,550.402Z" style="fill:none;"/>
                    <path d="M817.45,542.972L821.622,542.316C821.856,543.988 822.509,545.269 823.579,546.16C824.649,547.05 826.146,547.496 828.067,547.496C830.005,547.496 831.442,547.101 832.38,546.312C833.317,545.523 833.786,544.597 833.786,543.535C833.786,542.582 833.372,541.832 832.544,541.285C831.966,540.91 830.528,540.433 828.231,539.855C825.138,539.074 822.993,538.398 821.798,537.828C820.603,537.257 819.696,536.468 819.079,535.46C818.462,534.453 818.153,533.339 818.153,532.121C818.153,531.011 818.407,529.984 818.915,529.039C819.423,528.093 820.114,527.308 820.989,526.683C821.646,526.199 822.54,525.789 823.673,525.453C824.806,525.117 826.021,524.949 827.317,524.949C829.271,524.949 830.985,525.23 832.462,525.793C833.939,526.355 835.028,527.117 835.731,528.078C836.435,529.039 836.919,530.324 837.185,531.933L833.06,532.496C832.872,531.214 832.329,530.214 831.431,529.496C830.532,528.777 829.263,528.418 827.622,528.418C825.685,528.418 824.302,528.738 823.474,529.378C822.646,530.019 822.231,530.769 822.231,531.628C822.231,532.175 822.403,532.668 822.747,533.105C823.091,533.558 823.63,533.933 824.364,534.23C824.786,534.386 826.028,534.746 828.091,535.308C831.075,536.105 833.157,536.757 834.337,537.265C835.517,537.773 836.442,538.511 837.114,539.48C837.786,540.449 838.122,541.652 838.122,543.089C838.122,544.496 837.712,545.82 836.892,547.062C836.071,548.304 834.888,549.265 833.341,549.945C831.794,550.625 830.044,550.964 828.091,550.964C824.856,550.964 822.392,550.293 820.696,548.949C819.001,547.605 817.919,545.613 817.45,542.972Z" style="fill:none;"/>
                    <path d="M845.903,560.503L842.88,560.503C847.552,553.003 849.888,545.496 849.888,537.98C849.888,535.043 849.552,532.128 848.88,529.238C848.349,526.894 847.606,524.644 846.653,522.488C846.044,521.082 844.786,518.738 842.88,515.457L845.903,515.457C848.841,519.378 851.013,523.316 852.419,527.269C853.622,530.675 854.224,534.238 854.224,537.957C854.224,542.175 853.415,546.253 851.798,550.191C850.181,554.128 848.216,557.566 845.903,560.503Z" style="fill:none;"/>
                    <path d="M860.294,530.316L860.294,525.511L865.099,525.511L865.099,530.316L860.294,530.316ZM860.294,550.402L860.294,545.597L865.099,545.597L865.099,550.402L860.294,550.402Z" style="fill:none;"/>
                    <path d="M906.794,546.347L906.794,550.402L884.083,550.402C884.052,549.386 884.216,548.41 884.575,547.472C885.153,545.925 886.079,544.402 887.353,542.902C888.626,541.402 890.466,539.668 892.872,537.699C896.606,534.636 899.13,532.21 900.442,530.421C901.755,528.632 902.411,526.941 902.411,525.347C902.411,523.675 901.814,522.265 900.618,521.117C899.423,519.968 897.864,519.394 895.942,519.394C893.911,519.394 892.286,520.003 891.067,521.222C889.849,522.441 889.231,524.128 889.216,526.285L884.88,525.839C885.177,522.605 886.294,520.14 888.231,518.445C890.169,516.75 892.771,515.902 896.036,515.902C899.333,515.902 901.942,516.816 903.864,518.644C905.786,520.472 906.747,522.738 906.747,525.441C906.747,526.816 906.466,528.168 905.903,529.496C905.341,530.824 904.407,532.222 903.103,533.691C901.798,535.16 899.63,537.175 896.599,539.738C894.067,541.863 892.442,543.304 891.724,544.062C891.005,544.82 890.411,545.582 889.942,546.347L906.794,546.347Z" style="fill:none;"/>
                    <path d="M911.317,533.457C911.317,529.394 911.735,526.125 912.571,523.648C913.407,521.171 914.649,519.261 916.298,517.918C917.946,516.574 920.021,515.902 922.521,515.902C924.364,515.902 925.981,516.273 927.372,517.015C928.763,517.757 929.911,518.828 930.817,520.226C931.724,521.625 932.435,523.328 932.95,525.335C933.466,527.343 933.724,530.05 933.724,533.457C933.724,537.488 933.31,540.742 932.481,543.218C931.653,545.695 930.415,547.609 928.767,548.96C927.118,550.312 925.036,550.988 922.521,550.988C919.208,550.988 916.606,549.8 914.716,547.425C912.45,544.566 911.317,539.91 911.317,533.457ZM915.653,533.457C915.653,539.097 916.314,542.851 917.634,544.718C918.954,546.585 920.583,547.519 922.521,547.519C924.458,547.519 926.087,546.582 927.407,544.707C928.728,542.832 929.388,539.082 929.388,533.457C929.388,527.8 928.728,524.043 927.407,522.183C926.087,520.324 924.442,519.394 922.474,519.394C920.536,519.394 918.989,520.214 917.833,521.855C916.38,523.949 915.653,527.816 915.653,533.457Z" style="fill:none;"/>
                    <path d="M938.013,533.457C938.013,529.394 938.431,526.125 939.267,523.648C940.103,521.171 941.345,519.261 942.993,517.918C944.642,516.574 946.716,515.902 949.216,515.902C951.06,515.902 952.677,516.273 954.067,517.015C955.458,517.757 956.606,518.828 957.513,520.226C958.419,521.625 959.13,523.328 959.646,525.335C960.161,527.343 960.419,530.05 960.419,533.457C960.419,537.488 960.005,540.742 959.177,543.218C958.349,545.695 957.11,547.609 955.462,548.96C953.814,550.312 951.731,550.988 949.216,550.988C945.903,550.988 943.302,549.8 941.411,547.425C939.146,544.566 938.013,539.91 938.013,533.457ZM942.349,533.457C942.349,539.097 943.009,542.851 944.329,544.718C945.649,546.585 947.278,547.519 949.216,547.519C951.153,547.519 952.782,546.582 954.103,544.707C955.423,542.832 956.083,539.082 956.083,533.457C956.083,527.8 955.423,524.043 954.103,522.183C952.782,520.324 951.138,519.394 949.169,519.394C947.231,519.394 945.685,520.214 944.528,521.855C943.075,523.949 942.349,527.816 942.349,533.457Z" style="fill:none;"/>
                    <path d="M964.708,533.457C964.708,529.394 965.126,526.125 965.962,523.648C966.798,521.171 968.04,519.261 969.689,517.918C971.337,516.574 973.411,515.902 975.911,515.902C977.755,515.902 979.372,516.273 980.763,517.015C982.153,517.757 983.302,518.828 984.208,520.226C985.114,521.625 985.825,523.328 986.341,525.335C986.856,527.343 987.114,530.05 987.114,533.457C987.114,537.488 986.7,540.742 985.872,543.218C985.044,545.695 983.806,547.609 982.157,548.96C980.509,550.312 978.427,550.988 975.911,550.988C972.599,550.988 969.997,549.8 968.106,547.425C965.841,544.566 964.708,539.91 964.708,533.457ZM969.044,533.457C969.044,539.097 969.704,542.851 971.024,544.718C972.345,546.585 973.974,547.519 975.911,547.519C977.849,547.519 979.478,546.582 980.798,544.707C982.118,542.832 982.778,539.082 982.778,533.457C982.778,527.8 982.118,524.043 980.798,522.183C979.478,520.324 977.833,519.394 975.864,519.394C973.927,519.394 972.38,520.214 971.224,521.855C969.771,523.949 969.044,527.816 969.044,533.457Z" style="fill:none;"/>
                    <path d="M1005.94,550.402L1005.94,516.043L1010.15,516.043L1010.15,535.636L1020.14,525.511L1025.6,525.511L1016.08,534.746L1026.56,550.402L1021.36,550.402L1013.13,537.675L1010.15,540.535L1010.15,550.402L1005.94,550.402Z" style="fill:none;"/>
                    <path d="M1029.91,550.402L1029.91,525.511L1033.68,525.511L1033.68,529.003C1034.47,527.785 1035.51,526.804 1036.8,526.062C1038.1,525.32 1039.58,524.949 1041.23,524.949C1043.08,524.949 1044.59,525.332 1045.77,526.097C1046.95,526.863 1047.78,527.933 1048.26,529.308C1050.23,526.402 1052.79,524.949 1055.95,524.949C1058.42,524.949 1060.32,525.632 1061.65,527C1062.97,528.367 1063.64,530.472 1063.64,533.316L1063.64,550.402L1059.44,550.402L1059.44,534.722C1059.44,533.035 1059.31,531.82 1059.03,531.078C1058.76,530.335 1058.26,529.738 1057.54,529.285C1056.83,528.832 1055.98,528.605 1055.01,528.605C1053.26,528.605 1051.81,529.187 1050.65,530.351C1049.5,531.515 1048.92,533.378 1048.92,535.941L1048.92,550.402L1044.7,550.402L1044.7,534.23C1044.7,532.355 1044.36,530.949 1043.67,530.011C1042.98,529.074 1041.86,528.605 1040.29,528.605C1039.11,528.605 1038.01,528.918 1037,529.543C1035.99,530.168 1035.26,531.082 1034.81,532.285C1034.36,533.488 1034.13,535.222 1034.13,537.488L1034.13,550.402L1029.91,550.402Z" style="fill:none;"/>
                    <path d="M1091.29,560.503C1088.97,557.566 1087,554.128 1085.39,550.191C1083.78,546.253 1082.97,542.175 1082.97,537.957C1082.97,534.238 1083.58,530.675 1084.78,527.269C1086.18,523.316 1088.36,519.378 1091.29,515.457L1094.32,515.457C1092.43,518.707 1091.18,521.027 1090.57,522.418C1089.61,524.574 1088.86,526.824 1088.32,529.168C1087.65,532.089 1087.31,535.027 1087.31,537.98C1087.31,545.496 1089.65,553.003 1094.32,560.503L1091.29,560.503Z" style="fill:none;"/>
                    <path d="M1113.93,550.402L1109.72,550.402L1109.72,523.519C1108.7,524.488 1107.37,525.457 1105.72,526.425C1104.07,527.394 1102.59,528.121 1101.28,528.605L1101.28,524.527C1103.64,523.418 1105.7,522.074 1107.47,520.496C1109.23,518.918 1110.48,517.386 1111.22,515.902L1113.93,515.902L1113.93,550.402Z" style="fill:none;"/>
                    <path d="M1125.02,520.543L1125.02,516.488L1147.26,516.488L1147.26,519.769C1145.08,522.097 1142.91,525.191 1140.76,529.05C1138.61,532.91 1136.95,536.878 1135.78,540.957C1134.93,543.832 1134.4,546.98 1134.16,550.402L1129.83,550.402C1129.87,547.699 1130.4,544.433 1131.42,540.605C1132.43,536.777 1133.89,533.085 1135.79,529.531C1137.69,525.976 1139.71,522.98 1141.85,520.543L1125.02,520.543Z" style="fill:none;"/>
                    <rect x="1153.8" y="545.597" width="4.805" height="4.805" style="fill:none;"/>
                    <path d="M1165.4,542.457L1169.46,542.082C1169.8,543.988 1170.46,545.371 1171.43,546.23C1172.4,547.089 1173.64,547.519 1175.15,547.519C1176.45,547.519 1177.59,547.222 1178.56,546.628C1179.54,546.035 1180.34,545.242 1180.97,544.25C1181.59,543.257 1182.11,541.918 1182.54,540.23C1182.96,538.543 1183.17,536.824 1183.17,535.074C1183.17,534.886 1183.16,534.605 1183.15,534.23C1182.3,535.574 1181.15,536.664 1179.69,537.5C1178.23,538.335 1176.65,538.753 1174.94,538.753C1172.1,538.753 1169.69,537.722 1167.72,535.66C1165.76,533.597 1164.77,530.878 1164.77,527.503C1164.77,524.019 1165.8,521.214 1167.85,519.089C1169.91,516.964 1172.48,515.902 1175.58,515.902C1177.81,515.902 1179.85,516.503 1181.7,517.707C1183.56,518.91 1184.96,520.625 1185.92,522.851C1186.88,525.078 1187.36,528.3 1187.36,532.519C1187.36,536.91 1186.89,540.406 1185.93,543.007C1184.98,545.609 1183.56,547.589 1181.68,548.949C1179.8,550.308 1177.59,550.988 1175.06,550.988C1172.37,550.988 1170.18,550.242 1168.47,548.75C1166.77,547.257 1165.75,545.16 1165.4,542.457ZM1182.68,527.293C1182.68,524.871 1182.03,522.949 1180.74,521.527C1179.45,520.105 1177.9,519.394 1176.09,519.394C1174.22,519.394 1172.58,520.16 1171.19,521.691C1169.8,523.222 1169.11,525.207 1169.11,527.644C1169.11,529.832 1169.77,531.609 1171.09,532.976C1172.41,534.343 1174.04,535.027 1175.97,535.027C1177.93,535.027 1179.53,534.343 1180.79,532.976C1182.05,531.609 1182.68,529.714 1182.68,527.293Z" style="fill:none;"/>
                    <path d="M1198.22,515.457C1200.48,515.457 1202.33,516.238 1203.76,517.8C1205.19,519.363 1205.9,521.519 1205.9,524.269C1205.9,527.003 1205.18,529.152 1203.75,530.714C1202.31,532.277 1200.47,533.058 1198.24,533.058C1195.97,533.058 1194.12,532.293 1192.68,530.761C1191.25,529.23 1190.53,527.097 1190.53,524.363C1190.53,521.55 1191.24,519.363 1192.67,517.8C1194.1,516.238 1195.95,515.457 1198.22,515.457ZM1198.22,518.574C1196.95,518.574 1195.93,519.019 1195.16,519.91C1194.38,520.8 1194,522.253 1194,524.269C1194,526.238 1194.39,527.679 1195.18,528.593C1195.97,529.507 1196.98,529.964 1198.22,529.964C1199.47,529.964 1200.48,529.507 1201.26,528.593C1202.04,527.679 1202.43,526.199 1202.43,524.152C1202.43,522.246 1202.04,520.839 1201.25,519.933C1200.46,519.027 1199.45,518.574 1198.22,518.574Z" style="fill:none;"/>
                    <path d="M1212.93,560.503L1209.91,560.503C1214.58,553.003 1216.92,545.496 1216.92,537.98C1216.92,535.043 1216.58,532.128 1215.91,529.238C1215.38,526.894 1214.64,524.644 1213.68,522.488C1213.08,521.082 1211.82,518.738 1209.91,515.457L1212.93,515.457C1215.87,519.378 1218.04,523.316 1219.45,527.269C1220.65,530.675 1221.26,534.238 1221.26,537.957C1221.26,542.175 1220.45,546.253 1218.83,550.191C1217.21,554.128 1215.25,557.566 1212.93,560.503Z" style="fill:none;"/>
                    <rect x="503.013" y="516.043" width="4.547" height="34.359" style="fill:white;fill-rule:nonzero;"/>
                    <path d="M514.028,539.363L518.317,538.988C518.521,540.707 518.993,542.117 519.735,543.218C520.478,544.32 521.63,545.21 523.192,545.89C524.755,546.57 526.513,546.91 528.466,546.91C530.2,546.91 531.731,546.652 533.06,546.136C534.388,545.621 535.376,544.914 536.024,544.015C536.673,543.117 536.997,542.136 536.997,541.074C536.997,539.996 536.685,539.054 536.06,538.25C535.435,537.445 534.403,536.769 532.966,536.222C532.044,535.863 530.005,535.304 526.849,534.546C523.692,533.789 521.481,533.074 520.216,532.402C518.575,531.543 517.353,530.476 516.548,529.203C515.743,527.929 515.341,526.503 515.341,524.925C515.341,523.191 515.833,521.57 516.817,520.062C517.802,518.554 519.239,517.41 521.13,516.628C523.021,515.847 525.122,515.457 527.435,515.457C529.981,515.457 532.228,515.867 534.173,516.687C536.118,517.507 537.614,518.714 538.661,520.308C539.708,521.902 540.271,523.707 540.349,525.722L535.989,526.05C535.755,523.878 534.962,522.238 533.61,521.128C532.259,520.019 530.263,519.464 527.622,519.464C524.872,519.464 522.868,519.968 521.61,520.976C520.353,521.984 519.724,523.199 519.724,524.621C519.724,525.855 520.169,526.871 521.06,527.668C521.935,528.464 524.22,529.281 527.915,530.117C531.61,530.953 534.146,531.683 535.521,532.308C537.521,533.23 538.997,534.398 539.95,535.812C540.903,537.226 541.38,538.855 541.38,540.699C541.38,542.527 540.856,544.25 539.81,545.867C538.763,547.484 537.259,548.742 535.298,549.64C533.337,550.539 531.13,550.988 528.677,550.988C525.567,550.988 522.962,550.535 520.86,549.628C518.759,548.722 517.11,547.359 515.915,545.539C514.72,543.718 514.091,541.66 514.028,539.363Z" style="fill:white;fill-rule:nonzero;"/>
                    <path d="M546.044,539.363L550.333,538.988C550.536,540.707 551.009,542.117 551.751,543.218C552.493,544.32 553.646,545.21 555.208,545.89C556.771,546.57 558.528,546.91 560.481,546.91C562.216,546.91 563.747,546.652 565.075,546.136C566.403,545.621 567.392,544.914 568.04,544.015C568.689,543.117 569.013,542.136 569.013,541.074C569.013,539.996 568.7,539.054 568.075,538.25C567.45,537.445 566.419,536.769 564.981,536.222C564.06,535.863 562.021,535.304 558.864,534.546C555.708,533.789 553.497,533.074 552.231,532.402C550.591,531.543 549.368,530.476 548.564,529.203C547.759,527.929 547.356,526.503 547.356,524.925C547.356,523.191 547.849,521.57 548.833,520.062C549.817,518.554 551.255,517.41 553.146,516.628C555.036,515.847 557.138,515.457 559.45,515.457C561.997,515.457 564.243,515.867 566.189,516.687C568.134,517.507 569.63,518.714 570.677,520.308C571.724,521.902 572.286,523.707 572.364,525.722L568.005,526.05C567.771,523.878 566.978,522.238 565.626,521.128C564.274,520.019 562.278,519.464 559.638,519.464C556.888,519.464 554.884,519.968 553.626,520.976C552.368,521.984 551.739,523.199 551.739,524.621C551.739,525.855 552.185,526.871 553.075,527.668C553.95,528.464 556.235,529.281 559.931,530.117C563.626,530.953 566.161,531.683 567.536,532.308C569.536,533.23 571.013,534.398 571.966,535.812C572.919,537.226 573.396,538.855 573.396,540.699C573.396,542.527 572.872,544.25 571.825,545.867C570.778,547.484 569.274,548.742 567.314,549.64C565.353,550.539 563.146,550.988 560.692,550.988C557.583,550.988 554.978,550.535 552.876,549.628C550.774,548.722 549.126,547.359 547.931,545.539C546.735,543.718 546.106,541.66 546.044,539.363Z" style="fill:white;fill-rule:nonzero;"/>
                    <path d="M600.466,560.503C598.138,557.566 596.169,554.128 594.56,550.191C592.95,546.253 592.146,542.175 592.146,537.957C592.146,534.238 592.747,530.675 593.95,527.269C595.356,523.316 597.528,519.378 600.466,515.457L603.489,515.457C601.599,518.707 600.349,521.027 599.739,522.418C598.786,524.574 598.036,526.824 597.489,529.168C596.817,532.089 596.481,535.027 596.481,537.98C596.481,545.496 598.817,553.003 603.489,560.503L600.466,560.503Z" style="fill:white;fill-rule:nonzero;"/>
                    <path d="M607.216,541.402L611.646,541.027C611.974,543.183 612.735,544.804 613.931,545.89C615.126,546.976 616.567,547.519 618.255,547.519C620.286,547.519 622.005,546.753 623.411,545.222C624.817,543.691 625.521,541.66 625.521,539.128C625.521,536.722 624.845,534.824 623.493,533.433C622.142,532.043 620.372,531.347 618.185,531.347C616.825,531.347 615.599,531.656 614.505,532.273C613.411,532.89 612.552,533.691 611.927,534.675L607.966,534.16L611.294,516.511L628.38,516.511L628.38,520.543L614.669,520.543L612.817,529.777C614.88,528.339 617.044,527.621 619.31,527.621C622.31,527.621 624.841,528.66 626.903,530.738C628.966,532.816 629.997,535.488 629.997,538.753C629.997,541.863 629.091,544.55 627.278,546.816C625.075,549.597 622.067,550.988 618.255,550.988C615.13,550.988 612.579,550.113 610.603,548.363C608.626,546.613 607.497,544.293 607.216,541.402Z" style="fill:white;fill-rule:nonzero;"/>
                    <path d="M633.911,533.457C633.911,529.394 634.329,526.125 635.165,523.648C636.001,521.171 637.243,519.261 638.892,517.918C640.54,516.574 642.614,515.902 645.114,515.902C646.958,515.902 648.575,516.273 649.966,517.015C651.356,517.757 652.505,518.828 653.411,520.226C654.317,521.625 655.028,523.328 655.544,525.335C656.06,527.343 656.317,530.05 656.317,533.457C656.317,537.488 655.903,540.742 655.075,543.218C654.247,545.695 653.009,547.609 651.36,548.96C649.712,550.312 647.63,550.988 645.114,550.988C641.802,550.988 639.2,549.8 637.31,547.425C635.044,544.566 633.911,539.91 633.911,533.457ZM638.247,533.457C638.247,539.097 638.907,542.851 640.228,544.718C641.548,546.585 643.177,547.519 645.114,547.519C647.052,547.519 648.681,546.582 650.001,544.707C651.321,542.832 651.981,539.082 651.981,533.457C651.981,527.8 651.321,524.043 650.001,522.183C648.681,520.324 647.036,519.394 645.067,519.394C643.13,519.394 641.583,520.214 640.427,521.855C638.974,523.949 638.247,527.816 638.247,533.457Z" style="fill:white;fill-rule:nonzero;"/>
                    <path d="M661.778,550.402L661.778,525.511L665.552,525.511L665.552,529.003C666.333,527.785 667.372,526.804 668.669,526.062C669.966,525.32 671.442,524.949 673.099,524.949C674.942,524.949 676.454,525.332 677.634,526.097C678.814,526.863 679.646,527.933 680.13,529.308C682.099,526.402 684.661,524.949 687.817,524.949C690.286,524.949 692.185,525.632 693.513,527C694.841,528.367 695.505,530.472 695.505,533.316L695.505,550.402L691.31,550.402L691.31,534.722C691.31,533.035 691.173,531.82 690.899,531.078C690.626,530.335 690.13,529.738 689.411,529.285C688.692,528.832 687.849,528.605 686.88,528.605C685.13,528.605 683.677,529.187 682.521,530.351C681.364,531.515 680.786,533.378 680.786,535.941L680.786,550.402L676.567,550.402L676.567,534.23C676.567,532.355 676.224,530.949 675.536,530.011C674.849,529.074 673.724,528.605 672.161,528.605C670.974,528.605 669.876,528.918 668.868,529.543C667.86,530.168 667.13,531.082 666.677,532.285C666.224,533.488 665.997,535.222 665.997,537.488L665.997,550.402L661.778,550.402Z" style="fill:white;fill-rule:nonzero;"/>
                    <path d="M701.763,550.402L701.763,525.511L705.536,525.511L705.536,529.003C706.317,527.785 707.356,526.804 708.653,526.062C709.95,525.32 711.427,524.949 713.083,524.949C714.927,524.949 716.439,525.332 717.618,526.097C718.798,526.863 719.63,527.933 720.114,529.308C722.083,526.402 724.646,524.949 727.802,524.949C730.271,524.949 732.169,525.632 733.497,527C734.825,528.367 735.489,530.472 735.489,533.316L735.489,550.402L731.294,550.402L731.294,534.722C731.294,533.035 731.157,531.82 730.884,531.078C730.61,530.335 730.114,529.738 729.396,529.285C728.677,528.832 727.833,528.605 726.864,528.605C725.114,528.605 723.661,529.187 722.505,530.351C721.349,531.515 720.771,533.378 720.771,535.941L720.771,550.402L716.552,550.402L716.552,534.23C716.552,532.355 716.208,530.949 715.521,530.011C714.833,529.074 713.708,528.605 712.146,528.605C710.958,528.605 709.86,528.918 708.853,529.543C707.845,530.168 707.114,531.082 706.661,532.285C706.208,533.488 705.981,535.222 705.981,537.488L705.981,550.402L701.763,550.402Z" style="fill:white;fill-rule:nonzero;"/>
                    <rect x="754.989" y="516.043" width="4.219" height="34.359" style="fill:white;fill-rule:nonzero;"/>
                    <path d="M782.786,542.386L787.146,542.925C786.458,545.472 785.185,547.449 783.325,548.855C781.466,550.261 779.091,550.964 776.2,550.964C772.56,550.964 769.673,549.843 767.54,547.601C765.407,545.359 764.341,542.214 764.341,538.168C764.341,533.98 765.419,530.73 767.575,528.418C769.731,526.105 772.528,524.949 775.966,524.949C779.294,524.949 782.013,526.082 784.122,528.347C786.231,530.613 787.286,533.8 787.286,537.91C787.286,538.16 787.278,538.535 787.263,539.035L768.7,539.035C768.856,541.769 769.63,543.863 771.021,545.316C772.411,546.769 774.146,547.496 776.224,547.496C777.771,547.496 779.091,547.089 780.185,546.277C781.278,545.464 782.146,544.168 782.786,542.386ZM768.935,535.566L782.833,535.566C782.646,533.472 782.114,531.902 781.239,530.855C779.896,529.23 778.153,528.418 776.013,528.418C774.075,528.418 772.446,529.066 771.126,530.363C769.806,531.66 769.075,533.394 768.935,535.566Z" style="fill:white;fill-rule:nonzero;"/>
                    <path d="M792.442,550.402L792.442,525.511L796.239,525.511L796.239,529.05C798.067,526.316 800.708,524.949 804.161,524.949C805.661,524.949 807.04,525.218 808.298,525.757C809.556,526.296 810.497,527.003 811.122,527.878C811.747,528.753 812.185,529.793 812.435,530.996C812.591,531.777 812.669,533.144 812.669,535.097L812.669,550.402L808.45,550.402L808.45,535.261C808.45,533.543 808.286,532.257 807.958,531.406C807.63,530.554 807.048,529.875 806.212,529.367C805.376,528.859 804.396,528.605 803.271,528.605C801.474,528.605 799.923,529.175 798.618,530.316C797.314,531.457 796.661,533.621 796.661,536.808L796.661,550.402L792.442,550.402Z" style="fill:white;fill-rule:nonzero;"/>
                    <path d="M817.45,542.972L821.622,542.316C821.856,543.988 822.509,545.269 823.579,546.16C824.649,547.05 826.146,547.496 828.067,547.496C830.005,547.496 831.442,547.101 832.38,546.312C833.317,545.523 833.786,544.597 833.786,543.535C833.786,542.582 833.372,541.832 832.544,541.285C831.966,540.91 830.528,540.433 828.231,539.855C825.138,539.074 822.993,538.398 821.798,537.828C820.603,537.257 819.696,536.468 819.079,535.46C818.462,534.453 818.153,533.339 818.153,532.121C818.153,531.011 818.407,529.984 818.915,529.039C819.423,528.093 820.114,527.308 820.989,526.683C821.646,526.199 822.54,525.789 823.673,525.453C824.806,525.117 826.021,524.949 827.317,524.949C829.271,524.949 830.985,525.23 832.462,525.793C833.939,526.355 835.028,527.117 835.731,528.078C836.435,529.039 836.919,530.324 837.185,531.933L833.06,532.496C832.872,531.214 832.329,530.214 831.431,529.496C830.532,528.777 829.263,528.418 827.622,528.418C825.685,528.418 824.302,528.738 823.474,529.378C822.646,530.019 822.231,530.769 822.231,531.628C822.231,532.175 822.403,532.668 822.747,533.105C823.091,533.558 823.63,533.933 824.364,534.23C824.786,534.386 826.028,534.746 828.091,535.308C831.075,536.105 833.157,536.757 834.337,537.265C835.517,537.773 836.442,538.511 837.114,539.48C837.786,540.449 838.122,541.652 838.122,543.089C838.122,544.496 837.712,545.82 836.892,547.062C836.071,548.304 834.888,549.265 833.341,549.945C831.794,550.625 830.044,550.964 828.091,550.964C824.856,550.964 822.392,550.293 820.696,548.949C819.001,547.605 817.919,545.613 817.45,542.972Z" style="fill:white;fill-rule:nonzero;"/>
                    <path d="M845.903,560.503L842.88,560.503C847.552,553.003 849.888,545.496 849.888,537.98C849.888,535.043 849.552,532.128 848.88,529.238C848.349,526.894 847.606,524.644 846.653,522.488C846.044,521.082 844.786,518.738 842.88,515.457L845.903,515.457C848.841,519.378 851.013,523.316 852.419,527.269C853.622,530.675 854.224,534.238 854.224,537.957C854.224,542.175 853.415,546.253 851.798,550.191C850.181,554.128 848.216,557.566 845.903,560.503Z" style="fill:white;fill-rule:nonzero;"/>
                    <path d="M860.294,530.316L860.294,525.511L865.099,525.511L865.099,530.316L860.294,530.316ZM860.294,550.402L860.294,545.597L865.099,545.597L865.099,550.402L860.294,550.402Z" style="fill:white;fill-rule:nonzero;"/>
                    <path d="M906.794,546.347L906.794,550.402L884.083,550.402C884.052,549.386 884.216,548.41 884.575,547.472C885.153,545.925 886.079,544.402 887.353,542.902C888.626,541.402 890.466,539.668 892.872,537.699C896.606,534.636 899.13,532.21 900.442,530.421C901.755,528.632 902.411,526.941 902.411,525.347C902.411,523.675 901.814,522.265 900.618,521.117C899.423,519.968 897.864,519.394 895.942,519.394C893.911,519.394 892.286,520.003 891.067,521.222C889.849,522.441 889.231,524.128 889.216,526.285L884.88,525.839C885.177,522.605 886.294,520.14 888.231,518.445C890.169,516.75 892.771,515.902 896.036,515.902C899.333,515.902 901.942,516.816 903.864,518.644C905.786,520.472 906.747,522.738 906.747,525.441C906.747,526.816 906.466,528.168 905.903,529.496C905.341,530.824 904.407,532.222 903.103,533.691C901.798,535.16 899.63,537.175 896.599,539.738C894.067,541.863 892.442,543.304 891.724,544.062C891.005,544.82 890.411,545.582 889.942,546.347L906.794,546.347Z" style="fill:white;fill-rule:nonzero;"/>
                    <path d="M911.317,533.457C911.317,529.394 911.735,526.125 912.571,523.648C913.407,521.171 914.649,519.261 916.298,517.918C917.946,516.574 920.021,515.902 922.521,515.902C924.364,515.902 925.981,516.273 927.372,517.015C928.763,517.757 929.911,518.828 930.817,520.226C931.724,521.625 932.435,523.328 932.95,525.335C933.466,527.343 933.724,530.05 933.724,533.457C933.724,537.488 933.31,540.742 932.481,543.218C931.653,545.695 930.415,547.609 928.767,548.96C927.118,550.312 925.036,550.988 922.521,550.988C919.208,550.988 916.606,549.8 914.716,547.425C912.45,544.566 911.317,539.91 911.317,533.457ZM915.653,533.457C915.653,539.097 916.314,542.851 917.634,544.718C918.954,546.585 920.583,547.519 922.521,547.519C924.458,547.519 926.087,546.582 927.407,544.707C928.728,542.832 929.388,539.082 929.388,533.457C929.388,527.8 928.728,524.043 927.407,522.183C926.087,520.324 924.442,519.394 922.474,519.394C920.536,519.394 918.989,520.214 917.833,521.855C916.38,523.949 915.653,527.816 915.653,533.457Z" style="fill:white;fill-rule:nonzero;"/>
                    <path d="M938.013,533.457C938.013,529.394 938.431,526.125 939.267,523.648C940.103,521.171 941.345,519.261 942.993,517.918C944.642,516.574 946.716,515.902 949.216,515.902C951.06,515.902 952.677,516.273 954.067,517.015C955.458,517.757 956.606,518.828 957.513,520.226C958.419,521.625 959.13,523.328 959.646,525.335C960.161,527.343 960.419,530.05 960.419,533.457C960.419,537.488 960.005,540.742 959.177,543.218C958.349,545.695 957.11,547.609 955.462,548.96C953.814,550.312 951.731,550.988 949.216,550.988C945.903,550.988 943.302,549.8 941.411,547.425C939.146,544.566 938.013,539.91 938.013,533.457ZM942.349,533.457C942.349,539.097 943.009,542.851 944.329,544.718C945.649,546.585 947.278,547.519 949.216,547.519C951.153,547.519 952.782,546.582 954.103,544.707C955.423,542.832 956.083,539.082 956.083,533.457C956.083,527.8 955.423,524.043 954.103,522.183C952.782,520.324 951.138,519.394 949.169,519.394C947.231,519.394 945.685,520.214 944.528,521.855C943.075,523.949 942.349,527.816 942.349,533.457Z" style="fill:white;fill-rule:nonzero;"/>
                    <path d="M964.708,533.457C964.708,529.394 965.126,526.125 965.962,523.648C966.798,521.171 968.04,519.261 969.689,517.918C971.337,516.574 973.411,515.902 975.911,515.902C977.755,515.902 979.372,516.273 980.763,517.015C982.153,517.757 983.302,518.828 984.208,520.226C985.114,521.625 985.825,523.328 986.341,525.335C986.856,527.343 987.114,530.05 987.114,533.457C987.114,537.488 986.7,540.742 985.872,543.218C985.044,545.695 983.806,547.609 982.157,548.96C980.509,550.312 978.427,550.988 975.911,550.988C972.599,550.988 969.997,549.8 968.106,547.425C965.841,544.566 964.708,539.91 964.708,533.457ZM969.044,533.457C969.044,539.097 969.704,542.851 971.024,544.718C972.345,546.585 973.974,547.519 975.911,547.519C977.849,547.519 979.478,546.582 980.798,544.707C982.118,542.832 982.778,539.082 982.778,533.457C982.778,527.8 982.118,524.043 980.798,522.183C979.478,520.324 977.833,519.394 975.864,519.394C973.927,519.394 972.38,520.214 971.224,521.855C969.771,523.949 969.044,527.816 969.044,533.457Z" style="fill:white;fill-rule:nonzero;"/>
                    <path d="M1005.94,550.402L1005.94,516.043L1010.15,516.043L1010.15,535.636L1020.14,525.511L1025.6,525.511L1016.08,534.746L1026.56,550.402L1021.36,550.402L1013.13,537.675L1010.15,540.535L1010.15,550.402L1005.94,550.402Z" style="fill:white;fill-rule:nonzero;"/>
                    <path d="M1029.91,550.402L1029.91,525.511L1033.68,525.511L1033.68,529.003C1034.47,527.785 1035.51,526.804 1036.8,526.062C1038.1,525.32 1039.58,524.949 1041.23,524.949C1043.08,524.949 1044.59,525.332 1045.77,526.097C1046.95,526.863 1047.78,527.933 1048.26,529.308C1050.23,526.402 1052.79,524.949 1055.95,524.949C1058.42,524.949 1060.32,525.632 1061.65,527C1062.97,528.367 1063.64,530.472 1063.64,533.316L1063.64,550.402L1059.44,550.402L1059.44,534.722C1059.44,533.035 1059.31,531.82 1059.03,531.078C1058.76,530.335 1058.26,529.738 1057.54,529.285C1056.83,528.832 1055.98,528.605 1055.01,528.605C1053.26,528.605 1051.81,529.187 1050.65,530.351C1049.5,531.515 1048.92,533.378 1048.92,535.941L1048.92,550.402L1044.7,550.402L1044.7,534.23C1044.7,532.355 1044.36,530.949 1043.67,530.011C1042.98,529.074 1041.86,528.605 1040.29,528.605C1039.11,528.605 1038.01,528.918 1037,529.543C1035.99,530.168 1035.26,531.082 1034.81,532.285C1034.36,533.488 1034.13,535.222 1034.13,537.488L1034.13,550.402L1029.91,550.402Z" style="fill:white;fill-rule:nonzero;"/>
                    <path d="M1091.29,560.503C1088.97,557.566 1087,554.128 1085.39,550.191C1083.78,546.253 1082.97,542.175 1082.97,537.957C1082.97,534.238 1083.58,530.675 1084.78,527.269C1086.18,523.316 1088.36,519.378 1091.29,515.457L1094.32,515.457C1092.43,518.707 1091.18,521.027 1090.57,522.418C1089.61,524.574 1088.86,526.824 1088.32,529.168C1087.65,532.089 1087.31,535.027 1087.31,537.98C1087.31,545.496 1089.65,553.003 1094.32,560.503L1091.29,560.503Z" style="fill:white;fill-rule:nonzero;"/>
                    <path d="M1113.93,550.402L1109.72,550.402L1109.72,523.519C1108.7,524.488 1107.37,525.457 1105.72,526.425C1104.07,527.394 1102.59,528.121 1101.28,528.605L1101.28,524.527C1103.64,523.418 1105.7,522.074 1107.47,520.496C1109.23,518.918 1110.48,517.386 1111.22,515.902L1113.93,515.902L1113.93,550.402Z" style="fill:white;fill-rule:nonzero;"/>
                    <path d="M1125.02,520.543L1125.02,516.488L1147.26,516.488L1147.26,519.769C1145.08,522.097 1142.91,525.191 1140.76,529.05C1138.61,532.91 1136.95,536.878 1135.78,540.957C1134.93,543.832 1134.4,546.98 1134.16,550.402L1129.83,550.402C1129.87,547.699 1130.4,544.433 1131.42,540.605C1132.43,536.777 1133.89,533.085 1135.79,529.531C1137.69,525.976 1139.71,522.98 1141.85,520.543L1125.02,520.543Z" style="fill:white;fill-rule:nonzero;"/>
                    <rect x="1153.8" y="545.597" width="4.805" height="4.805" style="fill:white;fill-rule:nonzero;"/>
                    <path d="M1165.4,542.457L1169.46,542.082C1169.8,543.988 1170.46,545.371 1171.43,546.23C1172.4,547.089 1173.64,547.519 1175.15,547.519C1176.45,547.519 1177.59,547.222 1178.56,546.628C1179.54,546.035 1180.34,545.242 1180.97,544.25C1181.59,543.257 1182.11,541.918 1182.54,540.23C1182.96,538.543 1183.17,536.824 1183.17,535.074C1183.17,534.886 1183.16,534.605 1183.15,534.23C1182.3,535.574 1181.15,536.664 1179.69,537.5C1178.23,538.335 1176.65,538.753 1174.94,538.753C1172.1,538.753 1169.69,537.722 1167.72,535.66C1165.76,533.597 1164.77,530.878 1164.77,527.503C1164.77,524.019 1165.8,521.214 1167.85,519.089C1169.91,516.964 1172.48,515.902 1175.58,515.902C1177.81,515.902 1179.85,516.503 1181.7,517.707C1183.56,518.91 1184.96,520.625 1185.92,522.851C1186.88,525.078 1187.36,528.3 1187.36,532.519C1187.36,536.91 1186.89,540.406 1185.93,543.007C1184.98,545.609 1183.56,547.589 1181.68,548.949C1179.8,550.308 1177.59,550.988 1175.06,550.988C1172.37,550.988 1170.18,550.242 1168.47,548.75C1166.77,547.257 1165.75,545.16 1165.4,542.457ZM1182.68,527.293C1182.68,524.871 1182.03,522.949 1180.74,521.527C1179.45,520.105 1177.9,519.394 1176.09,519.394C1174.22,519.394 1172.58,520.16 1171.19,521.691C1169.8,523.222 1169.11,525.207 1169.11,527.644C1169.11,529.832 1169.77,531.609 1171.09,532.976C1172.41,534.343 1174.04,535.027 1175.97,535.027C1177.93,535.027 1179.53,534.343 1180.79,532.976C1182.05,531.609 1182.68,529.714 1182.68,527.293Z" style="fill:white;fill-rule:nonzero;"/>
                    <path d="M1198.22,515.457C1200.48,515.457 1202.33,516.238 1203.76,517.8C1205.19,519.363 1205.9,521.519 1205.9,524.269C1205.9,527.003 1205.18,529.152 1203.75,530.714C1202.31,532.277 1200.47,533.058 1198.24,533.058C1195.97,533.058 1194.12,532.293 1192.68,530.761C1191.25,529.23 1190.53,527.097 1190.53,524.363C1190.53,521.55 1191.24,519.363 1192.67,517.8C1194.1,516.238 1195.95,515.457 1198.22,515.457ZM1198.22,518.574C1196.95,518.574 1195.93,519.019 1195.16,519.91C1194.38,520.8 1194,522.253 1194,524.269C1194,526.238 1194.39,527.679 1195.18,528.593C1195.97,529.507 1196.98,529.964 1198.22,529.964C1199.47,529.964 1200.48,529.507 1201.26,528.593C1202.04,527.679 1202.43,526.199 1202.43,524.152C1202.43,522.246 1202.04,520.839 1201.25,519.933C1200.46,519.027 1199.45,518.574 1198.22,518.574Z" style="fill:white;fill-rule:nonzero;"/>
                    <path d="M1212.93,560.503L1209.91,560.503C1214.58,553.003 1216.92,545.496 1216.92,537.98C1216.92,535.043 1216.58,532.128 1215.91,529.238C1215.38,526.894 1214.64,524.644 1213.68,522.488C1213.08,521.082 1211.82,518.738 1209.91,515.457L1212.93,515.457C1215.87,519.378 1218.04,523.316 1219.45,527.269C1220.65,530.675 1221.26,534.238 1221.26,537.957C1221.26,542.175 1220.45,546.253 1218.83,550.191C1217.21,554.128 1215.25,557.566 1212.93,560.503Z" style="fill:white;fill-rule:nonzero;"/>
                </g>
            </g>
        </g>
    </g>
    <g id="ISS-.28.400km.29.1" transform="matrix(4.92093e-16,-8.03649,12.8623,7.87589e-16,-3894.73,6402.92)">
        <clipPath id="_clip3">
            <rect x="780.817" y="197.067" width="13.688" height="310.986"/>
        </clipPath>
        <g clip-path="url(#_clip3)">
            <path d="M782.332,400.595C790.397,385.081 794.504,368.871 794.504,352.56C794.504,336.249 790.397,320.039 782.332,304.525L545.639,352.56L782.332,400.595Z" style="fill:rgb(22,45,85);"/>
        </g>
    </g>
    <g transform="matrix(1,-1.10934e-31,1.2326e-32,1,-223.135,-444.783)">
        <rect x="503.013" y="516.043" width="4.547" height="34.359" style="fill:none;"/>
        <path d="M514.028,539.363L518.317,538.988C518.521,540.707 518.993,542.117 519.735,543.218C520.478,544.32 521.63,545.21 523.192,545.89C524.755,546.57 526.513,546.91 528.466,546.91C530.2,546.91 531.731,546.652 533.06,546.136C534.388,545.621 535.376,544.914 536.024,544.015C536.673,543.117 536.997,542.136 536.997,541.074C536.997,539.996 536.685,539.054 536.06,538.25C535.435,537.445 534.403,536.769 532.966,536.222C532.044,535.863 530.005,535.304 526.849,534.546C523.692,533.789 521.481,533.074 520.216,532.402C518.575,531.543 517.353,530.476 516.548,529.203C515.743,527.929 515.341,526.503 515.341,524.925C515.341,523.191 515.833,521.57 516.817,520.062C517.802,518.554 519.239,517.41 521.13,516.628C523.021,515.847 525.122,515.457 527.435,515.457C529.981,515.457 532.228,515.867 534.173,516.687C536.118,517.507 537.614,518.714 538.661,520.308C539.708,521.902 540.271,523.707 540.349,525.722L535.989,526.05C535.755,523.878 534.962,522.238 533.61,521.128C532.259,520.019 530.263,519.464 527.622,519.464C524.872,519.464 522.868,519.968 521.61,520.976C520.353,521.984 519.724,523.199 519.724,524.621C519.724,525.855 520.169,526.871 521.06,527.668C521.935,528.464 524.22,529.281 527.915,530.117C531.61,530.953 534.146,531.683 535.521,532.308C537.521,533.23 538.997,534.398 539.95,535.812C540.903,537.226 541.38,538.855 541.38,540.699C541.38,542.527 540.856,544.25 539.81,545.867C538.763,547.484 537.259,548.742 535.298,549.64C533.337,550.539 531.13,550.988 528.677,550.988C525.567,550.988 522.962,550.535 520.86,549.628C518.759,548.722 517.11,547.359 515.915,545.539C514.72,543.718 514.091,541.66 514.028,539.363Z" style="fill:none;"/>
        <path d="M546.044,539.363L550.333,538.988C550.536,540.707 551.009,542.117 551.751,543.218C552.493,544.32 553.646,545.21 555.208,545.89C556.771,546.57 558.528,546.91 560.481,546.91C562.216,546.91 563.747,546.652 565.075,546.136C566.403,545.621 567.392,544.914 568.04,544.015C568.689,543.117 569.013,542.136 569.013,541.074C569.013,539.996 568.7,539.054 568.075,538.25C567.45,537.445 566.419,536.769 564.981,536.222C564.06,535.863 562.021,535.304 558.864,534.546C555.708,533.789 553.497,533.074 552.231,532.402C550.591,531.543 549.368,530.476 548.564,529.203C547.759,527.929 547.356,526.503 547.356,524.925C547.356,523.191 547.849,521.57 548.833,520.062C549.817,518.554 551.255,517.41 553.146,516.628C555.036,515.847 557.138,515.457 559.45,515.457C561.997,515.457 564.243,515.867 566.189,516.687C568.134,517.507 569.63,518.714 570.677,520.308C571.724,521.902 572.286,523.707 572.364,525.722L568.005,526.05C567.771,523.878 566.978,522.238 565.626,521.128C564.274,520.019 562.278,519.464 559.638,519.464C556.888,519.464 554.884,519.968 553.626,520.976C552.368,521.984 551.739,523.199 551.739,524.621C551.739,525.855 552.185,526.871 553.075,527.668C553.95,528.464 556.235,529.281 559.931,530.117C563.626,530.953 566.161,531.683 567.536,532.308C569.536,533.23 571.013,534.398 571.966,535.812C572.919,537.226 573.396,538.855 573.396,540.699C573.396,542.527 572.872,544.25 571.825,545.867C570.778,547.484 569.274,548.742 567.314,549.64C565.353,550.539 563.146,550.988 560.692,550.988C557.583,550.988 554.978,550.535 552.876,549.628C550.774,548.722 549.126,547.359 547.931,545.539C546.735,543.718 546.106,541.66 546.044,539.363Z" style="fill:none;"/>
        <path d="M600.466,560.503C598.138,557.566 596.169,554.128 594.56,550.191C592.95,546.253 592.146,542.175 592.146,537.957C592.146,534.238 592.747,530.675 593.95,527.269C595.356,523.316 597.528,519.378 600.466,515.457L603.489,515.457C601.599,518.707 600.349,521.027 599.739,522.418C598.786,524.574 598.036,526.824 597.489,529.168C596.817,532.089 596.481,535.027 596.481,537.98C596.481,545.496 598.817,553.003 603.489,560.503L600.466,560.503Z" style="fill:none;"/>
        <path d="M623.106,550.402L618.888,550.402L618.888,523.519C617.872,524.488 616.54,525.457 614.892,526.425C613.243,527.394 611.763,528.121 610.45,528.605L610.45,524.527C612.81,523.418 614.872,522.074 616.638,520.496C618.403,518.918 619.653,517.386 620.388,515.902L623.106,515.902L623.106,550.402Z" style="fill:none;"/>
        <path d="M633.911,541.402L638.341,541.027C638.669,543.183 639.431,544.804 640.626,545.89C641.821,546.976 643.263,547.519 644.95,547.519C646.981,547.519 648.7,546.753 650.106,545.222C651.513,543.691 652.216,541.66 652.216,539.128C652.216,536.722 651.54,534.824 650.189,533.433C648.837,532.043 647.067,531.347 644.88,531.347C643.521,531.347 642.294,531.656 641.2,532.273C640.106,532.89 639.247,533.691 638.622,534.675L634.661,534.16L637.989,516.511L655.075,516.511L655.075,520.543L641.364,520.543L639.513,529.777C641.575,528.339 643.739,527.621 646.005,527.621C649.005,527.621 651.536,528.66 653.599,530.738C655.661,532.816 656.692,535.488 656.692,538.753C656.692,541.863 655.786,544.55 653.974,546.816C651.771,549.597 648.763,550.988 644.95,550.988C641.825,550.988 639.274,550.113 637.298,548.363C635.321,546.613 634.192,544.293 633.911,541.402Z" style="fill:none;"/>
        <path d="M661.778,550.402L661.778,525.511L665.552,525.511L665.552,529.003C666.333,527.785 667.372,526.804 668.669,526.062C669.966,525.32 671.442,524.949 673.099,524.949C674.942,524.949 676.454,525.332 677.634,526.097C678.814,526.863 679.646,527.933 680.13,529.308C682.099,526.402 684.661,524.949 687.817,524.949C690.286,524.949 692.185,525.632 693.513,527C694.841,528.367 695.505,530.472 695.505,533.316L695.505,550.402L691.31,550.402L691.31,534.722C691.31,533.035 691.173,531.82 690.899,531.078C690.626,530.335 690.13,529.738 689.411,529.285C688.692,528.832 687.849,528.605 686.88,528.605C685.13,528.605 683.677,529.187 682.521,530.351C681.364,531.515 680.786,533.378 680.786,535.941L680.786,550.402L676.567,550.402L676.567,534.23C676.567,532.355 676.224,530.949 675.536,530.011C674.849,529.074 673.724,528.605 672.161,528.605C670.974,528.605 669.876,528.918 668.868,529.543C667.86,530.168 667.13,531.082 666.677,532.285C666.224,533.488 665.997,535.222 665.997,537.488L665.997,550.402L661.778,550.402Z" style="fill:none;"/>
        <path d="M701.763,550.402L701.763,525.511L705.536,525.511L705.536,529.003C706.317,527.785 707.356,526.804 708.653,526.062C709.95,525.32 711.427,524.949 713.083,524.949C714.927,524.949 716.439,525.332 717.618,526.097C718.798,526.863 719.63,527.933 720.114,529.308C722.083,526.402 724.646,524.949 727.802,524.949C730.271,524.949 732.169,525.632 733.497,527C734.825,528.367 735.489,530.472 735.489,533.316L735.489,550.402L731.294,550.402L731.294,534.722C731.294,533.035 731.157,531.82 730.884,531.078C730.61,530.335 730.114,529.738 729.396,529.285C728.677,528.832 727.833,528.605 726.864,528.605C725.114,528.605 723.661,529.187 722.505,530.351C721.349,531.515 720.771,533.378 720.771,535.941L720.771,550.402L716.552,550.402L716.552,534.23C716.552,532.355 716.208,530.949 715.521,530.011C714.833,529.074 713.708,528.605 712.146,528.605C710.958,528.605 709.86,528.918 708.853,529.543C707.845,530.168 707.114,531.082 706.661,532.285C706.208,533.488 705.981,535.222 705.981,537.488L705.981,550.402L701.763,550.402Z" style="fill:none;"/>
        <rect x="754.989" y="516.043" width="4.219" height="34.359" style="fill:none;"/>
        <path d="M782.786,542.386L787.146,542.925C786.458,545.472 785.185,547.449 783.325,548.855C781.466,550.261 779.091,550.964 776.2,550.964C772.56,550.964 769.673,549.843 767.54,547.601C765.407,545.359 764.341,542.214 764.341,538.168C764.341,533.98 765.419,530.73 767.575,528.418C769.731,526.105 772.528,524.949 775.966,524.949C779.294,524.949 782.013,526.082 784.122,528.347C786.231,530.613 787.286,533.8 787.286,537.91C787.286,538.16 787.278,538.535 787.263,539.035L768.7,539.035C768.856,541.769 769.63,543.863 771.021,545.316C772.411,546.769 774.146,547.496 776.224,547.496C777.771,547.496 779.091,547.089 780.185,546.277C781.278,545.464 782.146,544.168 782.786,542.386ZM768.935,535.566L782.833,535.566C782.646,533.472 782.114,531.902 781.239,530.855C779.896,529.23 778.153,528.418 776.013,528.418C774.075,528.418 772.446,529.066 771.126,530.363C769.806,531.66 769.075,533.394 768.935,535.566Z" style="fill:none;"/>
        <path d="M792.442,550.402L792.442,525.511L796.239,525.511L796.239,529.05C798.067,526.316 800.708,524.949 804.161,524.949C805.661,524.949 807.04,525.218 808.298,525.757C809.556,526.296 810.497,527.003 811.122,527.878C811.747,528.753 812.185,529.793 812.435,530.996C812.591,531.777 812.669,533.144 812.669,535.097L812.669,550.402L808.45,550.402L808.45,535.261C808.45,533.543 808.286,532.257 807.958,531.406C807.63,530.554 807.048,529.875 806.212,529.367C805.376,528.859 804.396,528.605 803.271,528.605C801.474,528.605 799.923,529.175 798.618,530.316C797.314,531.457 796.661,533.621 796.661,536.808L796.661,550.402L792.442,550.402Z" style="fill:none;"/>
        <path d="M817.45,542.972L821.622,542.316C821.856,543.988 822.509,545.269 823.579,546.16C824.649,547.05 826.146,547.496 828.067,547.496C830.005,547.496 831.442,547.101 832.38,546.312C833.317,545.523 833.786,544.597 833.786,543.535C833.786,542.582 833.372,541.832 832.544,541.285C831.966,540.91 830.528,540.433 828.231,539.855C825.138,539.074 822.993,538.398 821.798,537.828C820.603,537.257 819.696,536.468 819.079,535.46C818.462,534.453 818.153,533.339 818.153,532.121C818.153,531.011 818.407,529.984 818.915,529.039C819.423,528.093 820.114,527.308 820.989,526.683C821.646,526.199 822.54,525.789 823.673,525.453C824.806,525.117 826.021,524.949 827.317,524.949C829.271,524.949 830.985,525.23 832.462,525.793C833.939,526.355 835.028,527.117 835.731,528.078C836.435,529.039 836.919,530.324 837.185,531.933L833.06,532.496C832.872,531.214 832.329,530.214 831.431,529.496C830.532,528.777 829.263,528.418 827.622,528.418C825.685,528.418 824.302,528.738 823.474,529.378C822.646,530.019 822.231,530.769 822.231,531.628C822.231,532.175 822.403,532.668 822.747,533.105C823.091,533.558 823.63,533.933 824.364,534.23C824.786,534.386 826.028,534.746 828.091,535.308C831.075,536.105 833.157,536.757 834.337,537.265C835.517,537.773 836.442,538.511 837.114,539.48C837.786,540.449 838.122,541.652 838.122,543.089C838.122,544.496 837.712,545.82 836.892,547.062C836.071,548.304 834.888,549.265 833.341,549.945C831.794,550.625 830.044,550.964 828.091,550.964C824.856,550.964 822.392,550.293 820.696,548.949C819.001,547.605 817.919,545.613 817.45,542.972Z" style="fill:none;"/>
        <path d="M845.903,560.503L842.88,560.503C847.552,553.003 849.888,545.496 849.888,537.98C849.888,535.043 849.552,532.128 848.88,529.238C848.349,526.894 847.606,524.644 846.653,522.488C846.044,521.082 844.786,518.738 842.88,515.457L845.903,515.457C848.841,519.378 851.013,523.316 852.419,527.269C853.622,530.675 854.224,534.238 854.224,537.957C854.224,542.175 853.415,546.253 851.798,550.191C850.181,554.128 848.216,557.566 845.903,560.503Z" style="fill:none;"/>
        <path d="M860.294,530.316L860.294,525.511L865.099,525.511L865.099,530.316L860.294,530.316ZM860.294,550.402L860.294,545.597L865.099,545.597L865.099,550.402L860.294,550.402Z" style="fill:none;"/>
        <path d="M898.146,550.402L898.146,542.175L883.239,542.175L883.239,538.308L898.919,516.043L902.364,516.043L902.364,538.308L907.005,538.308L907.005,542.175L902.364,542.175L902.364,550.402L898.146,550.402ZM898.146,538.308L898.146,522.816L887.388,538.308L898.146,538.308Z" style="fill:none;"/>
        <path d="M911.317,533.457C911.317,529.394 911.735,526.125 912.571,523.648C913.407,521.171 914.649,519.261 916.298,517.918C917.946,516.574 920.021,515.902 922.521,515.902C924.364,515.902 925.981,516.273 927.372,517.015C928.763,517.757 929.911,518.828 930.817,520.226C931.724,521.625 932.435,523.328 932.95,525.335C933.466,527.343 933.724,530.05 933.724,533.457C933.724,537.488 933.31,540.742 932.481,543.218C931.653,545.695 930.415,547.609 928.767,548.96C927.118,550.312 925.036,550.988 922.521,550.988C919.208,550.988 916.606,549.8 914.716,547.425C912.45,544.566 911.317,539.91 911.317,533.457ZM915.653,533.457C915.653,539.097 916.314,542.851 917.634,544.718C918.954,546.585 920.583,547.519 922.521,547.519C924.458,547.519 926.087,546.582 927.407,544.707C928.728,542.832 929.388,539.082 929.388,533.457C929.388,527.8 928.728,524.043 927.407,522.183C926.087,520.324 924.442,519.394 922.474,519.394C920.536,519.394 918.989,520.214 917.833,521.855C916.38,523.949 915.653,527.816 915.653,533.457Z" style="fill:none;"/>
        <path d="M938.013,533.457C938.013,529.394 938.431,526.125 939.267,523.648C940.103,521.171 941.345,519.261 942.993,517.918C944.642,516.574 946.716,515.902 949.216,515.902C951.06,515.902 952.677,516.273 954.067,517.015C955.458,517.757 956.606,518.828 957.513,520.226C958.419,521.625 959.13,523.328 959.646,525.335C960.161,527.343 960.419,530.05 960.419,533.457C960.419,537.488 960.005,540.742 959.177,543.218C958.349,545.695 957.11,547.609 955.462,548.96C953.814,550.312 951.731,550.988 949.216,550.988C945.903,550.988 943.302,549.8 941.411,547.425C939.146,544.566 938.013,539.91 938.013,533.457ZM942.349,533.457C942.349,539.097 943.009,542.851 944.329,544.718C945.649,546.585 947.278,547.519 949.216,547.519C951.153,547.519 952.782,546.582 954.103,544.707C955.423,542.832 956.083,539.082 956.083,533.457C956.083,527.8 955.423,524.043 954.103,522.183C952.782,520.324 951.138,519.394 949.169,519.394C947.231,519.394 945.685,520.214 944.528,521.855C943.075,523.949 942.349,527.816 942.349,533.457Z" style="fill:none;"/>
        <path d="M964.708,533.457C964.708,529.394 965.126,526.125 965.962,523.648C966.798,521.171 968.04,519.261 969.689,517.918C971.337,516.574 973.411,515.902 975.911,515.902C977.755,515.902 979.372,516.273 980.763,517.015C982.153,517.757 983.302,518.828 984.208,520.226C985.114,521.625 985.825,523.328 986.341,525.335C986.856,527.343 987.114,530.05 987.114,533.457C987.114,537.488 986.7,540.742 985.872,543.218C985.044,545.695 983.806,547.609 982.157,548.96C980.509,550.312 978.427,550.988 975.911,550.988C972.599,550.988 969.997,549.8 968.106,547.425C965.841,544.566 964.708,539.91 964.708,533.457ZM969.044,533.457C969.044,539.097 969.704,542.851 971.024,544.718C972.345,546.585 973.974,547.519 975.911,547.519C977.849,547.519 979.478,546.582 980.798,544.707C982.118,542.832 982.778,539.082 982.778,533.457C982.778,527.8 982.118,524.043 980.798,522.183C979.478,520.324 977.833,519.394 975.864,519.394C973.927,519.394 972.38,520.214 971.224,521.855C969.771,523.949 969.044,527.816 969.044,533.457Z" style="fill:none;"/>
        <path d="M1005.94,550.402L1005.94,516.043L1010.15,516.043L1010.15,535.636L1020.14,525.511L1025.6,525.511L1016.08,534.746L1026.56,550.402L1021.36,550.402L1013.13,537.675L1010.15,540.535L1010.15,550.402L1005.94,550.402Z" style="fill:none;"/>
        <path d="M1029.91,550.402L1029.91,525.511L1033.68,525.511L1033.68,529.003C1034.47,527.785 1035.51,526.804 1036.8,526.062C1038.1,525.32 1039.58,524.949 1041.23,524.949C1043.08,524.949 1044.59,525.332 1045.77,526.097C1046.95,526.863 1047.78,527.933 1048.26,529.308C1050.23,526.402 1052.79,524.949 1055.95,524.949C1058.42,524.949 1060.32,525.632 1061.65,527C1062.97,528.367 1063.64,530.472 1063.64,533.316L1063.64,550.402L1059.44,550.402L1059.44,534.722C1059.44,533.035 1059.31,531.82 1059.03,531.078C1058.76,530.335 1058.26,529.738 1057.54,529.285C1056.83,528.832 1055.98,528.605 1055.01,528.605C1053.26,528.605 1051.81,529.187 1050.65,530.351C1049.5,531.515 1048.92,533.378 1048.92,535.941L1048.92,550.402L1044.7,550.402L1044.7,534.23C1044.7,532.355 1044.36,530.949 1043.67,530.011C1042.98,529.074 1041.86,528.605 1040.29,528.605C1039.11,528.605 1038.01,528.918 1037,529.543C1035.99,530.168 1035.26,531.082 1034.81,532.285C1034.36,533.488 1034.13,535.222 1034.13,537.488L1034.13,550.402L1029.91,550.402Z" style="fill:none;"/>
        <path d="M1091.29,560.503C1088.97,557.566 1087,554.128 1085.39,550.191C1083.78,546.253 1082.97,542.175 1082.97,537.957C1082.97,534.238 1083.58,530.675 1084.78,527.269C1086.18,523.316 1088.36,519.378 1091.29,515.457L1094.32,515.457C1092.43,518.707 1091.18,521.027 1090.57,522.418C1089.61,524.574 1088.86,526.824 1088.32,529.168C1087.65,532.089 1087.31,535.027 1087.31,537.98C1087.31,545.496 1089.65,553.003 1094.32,560.503L1091.29,560.503Z" style="fill:none;"/>
        <path d="M1098.07,541.332L1102.29,540.769C1102.77,543.16 1103.6,544.882 1104.76,545.937C1105.92,546.992 1107.34,547.519 1109.01,547.519C1111,547.519 1112.67,546.832 1114.04,545.457C1115.41,544.082 1116.09,542.378 1116.09,540.347C1116.09,538.41 1115.46,536.812 1114.19,535.554C1112.93,534.296 1111.32,533.668 1109.36,533.668C1108.57,533.668 1107.58,533.824 1106.39,534.136L1106.86,530.433C1107.14,530.464 1107.36,530.48 1107.54,530.48C1109.33,530.48 1110.95,530.011 1112.39,529.074C1113.83,528.136 1114.54,526.691 1114.54,524.738C1114.54,523.191 1114.02,521.91 1112.97,520.894C1111.93,519.878 1110.58,519.371 1108.92,519.371C1107.28,519.371 1105.91,519.886 1104.82,520.918C1103.72,521.949 1103.02,523.496 1102.71,525.558L1098.49,524.808C1099.01,521.98 1100.18,519.789 1102.01,518.234C1103.83,516.679 1106.11,515.902 1108.83,515.902C1110.7,515.902 1112.43,516.304 1114.01,517.109C1115.58,517.914 1116.79,519.011 1117.63,520.402C1118.46,521.793 1118.88,523.269 1118.88,524.832C1118.88,526.316 1118.48,527.668 1117.68,528.886C1116.89,530.105 1115.71,531.074 1114.15,531.793C1116.18,532.261 1117.76,533.234 1118.88,534.71C1120.01,536.187 1120.57,538.035 1120.57,540.253C1120.57,543.253 1119.47,545.796 1117.29,547.882C1115.1,549.968 1112.33,551.011 1108.99,551.011C1105.97,551.011 1103.47,550.113 1101.48,548.316C1099.49,546.519 1098.35,544.191 1098.07,541.332Z" style="fill:none;"/>
        <path d="M1124.74,541.402L1129.17,541.027C1129.5,543.183 1130.26,544.804 1131.45,545.89C1132.65,546.976 1134.09,547.519 1135.78,547.519C1137.81,547.519 1139.53,546.753 1140.93,545.222C1142.34,543.691 1143.04,541.66 1143.04,539.128C1143.04,536.722 1142.37,534.824 1141.02,533.433C1139.66,532.043 1137.9,531.347 1135.71,531.347C1134.35,531.347 1133.12,531.656 1132.03,532.273C1130.93,532.89 1130.08,533.691 1129.45,534.675L1125.49,534.16L1128.82,516.511L1145.9,516.511L1145.9,520.543L1132.19,520.543L1130.34,529.777C1132.4,528.339 1134.57,527.621 1136.83,527.621C1139.83,527.621 1142.36,528.66 1144.43,530.738C1146.49,532.816 1147.52,535.488 1147.52,538.753C1147.52,541.863 1146.61,544.55 1144.8,546.816C1142.6,549.597 1139.59,550.988 1135.78,550.988C1132.65,550.988 1130.1,550.113 1128.13,548.363C1126.15,546.613 1125.02,544.293 1124.74,541.402Z" style="fill:none;"/>
        <rect x="1153.8" y="545.597" width="4.805" height="4.805" style="fill:none;"/>
        <path d="M1165.4,542.457L1169.46,542.082C1169.8,543.988 1170.46,545.371 1171.43,546.23C1172.4,547.089 1173.64,547.519 1175.15,547.519C1176.45,547.519 1177.59,547.222 1178.56,546.628C1179.54,546.035 1180.34,545.242 1180.97,544.25C1181.59,543.257 1182.11,541.918 1182.54,540.23C1182.96,538.543 1183.17,536.824 1183.17,535.074C1183.17,534.886 1183.16,534.605 1183.15,534.23C1182.3,535.574 1181.15,536.664 1179.69,537.5C1178.23,538.335 1176.65,538.753 1174.94,538.753C1172.1,538.753 1169.69,537.722 1167.72,535.66C1165.76,533.597 1164.77,530.878 1164.77,527.503C1164.77,524.019 1165.8,521.214 1167.85,519.089C1169.91,516.964 1172.48,515.902 1175.58,515.902C1177.81,515.902 1179.85,516.503 1181.7,517.707C1183.56,518.91 1184.96,520.625 1185.92,522.851C1186.88,525.078 1187.36,528.3 1187.36,532.519C1187.36,536.91 1186.89,540.406 1185.93,543.007C1184.98,545.609 1183.56,547.589 1181.68,548.949C1179.8,550.308 1177.59,550.988 1175.06,550.988C1172.37,550.988 1170.18,550.242 1168.47,548.75C1166.77,547.257 1165.75,545.16 1165.4,542.457ZM1182.68,527.293C1182.68,524.871 1182.03,522.949 1180.74,521.527C1179.45,520.105 1177.9,519.394 1176.09,519.394C1174.22,519.394 1172.58,520.16 1171.19,521.691C1169.8,523.222 1169.11,525.207 1169.11,527.644C1169.11,529.832 1169.77,531.609 1171.09,532.976C1172.41,534.343 1174.04,535.027 1175.97,535.027C1177.93,535.027 1179.53,534.343 1180.79,532.976C1182.05,531.609 1182.68,529.714 1182.68,527.293Z" style="fill:none;"/>
        <path d="M1198.22,515.457C1200.48,515.457 1202.33,516.238 1203.76,517.8C1205.19,519.363 1205.9,521.519 1205.9,524.269C1205.9,527.003 1205.18,529.152 1203.75,530.714C1202.31,532.277 1200.47,533.058 1198.24,533.058C1195.97,533.058 1194.12,532.293 1192.68,530.761C1191.25,529.23 1190.53,527.097 1190.53,524.363C1190.53,521.55 1191.24,519.363 1192.67,517.8C1194.1,516.238 1195.95,515.457 1198.22,515.457ZM1198.22,518.574C1196.95,518.574 1195.93,519.019 1195.16,519.91C1194.38,520.8 1194,522.253 1194,524.269C1194,526.238 1194.39,527.679 1195.18,528.593C1195.97,529.507 1196.98,529.964 1198.22,529.964C1199.47,529.964 1200.48,529.507 1201.26,528.593C1202.04,527.679 1202.43,526.199 1202.43,524.152C1202.43,522.246 1202.04,520.839 1201.25,519.933C1200.46,519.027 1199.45,518.574 1198.22,518.574Z" style="fill:none;"/>
        <path d="M1212.93,560.503L1209.91,560.503C1214.58,553.003 1216.92,545.496 1216.92,537.98C1216.92,535.043 1216.58,532.128 1215.91,529.238C1215.38,526.894 1214.64,524.644 1213.68,522.488C1213.08,521.082 1211.82,518.738 1209.91,515.457L1212.93,515.457C1215.87,519.378 1218.04,523.316 1219.45,527.269C1220.65,530.675 1221.26,534.238 1221.26,537.957C1221.26,542.175 1220.45,546.253 1218.83,550.191C1217.21,554.128 1215.25,557.566 1212.93,560.503Z" style="fill:none;"/>
        <rect x="503.013" y="516.043" width="4.547" height="34.359" style="fill:white;fill-rule:nonzero;"/>
        <path d="M514.028,539.363L518.317,538.988C518.521,540.707 518.993,542.117 519.735,543.218C520.478,544.32 521.63,545.21 523.192,545.89C524.755,546.57 526.513,546.91 528.466,546.91C530.2,546.91 531.731,546.652 533.06,546.136C534.388,545.621 535.376,544.914 536.024,544.015C536.673,543.117 536.997,542.136 536.997,541.074C536.997,539.996 536.685,539.054 536.06,538.25C535.435,537.445 534.403,536.769 532.966,536.222C532.044,535.863 530.005,535.304 526.849,534.546C523.692,533.789 521.481,533.074 520.216,532.402C518.575,531.543 517.353,530.476 516.548,529.203C515.743,527.929 515.341,526.503 515.341,524.925C515.341,523.191 515.833,521.57 516.817,520.062C517.802,518.554 519.239,517.41 521.13,516.628C523.021,515.847 525.122,515.457 527.435,515.457C529.981,515.457 532.228,515.867 534.173,516.687C536.118,517.507 537.614,518.714 538.661,520.308C539.708,521.902 540.271,523.707 540.349,525.722L535.989,526.05C535.755,523.878 534.962,522.238 533.61,521.128C532.259,520.019 530.263,519.464 527.622,519.464C524.872,519.464 522.868,519.968 521.61,520.976C520.353,521.984 519.724,523.199 519.724,524.621C519.724,525.855 520.169,526.871 521.06,527.668C521.935,528.464 524.22,529.281 527.915,530.117C531.61,530.953 534.146,531.683 535.521,532.308C537.521,533.23 538.997,534.398 539.95,535.812C540.903,537.226 541.38,538.855 541.38,540.699C541.38,542.527 540.856,544.25 539.81,545.867C538.763,547.484 537.259,548.742 535.298,549.64C533.337,550.539 531.13,550.988 528.677,550.988C525.567,550.988 522.962,550.535 520.86,549.628C518.759,548.722 517.11,547.359 515.915,545.539C514.72,543.718 514.091,541.66 514.028,539.363Z" style="fill:white;fill-rule:nonzero;"/>
        <path d="M546.044,539.363L550.333,538.988C550.536,540.707 551.009,542.117 551.751,543.218C552.493,544.32 553.646,545.21 555.208,545.89C556.771,546.57 558.528,546.91 560.481,546.91C562.216,546.91 563.747,546.652 565.075,546.136C566.403,545.621 567.392,544.914 568.04,544.015C568.689,543.117 569.013,542.136 569.013,541.074C569.013,539.996 568.7,539.054 568.075,538.25C567.45,537.445 566.419,536.769 564.981,536.222C564.06,535.863 562.021,535.304 558.864,534.546C555.708,533.789 553.497,533.074 552.231,532.402C550.591,531.543 549.368,530.476 548.564,529.203C547.759,527.929 547.356,526.503 547.356,524.925C547.356,523.191 547.849,521.57 548.833,520.062C549.817,518.554 551.255,517.41 553.146,516.628C555.036,515.847 557.138,515.457 559.45,515.457C561.997,515.457 564.243,515.867 566.189,516.687C568.134,517.507 569.63,518.714 570.677,520.308C571.724,521.902 572.286,523.707 572.364,525.722L568.005,526.05C567.771,523.878 566.978,522.238 565.626,521.128C564.274,520.019 562.278,519.464 559.638,519.464C556.888,519.464 554.884,519.968 553.626,520.976C552.368,521.984 551.739,523.199 551.739,524.621C551.739,525.855 552.185,526.871 553.075,527.668C553.95,528.464 556.235,529.281 559.931,530.117C563.626,530.953 566.161,531.683 567.536,532.308C569.536,533.23 571.013,534.398 571.966,535.812C572.919,537.226 573.396,538.855 573.396,540.699C573.396,542.527 572.872,544.25 571.825,545.867C570.778,547.484 569.274,548.742 567.314,549.64C565.353,550.539 563.146,550.988 560.692,550.988C557.583,550.988 554.978,550.535 552.876,549.628C550.774,548.722 549.126,547.359 547.931,545.539C546.735,543.718 546.106,541.66 546.044,539.363Z" style="fill:white;fill-rule:nonzero;"/>
        <path d="M600.466,560.503C598.138,557.566 596.169,554.128 594.56,550.191C592.95,546.253 592.146,542.175 592.146,537.957C592.146,534.238 592.747,530.675 593.95,527.269C595.356,523.316 597.528,519.378 600.466,515.457L603.489,515.457C601.599,518.707 600.349,521.027 599.739,522.418C598.786,524.574 598.036,526.824 597.489,529.168C596.817,532.089 596.481,535.027 596.481,537.98C596.481,545.496 598.817,553.003 603.489,560.503L600.466,560.503Z" style="fill:white;fill-rule:nonzero;"/>
        <path d="M623.106,550.402L618.888,550.402L618.888,523.519C617.872,524.488 616.54,525.457 614.892,526.425C613.243,527.394 611.763,528.121 610.45,528.605L610.45,524.527C612.81,523.418 614.872,522.074 616.638,520.496C618.403,518.918 619.653,517.386 620.388,515.902L623.106,515.902L623.106,550.402Z" style="fill:white;fill-rule:nonzero;"/>
        <path d="M633.911,541.402L638.341,541.027C638.669,543.183 639.431,544.804 640.626,545.89C641.821,546.976 643.263,547.519 644.95,547.519C646.981,547.519 648.7,546.753 650.106,545.222C651.513,543.691 652.216,541.66 652.216,539.128C652.216,536.722 651.54,534.824 650.189,533.433C648.837,532.043 647.067,531.347 644.88,531.347C643.521,531.347 642.294,531.656 641.2,532.273C640.106,532.89 639.247,533.691 638.622,534.675L634.661,534.16L637.989,516.511L655.075,516.511L655.075,520.543L641.364,520.543L639.513,529.777C641.575,528.339 643.739,527.621 646.005,527.621C649.005,527.621 651.536,528.66 653.599,530.738C655.661,532.816 656.692,535.488 656.692,538.753C656.692,541.863 655.786,544.55 653.974,546.816C651.771,549.597 648.763,550.988 644.95,550.988C641.825,550.988 639.274,550.113 637.298,548.363C635.321,546.613 634.192,544.293 633.911,541.402Z" style="fill:white;fill-rule:nonzero;"/>
        <path d="M661.778,550.402L661.778,525.511L665.552,525.511L665.552,529.003C666.333,527.785 667.372,526.804 668.669,526.062C669.966,525.32 671.442,524.949 673.099,524.949C674.942,524.949 676.454,525.332 677.634,526.097C678.814,526.863 679.646,527.933 680.13,529.308C682.099,526.402 684.661,524.949 687.817,524.949C690.286,524.949 692.185,525.632 693.513,527C694.841,528.367 695.505,530.472 695.505,533.316L695.505,550.402L691.31,550.402L691.31,534.722C691.31,533.035 691.173,531.82 690.899,531.078C690.626,530.335 690.13,529.738 689.411,529.285C688.692,528.832 687.849,528.605 686.88,528.605C685.13,528.605 683.677,529.187 682.521,530.351C681.364,531.515 680.786,533.378 680.786,535.941L680.786,550.402L676.567,550.402L676.567,534.23C676.567,532.355 676.224,530.949 675.536,530.011C674.849,529.074 673.724,528.605 672.161,528.605C670.974,528.605 669.876,528.918 668.868,529.543C667.86,530.168 667.13,531.082 666.677,532.285C666.224,533.488 665.997,535.222 665.997,537.488L665.997,550.402L661.778,550.402Z" style="fill:white;fill-rule:nonzero;"/>
        <path d="M701.763,550.402L701.763,525.511L705.536,525.511L705.536,529.003C706.317,527.785 707.356,526.804 708.653,526.062C709.95,525.32 711.427,524.949 713.083,524.949C714.927,524.949 716.439,525.332 717.618,526.097C718.798,526.863 719.63,527.933 720.114,529.308C722.083,526.402 724.646,524.949 727.802,524.949C730.271,524.949 732.169,525.632 733.497,527C734.825,528.367 735.489,530.472 735.489,533.316L735.489,550.402L731.294,550.402L731.294,534.722C731.294,533.035 731.157,531.82 730.884,531.078C730.61,530.335 730.114,529.738 729.396,529.285C728.677,528.832 727.833,528.605 726.864,528.605C725.114,528.605 723.661,529.187 722.505,530.351C721.349,531.515 720.771,533.378 720.771,535.941L720.771,550.402L716.552,550.402L716.552,534.23C716.552,532.355 716.208,530.949 715.521,530.011C714.833,529.074 713.708,528.605 712.146,528.605C710.958,528.605 709.86,528.918 708.853,529.543C707.845,530.168 707.114,531.082 706.661,532.285C706.208,533.488 705.981,535.222 705.981,537.488L705.981,550.402L701.763,550.402Z" style="fill:white;fill-rule:nonzero;"/>
        <rect x="754.989" y="516.043" width="4.219" height="34.359" style="fill:white;fill-rule:nonzero;"/>
        <path d="M782.786,542.386L787.146,542.925C786.458,545.472 785.185,547.449 783.325,548.855C781.466,550.261 779.091,550.964 776.2,550.964C772.56,550.964 769.673,549.843 767.54,547.601C765.407,545.359 764.341,542.214 764.341,538.168C764.341,533.98 765.419,530.73 767.575,528.418C769.731,526.105 772.528,524.949 775.966,524.949C779.294,524.949 782.013,526.082 784.122,528.347C786.231,530.613 787.286,533.8 787.286,537.91C787.286,538.16 787.278,538.535 787.263,539.035L768.7,539.035C768.856,541.769 769.63,543.863 771.021,545.316C772.411,546.769 774.146,547.496 776.224,547.496C777.771,547.496 779.091,547.089 780.185,546.277C781.278,545.464 782.146,544.168 782.786,542.386ZM768.935,535.566L782.833,535.566C782.646,533.472 782.114,531.902 781.239,530.855C779.896,529.23 778.153,528.418 776.013,528.418C774.075,528.418 772.446,529.066 771.126,530.363C769.806,531.66 769.075,533.394 768.935,535.566Z" style="fill:white;fill-rule:nonzero;"/>
        <path d="M792.442,550.402L792.442,525.511L796.239,525.511L796.239,529.05C798.067,526.316 800.708,524.949 804.161,524.949C805.661,524.949 807.04,525.218 808.298,525.757C809.556,526.296 810.497,527.003 811.122,527.878C811.747,528.753 812.185,529.793 812.435,530.996C812.591,531.777 812.669,533.144 812.669,535.097L812.669,550.402L808.45,550.402L808.45,535.261C808.45,533.543 808.286,532.257 807.958,531.406C807.63,530.554 807.048,529.875 806.212,529.367C805.376,528.859 804.396,528.605 803.271,528.605C801.474,528.605 799.923,529.175 798.618,530.316C797.314,531.457 796.661,533.621 796.661,536.808L796.661,550.402L792.442,550.402Z" style="fill:white;fill-rule:nonzero;"/>
        <path d="M817.45,542.972L821.622,542.316C821.856,543.988 822.509,545.269 823.579,546.16C824.649,547.05 826.146,547.496 828.067,547.496C830.005,547.496 831.442,547.101 832.38,546.312C833.317,545.523 833.786,544.597 833.786,543.535C833.786,542.582 833.372,541.832 832.544,541.285C831.966,540.91 830.528,540.433 828.231,539.855C825.138,539.074 822.993,538.398 821.798,537.828C820.603,537.257 819.696,536.468 819.079,535.46C818.462,534.453 818.153,533.339 818.153,532.121C818.153,531.011 818.407,529.984 818.915,529.039C819.423,528.093 820.114,527.308 820.989,526.683C821.646,526.199 822.54,525.789 823.673,525.453C824.806,525.117 826.021,524.949 827.317,524.949C829.271,524.949 830.985,525.23 832.462,525.793C833.939,526.355 835.028,527.117 835.731,528.078C836.435,529.039 836.919,530.324 837.185,531.933L833.06,532.496C832.872,531.214 832.329,530.214 831.431,529.496C830.532,528.777 829.263,528.418 827.622,528.418C825.685,528.418 824.302,528.738 823.474,529.378C822.646,530.019 822.231,530.769 822.231,531.628C822.231,532.175 822.403,532.668 822.747,533.105C823.091,533.558 823.63,533.933 824.364,534.23C824.786,534.386 826.028,534.746 828.091,535.308C831.075,536.105 833.157,536.757 834.337,537.265C835.517,537.773 836.442,538.511 837.114,539.48C837.786,540.449 838.122,541.652 838.122,543.089C838.122,544.496 837.712,545.82 836.892,547.062C836.071,548.304 834.888,549.265 833.341,549.945C831.794,550.625 830.044,550.964 828.091,550.964C824.856,550.964 822.392,550.293 820.696,548.949C819.001,547.605 817.919,545.613 817.45,542.972Z" style="fill:white;fill-rule:nonzero;"/>
        <path d="M845.903,560.503L842.88,560.503C847.552,553.003 849.888,545.496 849.888,537.98C849.888,535.043 849.552,532.128 848.88,529.238C848.349,526.894 847.606,524.644 846.653,522.488C846.044,521.082 844.786,518.738 842.88,515.457L845.903,515.457C848.841,519.378 851.013,523.316 852.419,527.269C853.622,530.675 854.224,534.238 854.224,537.957C854.224,542.175 853.415,546.253 851.798,550.191C850.181,554.128 848.216,557.566 845.903,560.503Z" style="fill:white;fill-rule:nonzero;"/>
        <path d="M860.294,530.316L860.294,525.511L865.099,525.511L865.099,530.316L860.294,530.316ZM860.294,550.402L860.294,545.597L865.099,545.597L865.099,550.402L860.294,550.402Z" style="fill:white;fill-rule:nonzero;"/>
        <path d="M898.146,550.402L898.146,542.175L883.239,542.175L883.239,538.308L898.919,516.043L902.364,516.043L902.364,538.308L907.005,538.308L907.005,542.175L902.364,542.175L902.364,550.402L898.146,550.402ZM898.146,538.308L898.146,522.816L887.388,538.308L898.146,538.308Z" style="fill:white;fill-rule:nonzero;"/>
        <path d="M911.317,533.457C911.317,529.394 911.735,526.125 912.571,523.648C913.407,521.171 914.649,519.261 916.298,517.918C917.946,516.574 920.021,515.902 922.521,515.902C924.364,515.902 925.981,516.273 927.372,517.015C928.763,517.757 929.911,518.828 930.817,520.226C931.724,521.625 932.435,523.328 932.95,525.335C933.466,527.343 933.724,530.05 933.724,533.457C933.724,537.488 933.31,540.742 932.481,543.218C931.653,545.695 930.415,547.609 928.767,548.96C927.118,550.312 925.036,550.988 922.521,550.988C919.208,550.988 916.606,549.8 914.716,547.425C912.45,544.566 911.317,539.91 911.317,533.457ZM915.653,533.457C915.653,539.097 916.314,542.851 917.634,544.718C918.954,546.585 920.583,547.519 922.521,547.519C924.458,547.519 926.087,546.582 927.407,544.707C928.728,542.832 929.388,539.082 929.388,533.457C929.388,527.8 928.728,524.043 927.407,522.183C926.087,520.324 924.442,519.394 922.474,519.394C920.536,519.394 918.989,520.214 917.833,521.855C916.38,523.949 915.653,527.816 915.653,533.457Z" style="fill:white;fill-rule:nonzero;"/>
        <path d="M938.013,533.457C938.013,529.394 938.431,526.125 939.267,523.648C940.103,521.171 941.345,519.261 942.993,517.918C944.642,516.574 946.716,515.902 949.216,515.902C951.06,515.902 952.677,516.273 954.067,517.015C955.458,517.757 956.606,518.828 957.513,520.226C958.419,521.625 959.13,523.328 959.646,525.335C960.161,527.343 960.419,530.05 960.419,533.457C960.419,537.488 960.005,540.742 959.177,543.218C958.349,545.695 957.11,547.609 955.462,548.96C953.814,550.312 951.731,550.988 949.216,550.988C945.903,550.988 943.302,549.8 941.411,547.425C939.146,544.566 938.013,539.91 938.013,533.457ZM942.349,533.457C942.349,539.097 943.009,542.851 944.329,544.718C945.649,546.585 947.278,547.519 949.216,547.519C951.153,547.519 952.782,546.582 954.103,544.707C955.423,542.832 956.083,539.082 956.083,533.457C956.083,527.8 955.423,524.043 954.103,522.183C952.782,520.324 951.138,519.394 949.169,519.394C947.231,519.394 945.685,520.214 944.528,521.855C943.075,523.949 942.349,527.816 942.349,533.457Z" style="fill:white;fill-rule:nonzero;"/>
        <path d="M964.708,533.457C964.708,529.394 965.126,526.125 965.962,523.648C966.798,521.171 968.04,519.261 969.689,517.918C971.337,516.574 973.411,515.902 975.911,515.902C977.755,515.902 979.372,516.273 980.763,517.015C982.153,517.757 983.302,518.828 984.208,520.226C985.114,521.625 985.825,523.328 986.341,525.335C986.856,527.343 987.114,530.05 987.114,533.457C987.114,537.488 986.7,540.742 985.872,543.218C985.044,545.695 983.806,547.609 982.157,548.96C980.509,550.312 978.427,550.988 975.911,550.988C972.599,550.988 969.997,549.8 968.106,547.425C965.841,544.566 964.708,539.91 964.708,533.457ZM969.044,533.457C969.044,539.097 969.704,542.851 971.024,544.718C972.345,546.585 973.974,547.519 975.911,547.519C977.849,547.519 979.478,546.582 980.798,544.707C982.118,542.832 982.778,539.082 982.778,533.457C982.778,527.8 982.118,524.043 980.798,522.183C979.478,520.324 977.833,519.394 975.864,519.394C973.927,519.394 972.38,520.214 971.224,521.855C969.771,523.949 969.044,527.816 969.044,533.457Z" style="fill:white;fill-rule:nonzero;"/>
        <path d="M1005.94,550.402L1005.94,516.043L1010.15,516.043L1010.15,535.636L1020.14,525.511L1025.6,525.511L1016.08,534.746L1026.56,550.402L1021.36,550.402L1013.13,537.675L1010.15,540.535L1010.15,550.402L1005.94,550.402Z" style="fill:white;fill-rule:nonzero;"/>
        <path d="M1029.91,550.402L1029.91,525.511L1033.68,525.511L1033.68,529.003C1034.47,527.785 1035.51,526.804 1036.8,526.062C1038.1,525.32 1039.58,524.949 1041.23,524.949C1043.08,524.949 1044.59,525.332 1045.77,526.097C1046.95,526.863 1047.78,527.933 1048.26,529.308C1050.23,526.402 1052.79,524.949 1055.95,524.949C1058.42,524.949 1060.32,525.632 1061.65,527C1062.97,528.367 1063.64,530.472 1063.64,533.316L1063.64,550.402L1059.44,550.402L1059.44,534.722C1059.44,533.035 1059.31,531.82 1059.03,531.078C1058.76,530.335 1058.26,529.738 1057.54,529.285C1056.83,528.832 1055.98,528.605 1055.01,528.605C1053.26,528.605 1051.81,529.187 1050.65,530.351C1049.5,531.515 1048.92,533.378 1048.92,535.941L1048.92,550.402L1044.7,550.402L1044.7,534.23C1044.7,532.355 1044.36,530.949 1043.67,530.011C1042.98,529.074 1041.86,528.605 1040.29,528.605C1039.11,528.605 1038.01,528.918 1037,529.543C1035.99,530.168 1035.26,531.082 1034.81,532.285C1034.36,533.488 1034.13,535.222 1034.13,537.488L1034.13,550.402L1029.91,550.402Z" style="fill:white;fill-rule:nonzero;"/>
        <path d="M1091.29,560.503C1088.97,557.566 1087,554.128 1085.39,550.191C1083.78,546.253 1082.97,542.175 1082.97,537.957C1082.97,534.238 1083.58,530.675 1084.78,527.269C1086.18,523.316 1088.36,519.378 1091.29,515.457L1094.32,515.457C1092.43,518.707 1091.18,521.027 1090.57,522.418C1089.61,524.574 1088.86,526.824 1088.32,529.168C1087.65,532.089 1087.31,535.027 1087.31,537.98C1087.31,545.496 1089.65,553.003 1094.32,560.503L1091.29,560.503Z" style="fill:white;fill-rule:nonzero;"/>
        <path d="M1098.07,541.332L1102.29,540.769C1102.77,543.16 1103.6,544.882 1104.76,545.937C1105.92,546.992 1107.34,547.519 1109.01,547.519C1111,547.519 1112.67,546.832 1114.04,545.457C1115.41,544.082 1116.09,542.378 1116.09,540.347C1116.09,538.41 1115.46,536.812 1114.19,535.554C1112.93,534.296 1111.32,533.668 1109.36,533.668C1108.57,533.668 1107.58,533.824 1106.39,534.136L1106.86,530.433C1107.14,530.464 1107.36,530.48 1107.54,530.48C1109.33,530.48 1110.95,530.011 1112.39,529.074C1113.83,528.136 1114.54,526.691 1114.54,524.738C1114.54,523.191 1114.02,521.91 1112.97,520.894C1111.93,519.878 1110.58,519.371 1108.92,519.371C1107.28,519.371 1105.91,519.886 1104.82,520.918C1103.72,521.949 1103.02,523.496 1102.71,525.558L1098.49,524.808C1099.01,521.98 1100.18,519.789 1102.01,518.234C1103.83,516.679 1106.11,515.902 1108.83,515.902C1110.7,515.902 1112.43,516.304 1114.01,517.109C1115.58,517.914 1116.79,519.011 1117.63,520.402C1118.46,521.793 1118.88,523.269 1118.88,524.832C1118.88,526.316 1118.48,527.668 1117.68,528.886C1116.89,530.105 1115.71,531.074 1114.15,531.793C1116.18,532.261 1117.76,533.234 1118.88,534.71C1120.01,536.187 1120.57,538.035 1120.57,540.253C1120.57,543.253 1119.47,545.796 1117.29,547.882C1115.1,549.968 1112.33,551.011 1108.99,551.011C1105.97,551.011 1103.47,550.113 1101.48,548.316C1099.49,546.519 1098.35,544.191 1098.07,541.332Z" style="fill:white;fill-rule:nonzero;"/>
        <path d="M1124.74,541.402L1129.17,541.027C1129.5,543.183 1130.26,544.804 1131.45,545.89C1132.65,546.976 1134.09,547.519 1135.78,547.519C1137.81,547.519 1139.53,546.753 1140.93,545.222C1142.34,543.691 1143.04,541.66 1143.04,539.128C1143.04,536.722 1142.37,534.824 1141.02,533.433C1139.66,532.043 1137.9,531.347 1135.71,531.347C1134.35,531.347 1133.12,531.656 1132.03,532.273C1130.93,532.89 1130.08,533.691 1129.45,534.675L1125.49,534.16L1128.82,516.511L1145.9,516.511L1145.9,520.543L1132.19,520.543L1130.34,529.777C1132.4,528.339 1134.57,527.621 1136.83,527.621C1139.83,527.621 1142.36,528.66 1144.43,530.738C1146.49,532.816 1147.52,535.488 1147.52,538.753C1147.52,541.863 1146.61,544.55 1144.8,546.816C1142.6,549.597 1139.59,550.988 1135.78,550.988C1132.65,550.988 1130.1,550.113 1128.13,548.363C1126.15,546.613 1125.02,544.293 1124.74,541.402Z" style="fill:white;fill-rule:nonzero;"/>
        <rect x="1153.8" y="545.597" width="4.805" height="4.805" style="fill:white;fill-rule:nonzero;"/>
        <path d="M1165.4,542.457L1169.46,542.082C1169.8,543.988 1170.46,545.371 1171.43,546.23C1172.4,547.089 1173.64,547.519 1175.15,547.519C1176.45,547.519 1177.59,547.222 1178.56,546.628C1179.54,546.035 1180.34,545.242 1180.97,544.25C1181.59,543.257 1182.11,541.918 1182.54,540.23C1182.96,538.543 1183.17,536.824 1183.17,535.074C1183.17,534.886 1183.16,534.605 1183.15,534.23C1182.3,535.574 1181.15,536.664 1179.69,537.5C1178.23,538.335 1176.65,538.753 1174.94,538.753C1172.1,538.753 1169.69,537.722 1167.72,535.66C1165.76,533.597 1164.77,530.878 1164.77,527.503C1164.77,524.019 1165.8,521.214 1167.85,519.089C1169.91,516.964 1172.48,515.902 1175.58,515.902C1177.81,515.902 1179.85,516.503 1181.7,517.707C1183.56,518.91 1184.96,520.625 1185.92,522.851C1186.88,525.078 1187.36,528.3 1187.36,532.519C1187.36,536.91 1186.89,540.406 1185.93,543.007C1184.98,545.609 1183.56,547.589 1181.68,548.949C1179.8,550.308 1177.59,550.988 1175.06,550.988C1172.37,550.988 1170.18,550.242 1168.47,548.75C1166.77,547.257 1165.75,545.16 1165.4,542.457ZM1182.68,527.293C1182.68,524.871 1182.03,522.949 1180.74,521.527C1179.45,520.105 1177.9,519.394 1176.09,519.394C1174.22,519.394 1172.58,520.16 1171.19,521.691C1169.8,523.222 1169.11,525.207 1169.11,527.644C1169.11,529.832 1169.77,531.609 1171.09,532.976C1172.41,534.343 1174.04,535.027 1175.97,535.027C1177.93,535.027 1179.53,534.343 1180.79,532.976C1182.05,531.609 1182.68,529.714 1182.68,527.293Z" style="fill:white;fill-rule:nonzero;"/>
        <path d="M1198.22,515.457C1200.48,515.457 1202.33,516.238 1203.76,517.8C1205.19,519.363 1205.9,521.519 1205.9,524.269C1205.9,527.003 1205.18,529.152 1203.75,530.714C1202.31,532.277 1200.47,533.058 1198.24,533.058C1195.97,533.058 1194.12,532.293 1192.68,530.761C1191.25,529.23 1190.53,527.097 1190.53,524.363C1190.53,521.55 1191.24,519.363 1192.67,517.8C1194.1,516.238 1195.95,515.457 1198.22,515.457ZM1198.22,518.574C1196.95,518.574 1195.93,519.019 1195.16,519.91C1194.38,520.8 1194,522.253 1194,524.269C1194,526.238 1194.39,527.679 1195.18,528.593C1195.97,529.507 1196.98,529.964 1198.22,529.964C1199.47,529.964 1200.48,529.507 1201.26,528.593C1202.04,527.679 1202.43,526.199 1202.43,524.152C1202.43,522.246 1202.04,520.839 1201.25,519.933C1200.46,519.027 1199.45,518.574 1198.22,518.574Z" style="fill:white;fill-rule:nonzero;"/>
        <path d="M1212.93,560.503L1209.91,560.503C1214.58,553.003 1216.92,545.496 1216.92,537.98C1216.92,535.043 1216.58,532.128 1215.91,529.238C1215.38,526.894 1214.64,524.644 1213.68,522.488C1213.08,521.082 1211.82,518.738 1209.91,515.457L1212.93,515.457C1215.87,519.378 1218.04,523.316 1219.45,527.269C1220.65,530.675 1221.26,534.238 1221.26,537.957C1221.26,542.175 1220.45,546.253 1218.83,550.191C1217.21,554.128 1215.25,557.566 1212.93,560.503Z" style="fill:white;fill-rule:nonzero;"/>
    </g>
</svg>
