<svg viewBox="0 0 221.54 153.91" xmlns="http://www.w3.org/2000/svg"><path d="m120.97 72.65-3.42.01" fill="none" stroke="#000" stroke-linecap="round" stroke-linejoin="round" stroke-width=".1"/><path d="m117.55 72.66h-3.6" fill="none" stroke="#000" stroke-linecap="round" stroke-linejoin="round" stroke-width=".1"/><path d="m120.97 72.65-4.25-1.06v2.13z"/><text font-family="ArialMT, Arial" font-size="8.5" transform="translate(99.53 75.49)">ISS</text><text font-family="Helvetica, Helvetica" font-size="10.6" transform="translate(92.97 9.1)">Flat Horizon</text><text font-family="Helvetica, Helvetica" font-size="10.6" transform="translate(76.19 148.81)">OVERHEAD VIEW</text><path d="m120.97 11.52v61.13" fill="none" stroke="#000" stroke-linecap="round" stroke-linejoin="round"/><path d="m48.12 11.52h145.7" fill="none" stroke="#000" stroke-linecap="round" stroke-linejoin="round"/><path d="m72.58 110 10.9-10.27" fill="none" stroke="#ed1c24" stroke-linecap="round" stroke-linejoin="round" stroke-width=".1"/><path d="m83.48 99.73h5.78" fill="none" stroke="#ed1c24" stroke-linecap="round" stroke-linejoin="round" stroke-width=".1"/><path d="m72.58 110 3.82-2.14-1.46-1.55z" fill="#ed1c24"/><g fill="none" stroke-linecap="round" stroke-linejoin="round"><circle cx="120.97" cy="72.65" r="61.13" stroke="#ed1c24"/><path d="m63.82 50.94-15.91-6.04" stroke="#ed1c24" stroke-width=".1"/><path d="m47.91 44.9h-5.67" stroke="#ed1c24" stroke-width=".1"/><path d="m120.96 72.65h.02" stroke="#ed1c24" stroke-width=".1"/><path d="m120.97 72.66v-.02" stroke="#ed1c24" stroke-width=".1"/></g><path d="m63.82 50.94-3.59-2.5-.76 1.99z" fill="#ed1c24"/><text fill="#ed1c24" font-family="ArialMT, Arial" font-size="8.5" transform="translate(0 47.73)">ร4313 km</text><text fill="#ed1c24" font-family="Helvetica, Helvetica" font-size="10.6" transform="translate(90.42 103.21)">Earth Horizon</text><text fill="#f7941d" font-family="Helvetica, Helvetica" font-size="10.6" transform="matrix(.76604444 -.64278761 .64278761 .76604444 146.2 64.09)">Field of <tspan letter-spacing="-.02em" x="37.71" y="0">V</tspan><tspan x="44.59" y="0">iew</tspan><tspan x="0" y="12.72">15mm lens (100ยบ)</tspan></text><path d="m120.97 72.65v-61.13" fill="none" stroke="#793c71" stroke-linecap="round" stroke-linejoin="round"/><path d="m120.97 72.65-84.18-70.63" fill="none" stroke="#f7941d" stroke-linecap="round" stroke-linejoin="round"/><path d="m120.97 72.65 84.18-70.63" fill="none" stroke="#f7941d" stroke-linecap="round" stroke-linejoin="round"/></svg>