<svg xmlns="http://www.w3.org/2000/svg" viewBox="0 0 445.83 384.64"><defs><style>.cls-1,.cls-10,.cls-11,.cls-12,.cls-15,.cls-17,.cls-3,.cls-6,.cls-9{fill:none;stroke-linecap:round;stroke-linejoin:round;}.cls-1,.cls-3{stroke:#ed1c24;}.cls-14,.cls-16,.cls-19,.cls-2,.cls-5,.cls-8{font-size:8.5px;}.cls-2,.cls-4,.cls-5{fill:#ed1c24;}.cls-2{font-family:Helvetica, Helvetica;}.cls-12,.cls-15,.cls-17,.cls-3,.cls-6{stroke-width:0.1px;}.cls-14,.cls-16,.cls-19,.cls-5,.cls-8{font-family:ArialMT, Arial;}.cls-6,.cls-9{stroke:#793c71;}.cls-7,.cls-8{fill:#793c71;}.cls-10,.cls-17{stroke:#2e3192;}.cls-11,.cls-12{stroke:#004022;}.cls-13,.cls-14{fill:#004022;}.cls-15{stroke:#000;}.cls-18,.cls-19{fill:#2e3192;}</style></defs><title>earth-1</title><g id="Layer_01" data-name="Layer 01"><line class="cls-1" x1="362.13" y1="131.19" x2="362.13" y2="253.45"/><text class="cls-2" transform="translate(441.74 216.82) rotate(-90)">Earth Horizon</text><line class="cls-3" x1="362.15" y1="131.19" x2="434.26" y2="131.19"/><line class="cls-3" x1="362.15" y1="253.45" x2="434.26" y2="253.45"/><line class="cls-3" x1="434.24" y1="253.45" x2="434.24" y2="131.19"/><polyline class="cls-4" points="434.24 253.45 435.31 249.2 433.18 249.2 434.24 253.45"/><polyline class="cls-4" points="434.24 131.19 433.18 135.44 435.31 135.44 434.24 131.19"/><text class="cls-5" transform="translate(432.83 207.26) rotate(-90)">4313 km</text></g><g id="Layer_02" data-name="Layer 02"><line class="cls-6" x1="362.15" y1="131.18" x2="382.38" y2="123.9"/><line class="cls-6" x1="384.15" y1="192.32" x2="404.38" y2="185.03"/><line class="cls-6" x1="382.36" y1="123.91" x2="404.37" y2="185.04"/><polyline class="cls-7" points="382.36 123.91 382.8 128.27 384.8 127.55 382.36 123.91"/><polyline class="cls-7" points="404.37 185.04 403.93 180.68 401.93 181.4 404.37 185.04"/><text class="cls-8" transform="translate(389.66 140) rotate(70.2)">2292 km</text><line class="cls-9" x1="384.14" y1="192.32" x2="362.13" y2="131.19"/></g><g id="Layer_03" data-name="Layer 03"><line class="cls-10" x1="372.8" y1="192.32" x2="384.14" y2="192.32"/><circle class="cls-10" cx="192.32" cy="192.32" r="191.82"/></g><g id="Layer_04" data-name="Layer 04"><circle class="cls-11" cx="192.32" cy="192.32" r="180.48"/><line class="cls-11" x1="362.13" y1="192.32" x2="372.8" y2="192.32"/><line class="cls-11" x1="192.32" y1="192.32" x2="362.13" y2="192.32"/><line class="cls-12" x1="192.32" y1="192.31" x2="185.79" y2="174.18"/><line class="cls-12" x1="362.13" y1="131.18" x2="355.6" y2="113.05"/><line class="cls-12" x1="185.8" y1="174.2" x2="355.61" y2="113.06"/><polyline class="cls-13" points="185.8 174.19 190.16 173.75 189.44 171.75 185.8 174.19"/><polyline class="cls-13" points="355.61 113.06 351.25 113.5 351.97 115.5 355.61 113.06"/><text class="cls-14" transform="translate(256.26 147.32) rotate(-19.8)">6367 km</text><line class="cls-11" x1="362.13" y1="131.19" x2="192.32" y2="192.32"/></g><g id="Default"><line class="cls-15" x1="342.23" y1="91.81" x2="369.53" y2="75.58"/><line class="cls-15" x1="369.53" y1="75.58" x2="384.64" y2="75.58"/><polyline points="342.23 91.81 346.43 90.55 345.34 88.73 342.23 91.81"/><text class="cls-16" transform="translate(386.06 78.41)">Earth</text><line class="cls-15" x1="362.98" y1="104.74" x2="387.07" y2="96.37"/><line class="cls-15" x1="387.07" y1="96.37" x2="397.72" y2="96.37"/><polyline points="362.98 104.74 367.35 104.35 366.65 102.34 362.98 104.74"/><text class="cls-16" transform="translate(399.13 99.2)">ISS Orbit</text><line class="cls-15" x1="362.13" y1="192.33" x2="362.13" y2="277.92"/><line class="cls-15" x1="384.14" y1="203.51" x2="384.14" y2="277.92"/><line class="cls-15" x1="362.13" y1="277.91" x2="384.14" y2="277.91"/><polyline points="362.13 277.91 366.39 278.97 366.39 276.84 362.13 277.91"/><polyline points="384.14 277.91 379.89 276.84 379.89 278.97 384.14 277.91"/><text class="cls-16" transform="translate(387.12 276.49)">776 km</text></g><g id="Text"><path class="cls-6" d="M467.81,466a103.93,103.93,0,0,0,36-6.28" transform="translate(-105.68 -228.68)"/><polyline class="cls-7" points="362.13 237.36 366.41 238.34 366.36 236.21 362.13 237.36"/><polyline class="cls-7" points="398.1 231.08 393.73 231.43 394.41 233.45 398.1 231.08"/><text class="cls-8" transform="matrix(0.99, -0.17, 0.17, 0.99, 369.46, 236.24)">19.80ยบ</text><path class="cls-15" d="M478.35,389.15a31.12,31.12,0,0,1-39.82-18.74" transform="translate(-105.68 -228.68)"/><polyline points="372.67 160.47 368.88 162.65 368.29 160.61 372.67 160.47"/><polyline points="332.86 141.73 335.54 145.19 333.59 146.05 332.86 141.73"/><text class="cls-16" transform="translate(338.87 153.07) rotate(25.2)">90.00ยบ</text><line class="cls-17" x1="372.8" y1="192.33" x2="372.8" y2="209.72"/><line class="cls-17" x1="384.14" y1="192.33" x2="384.14" y2="209.72"/><line class="cls-17" x1="372.8" y1="209.71" x2="384.14" y2="209.71"/><polyline class="cls-18" points="372.8 209.71 377.05 210.77 377.05 208.64 372.8 209.71"/><polyline class="cls-18" points="384.14 209.71 379.89 208.64 379.89 210.77 384.14 209.71"/><text class="cls-19" transform="translate(344.66 208.29)">400 km</text></g></svg>